<svg width="99" height="99" viewBox="0 0 99 99" fill="none" xmlns="http://www.w3.org/2000/svg">
<path fill-rule="evenodd" clip-rule="evenodd" d="M99 55.159V49.5C99 32.7706 85.3907 19.1613 68.6613 19.1613C65.3065 19.1613 62.0874 19.7313 59.0695 20.7405C58.3126 18.4763 57.3034 16.3462 56.0771 14.371H69.3224L72.5159 11.1774H84.9228C85.5839 13.0313 87.3404 14.371 89.4194 14.371C92.0604 14.371 94.2097 12.2217 94.2097 9.58065C94.2097 6.93958 92.0604 4.79032 89.4194 4.79032C87.3404 4.79032 85.5839 6.13002 84.9228 7.98387H71.1938L68.0002 11.1774H53.8161C48.1811 4.28095 39.6383 0 30.3387 0C13.6093 0 0 13.6093 0 30.3387C0 40.5197 5.05698 49.524 12.7742 55.0296V62.9353L15.9677 66.1288V75.3422C14.1139 76.0033 12.7742 77.7597 12.7742 79.8387C12.7742 82.4798 14.9235 84.629 17.5645 84.629C20.2056 84.629 22.3548 82.4798 22.3548 79.8387C22.3548 77.7597 21.0151 76.0033 19.1613 75.3422V64.8067L15.9677 61.6131V57.048C19.8048 59.1206 24.1432 60.3549 28.7419 60.596V80.1341C26.8881 80.7952 25.5484 82.5516 25.5484 84.6306C25.5484 87.2717 27.6976 89.421 30.3387 89.421C32.9798 89.421 35.129 87.2717 35.129 84.6306C35.129 82.5516 33.7893 80.7952 31.9355 80.1341V60.6088C34.0815 60.4922 36.2164 60.1537 38.3226 59.5725V66.619L43.2151 68.2493L44.8486 86.2258H54.2903V99H57.4839V86.2258H62.2742C70.1974 86.2258 76.6452 79.778 76.6452 71.8548V70.2581H73.4516V71.8548C73.4516 78.0184 68.4377 83.0323 62.2742 83.0323H47.7643L46.2059 65.8797L41.5161 64.3165V49.5C41.5161 46.1244 42.1644 42.9037 43.2949 39.9194H56.8228L63.1796 46.2761C62.6175 47.2262 62.2742 48.3184 62.2742 49.5C62.2742 53.0225 65.1388 55.8871 68.6613 55.8871C72.1838 55.8871 75.0484 53.0225 75.0484 49.5C75.0484 45.9775 72.1838 43.1129 68.6613 43.1129C67.4797 43.1129 66.3875 43.4562 65.4374 44.0183L58.1449 36.7258H44.7225C49.3004 28.1831 58.3094 22.3548 68.6613 22.3548C83.6295 22.3548 95.8064 34.5318 95.8064 49.5V55.159C95.8064 62.4099 92.9834 69.2265 87.8561 74.3538L83.0323 79.1776V99H86.2258V80.4998L90.114 76.6116C95.8448 70.8824 99 63.2626 99 55.159ZM91.6165 42.6562C88.6082 32.5838 79.1697 25.5484 68.6613 25.5484V28.7419C77.7693 28.7419 85.9496 34.8384 88.5571 43.5696L91.6165 42.6562ZM89.4194 49.5C89.4194 48.5036 89.3491 47.5056 89.2086 46.5348L92.3686 46.0797C92.5315 47.2006 92.6129 48.3519 92.6129 49.5H89.4194ZM87.8226 9.58065C87.8226 10.4605 88.5395 11.1774 89.4193 11.1774C90.2992 11.1774 91.0161 10.4605 91.0161 9.58065C91.0161 8.70082 90.2992 7.98387 89.4193 7.98387C88.5395 7.98387 87.8226 8.70082 87.8226 9.58065ZM17.5645 78.2419C18.4443 78.2419 19.1613 78.9589 19.1613 79.8387C19.1613 80.7185 18.4443 81.4355 17.5645 81.4355C16.6847 81.4355 15.9677 80.7185 15.9677 79.8387C15.9677 78.9589 16.6847 78.2419 17.5645 78.2419ZM68.6613 46.3064C66.9 46.3064 65.4677 47.7388 65.4677 49.5C65.4677 51.2612 66.9 52.6935 68.6613 52.6935C70.4225 52.6935 71.8548 51.2612 71.8548 49.5C71.8548 47.7388 70.4225 46.3064 68.6613 46.3064ZM42.6019 14.371C41.4012 10.205 39.7389 6.73839 37.7477 4.25221C43.5776 5.91924 48.6777 9.50081 52.2321 14.371H42.6019ZM41.1888 36.7098C41.3501 35.1466 41.4331 33.5466 41.4746 31.9355H36.4991C36.349 32.5151 36.119 33.0596 35.8204 33.5626L38.9836 36.7258H41.1808C41.184 36.721 41.1872 36.7146 41.1888 36.7098ZM30.3387 27.1452C32.1 27.1452 33.5323 28.5775 33.5323 30.3387C33.5323 32.1 32.1 33.5323 30.3387 33.5323C28.5775 33.5323 27.1452 32.1 27.1452 30.3387C27.1452 28.5775 28.5775 27.1452 30.3387 27.1452ZM40.1653 17.5645H20.5122C19.7665 20.8507 19.2954 24.6095 19.1964 28.7419H24.1784C24.8921 25.9955 27.3719 23.9516 30.3387 23.9516C33.3055 23.9516 35.7853 25.9955 36.4991 28.7419H41.481C41.382 24.6095 40.911 20.8507 40.1653 17.5645ZM17.2723 43.1129H6.39987C4.59711 39.7469 3.50971 35.9546 3.27498 31.9355H16.0045C16.0987 35.9338 16.5394 39.699 17.2723 43.1129ZM16.0045 28.7419C16.0987 24.7436 16.5394 20.9784 17.2723 17.5645H6.39987C4.59711 20.9305 3.50971 24.7229 3.27339 28.7419H16.0045ZM30.3387 3.19355C33.6728 3.19355 37.1474 7.36432 39.3206 14.371H21.3569C23.5301 7.36432 27.0046 3.19355 30.3387 3.19355ZM8.43576 14.371H18.0755C19.2779 10.2018 20.9417 6.7336 22.9345 4.24582C17.036 5.92244 11.9662 9.54232 8.43576 14.371ZM18.0739 46.3064C19.2763 50.4756 20.9401 53.9454 22.9329 56.4316C17.036 54.755 11.9662 51.1351 8.43576 46.3064H18.0739ZM31.9355 84.629C31.9355 83.7492 31.2185 83.0323 30.3387 83.0323C29.4589 83.0323 28.7419 83.7492 28.7419 84.629C28.7419 85.5089 29.4589 86.2258 30.3387 86.2258C31.2185 86.2258 31.9355 85.5089 31.9355 84.629ZM38.3226 49.5V56.232C35.6991 57.048 33.0213 57.4839 30.3387 57.4839C27.0062 57.4839 23.5301 53.3131 21.3569 46.3064H38.4934C38.3833 47.3571 38.3226 48.4206 38.3226 49.5ZM39.897 39.9194H37.6615L33.5626 35.8204C32.6125 36.3825 31.5203 36.7258 30.3387 36.7258C27.3719 36.7258 24.8921 34.6819 24.1784 31.9355H19.1964C19.2954 36.0679 19.7665 39.8267 20.5122 43.1129H39.0124C39.2471 42.0239 39.5489 40.962 39.897 39.9194ZM54.2424 17.5645C54.9801 18.9441 55.5981 20.4004 56.0947 21.9205C51.595 23.9788 47.6925 27.0989 44.6937 30.9694C44.6945 30.8702 44.698 30.7713 44.7016 30.6725C44.7057 30.5614 44.7097 30.4503 44.7097 30.3387C44.7097 25.7432 44.2354 21.4319 43.4051 17.5645H54.2424Z" fill="#4487C0"/>
</svg>
