<svg width="32" height="25" viewBox="0 0 32 25" fill="none" xmlns="http://www.w3.org/2000/svg">
<path fill-rule="evenodd" clip-rule="evenodd" d="M13.7015 24.3682C14.3958 23.6739 14.3958 22.5483 13.7015 21.854L6.06971 14.2222H30.2222C31.2041 14.2222 32 13.4263 32 12.4444C32 11.4626 31.2041 10.6667 30.2222 10.6667H6.06971L13.7015 3.03486C14.3958 2.34059 14.3958 1.21496 13.7015 0.520699C13.0073 -0.173566 11.8816 -0.173566 11.1874 0.520699L0.520699 11.1874C0.179106 11.529 0.00558472 11.975 0.000131607 12.4227C-4.57764e-05 12.4372 -4.57764e-05 12.4517 0.0001297 12.4662C0.00292015 12.6993 0.0505867 12.9216 0.134893 13.1249C0.221649 13.3346 0.35025 13.5311 0.520699 13.7015C0.520739 13.7016 0.520777 13.7016 0.520817 13.7016L11.1874 24.3682C11.8816 25.0625 13.0073 25.0625 13.7015 24.3682Z" fill="black"/>
<mask id="mask0" mask-type="alpha" maskUnits="userSpaceOnUse" x="0" y="0" width="32" height="25">
<path fill-rule="evenodd" clip-rule="evenodd" d="M13.7015 24.3682C14.3958 23.6739 14.3958 22.5483 13.7015 21.854L6.06971 14.2222H30.2222C31.2041 14.2222 32 13.4263 32 12.4444C32 11.4626 31.2041 10.6667 30.2222 10.6667H6.06971L13.7015 3.03486C14.3958 2.34059 14.3958 1.21496 13.7015 0.520699C13.0073 -0.173566 11.8816 -0.173566 11.1874 0.520699L0.520699 11.1874C0.179106 11.529 0.00558472 11.975 0.000131607 12.4227C-4.57764e-05 12.4372 -4.57764e-05 12.4517 0.0001297 12.4662C0.00292015 12.6993 0.0505867 12.9216 0.134893 13.1249C0.221649 13.3346 0.35025 13.5311 0.520699 13.7015C0.520739 13.7016 0.520777 13.7016 0.520817 13.7016L11.1874 24.3682C11.8816 25.0625 13.0073 25.0625 13.7015 24.3682Z" fill="white"/>
</mask>
<g mask="url(#mask0)">
<rect width="42.6667" height="42.6667" transform="matrix(-1 0 0 1 37.3334 -8.88892)" fill="#908D91"/>
</g>
</svg>
