<svg width="32" height="25" viewBox="0 0 32 25" fill="none" xmlns="http://www.w3.org/2000/svg">
<path fill-rule="evenodd" clip-rule="evenodd" d="M18.2985 24.3682C17.6042 23.6739 17.6042 22.5483 18.2985 21.854L25.9303 14.2222H1.77778C0.795938 14.2222 0 13.4263 0 12.4444C0 11.4626 0.795938 10.6667 1.77778 10.6667H25.9303L18.2985 3.03486C17.6042 2.34059 17.6042 1.21496 18.2985 0.520699C18.9927 -0.173566 20.1184 -0.173566 20.8126 0.520699L31.4793 11.1874C31.8209 11.529 31.9944 11.975 31.9999 12.4227C32 12.4372 32 12.4517 31.9999 12.4662C31.9971 12.6993 31.9494 12.9216 31.8651 13.1249C31.7784 13.3346 31.6497 13.5311 31.4793 13.7015C31.4793 13.7016 31.4792 13.7016 31.4792 13.7016L20.8126 24.3682C20.1184 25.0625 18.9927 25.0625 18.2985 24.3682Z" fill="black"/>
<mask id="mask0" mask-type="alpha" maskUnits="userSpaceOnUse" x="0" y="0" width="32" height="25">
<path fill-rule="evenodd" clip-rule="evenodd" d="M18.2985 24.3682C17.6042 23.6739 17.6042 22.5483 18.2985 21.854L25.9303 14.2222H1.77778C0.795938 14.2222 0 13.4263 0 12.4444C0 11.4626 0.795938 10.6667 1.77778 10.6667H25.9303L18.2985 3.03486C17.6042 2.34059 17.6042 1.21496 18.2985 0.520699C18.9927 -0.173566 20.1184 -0.173566 20.8126 0.520699L31.4793 11.1874C31.8209 11.529 31.9944 11.975 31.9999 12.4227C32 12.4372 32 12.4517 31.9999 12.4662C31.9971 12.6993 31.9494 12.9216 31.8651 13.1249C31.7784 13.3346 31.6497 13.5311 31.4793 13.7015C31.4793 13.7016 31.4792 13.7016 31.4792 13.7016L20.8126 24.3682C20.1184 25.0625 18.9927 25.0625 18.2985 24.3682Z" fill="white"/>
</mask>
<g mask="url(#mask0)">
<rect x="-5.33325" y="-8.88892" width="42.6667" height="42.6667" fill="#908D91"/>
</g>
</svg>
