<svg xmlns="http://www.w3.org/2000/svg" xmlns:xlink="http://www.w3.org/1999/xlink" viewBox="0 0 1000 1000"><defs><style>.cls-1{mask:url(#mask);filter:url(#luminosity-noclip-6);}.cls-10,.cls-120,.cls-14,.cls-2,.cls-4,.cls-40,.cls-6,.cls-8{mix-blend-mode:multiply;}.cls-2{fill:url(#radial-gradient);}.cls-3{mask:url(#mask-2);filter:url(#luminosity-noclip-7);}.cls-4{fill:url(#linear-gradient);}.cls-5{mask:url(#mask-3);filter:url(#luminosity-noclip-8);}.cls-6{fill:url(#linear-gradient-2);}.cls-7{mask:url(#mask-4);filter:url(#luminosity-noclip-9);}.cls-8{fill:url(#linear-gradient-3);}.cls-9{mask:url(#mask-5);filter:url(#luminosity-noclip-10);}.cls-10{fill:url(#radial-gradient-2);}.cls-11{fill:none;}.cls-12{isolation:isolate;}.cls-13{mask:url(#mask-6);}.cls-14{fill:url(#radial-gradient-3);}.cls-15{clip-path:url(#clip-path);}.cls-16{fill:#808285;}.cls-17{fill:#818386;}.cls-18{fill:#828487;}.cls-19{fill:#838588;}.cls-20{fill:#848689;}.cls-21{fill:#85878a;}.cls-22{fill:#86888b;}.cls-23{fill:#87898b;}.cls-24{fill:#888a8c;}.cls-25{fill:#898b8d;}.cls-26{fill:#8a8c8e;}.cls-27{fill:#8a8c8f;}.cls-28{fill:#8b8d90;}.cls-29{fill:#8c8e91;}.cls-30{fill:#8d8f92;}.cls-31{fill:#8e9092;}.cls-32{fill:#8f9193;}.cls-33{fill:#8f9194;}.cls-34{fill:#909295;}.cls-35{fill:#919396;}.cls-36{fill:#929496;}.cls-37{fill:#929497;}.cls-38{fill:#939598;}.cls-39{fill:#949698;}.cls-41{fill:#fff;}.cls-42{fill:#fbfbfb;}.cls-43{fill:#f8f8f9;}.cls-44{fill:#f6f6f6;}.cls-45{fill:#f4f4f4;}.cls-46{fill:#f1f2f2;}.cls-47{fill:#eff0f0;}.cls-48{fill:#edeeef;}.cls-49{fill:#ebeced;}.cls-50{fill:#e9eaeb;}.cls-51{fill:#e7e8e9;}.cls-52{fill:#e5e6e7;}.cls-53{fill:#e3e4e5;}.cls-54{fill:#e1e2e3;}.cls-55{fill:#dfe0e1;}.cls-56{fill:#dddedf;}.cls-57{fill:#dbdcdd;}.cls-58{fill:#d9dadb;}.cls-59{fill:#d7d8d9;}.cls-60{fill:#d5d6d7;}.cls-61{fill:#d3d4d6;}.cls-62{fill:#d1d2d4;}.cls-63{fill:#ced0d2;}.cls-64{fill:#ccced0;}.cls-65{fill:#caccce;}.cls-66{fill:#c8cacc;}.cls-67{fill:#c6c8ca;}.cls-68{fill:#c4c6c8;}.cls-69{fill:#c2c4c6;}.cls-70{fill:#c0c2c4;}.cls-71{fill:#bec0c2;}.cls-72{fill:#bcbec0;}.cls-73{fill:url(#radial-gradient-4);}.cls-74{fill:url(#radial-gradient-5);}.cls-75{fill:url(#radial-gradient-6);}.cls-76{mask:url(#mask-7);}.cls-77{fill:url(#linear-gradient-4);}.cls-78{fill:url(#radial-gradient-7);}.cls-79{fill:url(#radial-gradient-8);}.cls-80{fill:#fdfdfd;}.cls-81{fill:#fafafa;}.cls-82{fill:#f8f8f8;}.cls-83{fill:#f5f5f5;}.cls-84{fill:#f3f3f3;}.cls-85{fill:#f0f0f0;}.cls-86{fill:#eee;}.cls-87{fill:#ebebeb;}.cls-88{fill:#e9e9e9;}.cls-89{fill:#e6e6e6;}.cls-90{fill:#e4e4e4;}.cls-91{fill:#e1e1e1;}.cls-92{fill:#dfdfdf;}.cls-93{fill:#dcdcdc;}.cls-94{fill:#dadada;}.cls-95{fill:#d8d8d8;}.cls-96{fill:#d5d5d5;}.cls-97{fill:#d3d3d3;}.cls-98{fill:#d0d0d0;}.cls-99{fill:#cecece;}.cls-100{fill:#cbcbcb;}.cls-101{fill:#c9c9c9;}.cls-102{fill:#c6c6c6;}.cls-103{fill:#c4c4c4;}.cls-104{fill:#c1c1c1;}.cls-105{fill:#bfbfbf;}.cls-106{fill:#bcbcbc;}.cls-107{fill:#bababa;}.cls-108{fill:#b7b7b7;}.cls-109{fill:#b5b5b5;}.cls-110{fill:#b3b3b3;}.cls-111{fill:url(#radial-gradient-9);}.cls-112{mask:url(#mask-8);}.cls-113{fill:url(#linear-gradient-5);}.cls-114{fill:url(#radial-gradient-10);}.cls-115{fill:url(#radial-gradient-11);}.cls-116{fill:url(#radial-gradient-12);}.cls-117{mask:url(#mask-9);}.cls-118{fill:url(#linear-gradient-6);}.cls-119{mask:url(#mask-10);}.cls-120{fill:url(#radial-gradient-13);}.cls-121{fill:url(#radial-gradient-14);}.cls-122{filter:url(#luminosity-noclip-5);}.cls-123{filter:url(#luminosity-noclip-4);}.cls-124{filter:url(#luminosity-noclip-3);}.cls-125{filter:url(#luminosity-noclip-2);}.cls-126{filter:url(#luminosity-noclip);}</style><filter id="luminosity-noclip" x="200" y="-8692" width="650" height="32766" filterUnits="userSpaceOnUse" color-interpolation-filters="sRGB"><feFlood flood-color="#fff" result="bg"/><feBlend in="SourceGraphic" in2="bg"/></filter><mask id="mask" x="200" y="-8692" width="650" height="32766" maskUnits="userSpaceOnUse"><g class="cls-126"/></mask><radialGradient id="radial-gradient" cx="525" cy="525" r="325" gradientUnits="userSpaceOnUse"><stop offset="0.9" stop-color="#fff"/><stop offset="0.91" stop-color="#f6f6f6"/><stop offset="0.92" stop-color="#dedede"/><stop offset="0.94" stop-color="#b6b6b6"/><stop offset="0.96" stop-color="#7f7f7f"/><stop offset="0.98" stop-color="#393939"/><stop offset="1"/></radialGradient><filter id="luminosity-noclip-2" x="525" y="-8692" width="374.23" height="32766" filterUnits="userSpaceOnUse" color-interpolation-filters="sRGB"><feFlood flood-color="#fff" result="bg"/><feBlend in="SourceGraphic" in2="bg"/></filter><mask id="mask-2" x="525" y="-8692" width="374.23" height="32766" maskUnits="userSpaceOnUse"><g class="cls-125"/></mask><linearGradient id="linear-gradient" x1="525" y1="712.11" x2="899.23" y2="712.11" gradientUnits="userSpaceOnUse"><stop offset="0" stop-color="gray"/><stop offset="1" stop-color="gray"/></linearGradient><filter id="luminosity-noclip-3" x="525" y="-8692" width="1" height="32766" filterUnits="userSpaceOnUse" color-interpolation-filters="sRGB"><feFlood flood-color="#fff" result="bg"/><feBlend in="SourceGraphic" in2="bg"/></filter><mask id="mask-3" x="525" y="-8692" width="1" height="32766" maskUnits="userSpaceOnUse"><g class="cls-124"/></mask><linearGradient id="linear-gradient-2" x1="525" y1="287.89" x2="526" y2="287.89" xlink:href="#linear-gradient"/><filter id="luminosity-noclip-4" x="100.77" y="-8692" width="374.23" height="32766" filterUnits="userSpaceOnUse" color-interpolation-filters="sRGB"><feFlood flood-color="#fff" result="bg"/><feBlend in="SourceGraphic" in2="bg"/></filter><mask id="mask-4" x="100.77" y="-8692" width="374.23" height="32766" maskUnits="userSpaceOnUse"><g class="cls-123"/></mask><linearGradient id="linear-gradient-3" x1="100.77" y1="525.5" x2="475" y2="525.5" xlink:href="#linear-gradient"/><filter id="luminosity-noclip-5" x="400" y="-8692" width="250" height="32766" filterUnits="userSpaceOnUse" color-interpolation-filters="sRGB"><feFlood flood-color="#fff" result="bg"/><feBlend in="SourceGraphic" in2="bg"/></filter><mask id="mask-5" x="400" y="-8692" width="250" height="32766" maskUnits="userSpaceOnUse"><g class="cls-122"/></mask><radialGradient id="radial-gradient-2" cx="525" cy="525" r="125" gradientUnits="userSpaceOnUse"><stop offset="0.7" stop-color="#fff"/><stop offset="0.73" stop-color="#f6f6f6"/><stop offset="0.77" stop-color="#dedede"/><stop offset="0.82" stop-color="#b6b6b6"/><stop offset="0.88" stop-color="#7f7f7f"/><stop offset="0.95" stop-color="#393939"/><stop offset="1"/></radialGradient><filter id="luminosity-noclip-6" x="200" y="200" width="650" height="650" filterUnits="userSpaceOnUse" color-interpolation-filters="sRGB"><feFlood flood-color="#fff" result="bg"/><feBlend in="SourceGraphic" in2="bg"/></filter><mask id="mask-6" x="200" y="200" width="650" height="650" maskUnits="userSpaceOnUse"><g class="cls-1"><circle class="cls-2" cx="525" cy="525" r="325"/></g></mask><radialGradient id="radial-gradient-3" cx="525" cy="525" r="325" gradientUnits="userSpaceOnUse"><stop offset="0.9" stop-color="#8c8c8c"/><stop offset="0.92" stop-color="#959595"/><stop offset="0.94" stop-color="#adadad"/><stop offset="0.97" stop-color="#d5d5d5"/><stop offset="1" stop-color="#fff"/></radialGradient><clipPath id="clip-path"><circle class="cls-11" cx="500" cy="500" r="225"/></clipPath><radialGradient id="radial-gradient-4" cx="831" cy="499" r="846.12" gradientUnits="userSpaceOnUse"><stop offset="0" stop-color="#e6e6e6"/><stop offset="1" stop-color="#e6e6e6"/></radialGradient><radialGradient id="radial-gradient-5" cx="499" cy="495" r="404.04" gradientUnits="userSpaceOnUse"><stop offset="0" stop-color="#f8962f"/><stop offset="0.29" stop-color="#f6902d"/><stop offset="0.67" stop-color="#f08029"/><stop offset="1" stop-color="#e86c24"/></radialGradient><radialGradient id="radial-gradient-6" cx="712.11" cy="712.11" r="187.11" gradientUnits="userSpaceOnUse"><stop offset="0" stop-color="#26306f"/><stop offset="0.29" stop-color="#253275"/><stop offset="0.66" stop-color="#233885"/><stop offset="1" stop-color="#21409a"/></radialGradient><filter id="luminosity-noclip-7" x="525" y="525" width="374.23" height="374.23" filterUnits="userSpaceOnUse" color-interpolation-filters="sRGB"><feFlood flood-color="#fff" result="bg"/><feBlend in="SourceGraphic" in2="bg"/></filter><mask id="mask-7" x="525" y="525" width="374.23" height="374.23" maskUnits="userSpaceOnUse"><g class="cls-3"><path class="cls-4" d="M526,526H899.15c0-.33.06-.67.08-1H525V899.23l1-.08Z"/></g></mask><linearGradient id="linear-gradient-4" x1="525" y1="712.11" x2="899.23" y2="712.11" gradientUnits="userSpaceOnUse"><stop offset="0" stop-color="#fff"/><stop offset="1" stop-color="#fff"/></linearGradient><radialGradient id="radial-gradient-7" cx="499" cy="495" r="404.05" gradientUnits="userSpaceOnUse"><stop offset="0" stop-color="#f7d50c"/><stop offset="0.26" stop-color="#f6cf0e"/><stop offset="0.59" stop-color="#f4bf15"/><stop offset="0.96" stop-color="#f0a421"/><stop offset="1" stop-color="#f0a122"/></radialGradient><radialGradient id="radial-gradient-8" cx="499" cy="495" r="404.05" gradientUnits="userSpaceOnUse"><stop offset="0" stop-color="#3ec3db"/><stop offset="0.27" stop-color="#39bdd6"/><stop offset="0.62" stop-color="#2cadc7"/><stop offset="1" stop-color="#1793af"/></radialGradient><radialGradient id="radial-gradient-9" cx="1011" cy="1023" r="1647.56" xlink:href="#radial-gradient-4"/><filter id="luminosity-noclip-8" x="525" y="100.77" width="1" height="374.23" filterUnits="userSpaceOnUse" color-interpolation-filters="sRGB"><feFlood flood-color="#fff" result="bg"/><feBlend in="SourceGraphic" in2="bg"/></filter><mask id="mask-8" x="525" y="100.77" width="1" height="374.23" maskUnits="userSpaceOnUse"><g class="cls-5"><path class="cls-6" d="M525,100.77V475h1V100.85Z"/></g></mask><linearGradient id="linear-gradient-5" x1="525" y1="287.89" x2="526" y2="287.89" xlink:href="#linear-gradient-4"/><radialGradient id="radial-gradient-10" cx="1011" cy="1023" r="1647.57" xlink:href="#radial-gradient-4"/><radialGradient id="radial-gradient-11" cx="1011" cy="1023" r="1647.57" xlink:href="#radial-gradient-4"/><radialGradient id="radial-gradient-12" cx="1011" cy="1023" r="1647.57" xlink:href="#radial-gradient-4"/><filter id="luminosity-noclip-9" x="100.77" y="525" width="374.23" height="1" filterUnits="userSpaceOnUse" color-interpolation-filters="sRGB"><feFlood flood-color="#fff" result="bg"/><feBlend in="SourceGraphic" in2="bg"/></filter><mask id="mask-9" x="100.77" y="525" width="374.23" height="1" maskUnits="userSpaceOnUse"><g class="cls-7"><path class="cls-8" d="M100.77,525c0,.33,0,.67.08,1H475v-1Z"/></g></mask><linearGradient id="linear-gradient-6" x1="100.77" y1="525.5" x2="475" y2="525.5" xlink:href="#linear-gradient-4"/><filter id="luminosity-noclip-10" x="400" y="400" width="250" height="250" filterUnits="userSpaceOnUse" color-interpolation-filters="sRGB"><feFlood flood-color="#fff" result="bg"/><feBlend in="SourceGraphic" in2="bg"/></filter><mask id="mask-10" x="400" y="400" width="250" height="250" maskUnits="userSpaceOnUse"><g class="cls-9"><circle class="cls-10" cx="525" cy="525" r="125"/></g></mask><radialGradient id="radial-gradient-13" cx="525" cy="525" r="125" gradientUnits="userSpaceOnUse"><stop offset="0.7" stop-color="#8c8c8c"/><stop offset="0.75" stop-color="#959595"/><stop offset="0.82" stop-color="#adadad"/><stop offset="0.91" stop-color="#d5d5d5"/><stop offset="1" stop-color="#fff"/></radialGradient><radialGradient id="radial-gradient-14" cx="337" cy="501" r="300.54" xlink:href="#radial-gradient-4"/></defs><title>Artboard 2</title><g class="cls-12"><g id="Layer_1" data-name="Layer 1"><g class="cls-13"><circle class="cls-14" cx="525" cy="525" r="325"/></g><g class="cls-15"><rect class="cls-16" x="275" y="275" width="450" height="450"/><rect class="cls-16" x="274" y="274" width="452" height="452"/><rect class="cls-17" x="274" y="274" width="452" height="452"/><rect class="cls-18" x="274" y="274" width="452" height="452"/><rect class="cls-19" x="274" y="274" width="452" height="452"/><rect class="cls-20" x="274" y="274" width="452" height="452"/><rect class="cls-21" x="274" y="274" width="452" height="452"/><rect class="cls-22" x="274" y="274" width="452" height="452"/><rect class="cls-23" x="274" y="274" width="452" height="452"/><polygon class="cls-24" points="274 724.48 274 274 726 274 726 726 274 726 274 724.48"/><path class="cls-25" d="M274,693.37V274H726V708.86h4.36c-2.74,1.21-5.49,2.42-8.24,3.6q-8.26,3.56-16.59,6.9Q688.9,726.07,672,731.94V726H274Z"/><path class="cls-26" d="M274,662.27V274H726V673.51h1.51Q696.21,687.85,664,699.08a698.08,698.08,0,0,1-131.23,32V726H332.64v2.84q-16.53-2.8-33-6.51-8.21-1.85-16.39-3.93-4.08-1-8.16-2.13l-4.08-1.11H274Z"/><path class="cls-27" d="M274,631.16V274H726V634.86h5.28q-7.39,3.58-14.84,7-29.82,13.65-60.51,24.35c-81.76,28.49-167.45,40.94-252.22,35.65a597.48,597.48,0,0,1-125.87-21.42l-7.74-2.25H274Z"/><path class="cls-28" d="M274,600.05V274H726V600.11h.47c-2.33,1.16-4.66,2.32-7,3.45q-7,3.42-14.11,6.66-28.32,13-57.48,23.13c-77.67,27.07-159.08,38.9-239.61,33.88A567.41,567.41,0,0,1,288.7,646.87q-7.36-2.08-14.68-4.38l-3.66-1.16H274Z"/><path class="cls-29" d="M274,568.94V274H726V562.2h1.47c-2.18,1.16-4.38,2.3-6.57,3.44q-13.18,6.79-26.61,12.94-26.82,12.28-54.46,21.91c-73.58,25.65-150.7,36.85-227,32.1A537.31,537.31,0,0,1,299.56,613.3q-13.95-3.94-27.75-8.69H274Z"/><path class="cls-30" d="M274,537.83V274H726V524.74h.89c-2,1.14-4.09,2.28-6.15,3.4q-6.16,3.36-12.39,6.57-12.47,6.42-25.13,12.23-25.34,11.59-51.43,20.69c-69.5,24.22-142.33,34.8-214.39,30.31a507.1,507.1,0,0,1-107-18.21q-13.19-3.74-26.21-8.21-6.51-2.25-13-4.67H274Z"/><path class="cls-31" d="M274,506.73V274H726V484.37h4.45q-5.69,3.45-11.44,6.76a560.88,560.88,0,0,1-95.27,43.64c-65.41,22.79-134,32.75-201.78,28.53a477.85,477.85,0,0,1-100.69-17.14,469.92,469.92,0,0,1-49-16.87H274Z"/><path class="cls-32" d="M274,475.62V274H726V448.06h.33Q715.78,454.8,705,461a525.75,525.75,0,0,1-89.31,40.91c-61.33,21.37-125.59,30.71-189.17,26.75a447.66,447.66,0,0,1-94.4-16.08,440,440,0,0,1-46-15.81q-5.67-2.31-11.3-4.78c-1.88-.83-3.75-1.66-5.62-2.52H274Z"/><path class="cls-33" d="M274,444.51V274H726V405.73h4.35q-19.2,13.54-39.34,25.13a490.77,490.77,0,0,1-83.36,38.19C550.42,489,490.43,497.71,431.09,494A418.09,418.09,0,0,1,343,479a410.93,410.93,0,0,1-42.9-14.76q-10.59-4.31-21-9.24c-3.47-1.64-6.94-3.34-10.38-5.09H274Z"/><path class="cls-34" d="M275.29,413.4q-2.37-1.29-4.73-2.61H274V274H726v90.36h5.13q-8.67,6.75-17.59,13Q695.72,390,677,400.73a456.52,456.52,0,0,1-77.41,35.46C493.31,473.23,376.81,468.56,275.29,413.4Z"/><path class="cls-35" d="M292.19,382.29q-8.78-4.77-17.2-10l-4.18-2.62H274V274H726v50.19h2.75a430.17,430.17,0,0,1-137.19,79.14C493.44,437.52,385.9,433.21,292.19,382.29Z"/><path class="cls-36" d="M309.09,351.19a327.72,327.72,0,0,1-30.84-19.05q-3.69-2.56-7.28-5.23h3V274H726v4.88h4.11q-3.39,3.3-6.83,6.53-6.88,6.43-14,12.51a394.2,394.2,0,0,1-125.76,72.55C493.57,401.81,395,397.86,309.09,351.19Z"/><path class="cls-37" d="M326,320.08a295.13,295.13,0,0,1-53.56-37.29H274V274H689.79v-2.35a358.44,358.44,0,0,1-114.33,66C493.7,366.1,404.09,362.51,326,320.08Z"/><path class="cls-38" d="M342.89,289a266.59,266.59,0,0,1-25.23-15.58V274H633.8v-1.57q-6.33,4.05-12.79,7.77a316.26,316.26,0,0,1-53.59,24.55C493.83,330.39,413.18,327.16,342.89,289Z"/><path class="cls-39" d="M359.8,274H559.37v-2.11a258.19,258.19,0,0,1-100.89,14.26,238.88,238.88,0,0,1-50.34-8.57,235.09,235.09,0,0,1-24.52-8.43V274Z"/></g><g class="cls-40"><path class="cls-41" d="M300,525c0-124.26,100.74-225,225-225a224.09,224.09,0,0,1,146.1,53.9A224.49,224.49,0,0,0,500,275c-124.26,0-225,100.74-225,225a224.49,224.49,0,0,0,78.9,171.1A224.09,224.09,0,0,1,300,525Z"/><path class="cls-42" d="M299.23,524.23c0-124.27,100.73-225,225-225a224.07,224.07,0,0,1,146.5,54.26A224.44,224.44,0,0,0,500,275c-124.26,0-225,100.74-225,225a224.44,224.44,0,0,0,78.49,170.73A224.07,224.07,0,0,1,299.23,524.23Z"/><path class="cls-43" d="M298.45,523.45c0-124.26,100.74-225,225-225a223.93,223.93,0,0,1,146.9,54.64A224.35,224.35,0,0,0,500,275c-124.26,0-225,100.74-225,225a224.35,224.35,0,0,0,78.09,170.35A223.93,223.93,0,0,1,298.45,523.45Z"/><path class="cls-44" d="M297.68,522.68c0-124.27,100.73-225,225-225a223.93,223.93,0,0,1,147.3,55A224.32,224.32,0,0,0,500,275c-124.26,0-225,100.74-225,225a224.32,224.32,0,0,0,77.68,170A223.93,223.93,0,0,1,297.68,522.68Z"/><path class="cls-45" d="M296.9,521.9c0-124.26,100.74-225,225-225a223.79,223.79,0,0,1,147.7,55.38A224.23,224.23,0,0,0,500,275c-124.26,0-225,100.74-225,225a224.23,224.23,0,0,0,77.28,169.6A223.79,223.79,0,0,1,296.9,521.9Z"/><path class="cls-46" d="M296.13,521.13c0-124.27,100.73-225,225-225a223.78,223.78,0,0,1,148.1,55.74A224.19,224.19,0,0,0,500,275c-124.26,0-225,100.74-225,225a224.19,224.19,0,0,0,76.87,169.23A223.78,223.78,0,0,1,296.13,521.13Z"/><path class="cls-47" d="M295.35,520.35c0-124.26,100.74-225,225-225a223.72,223.72,0,0,1,148.5,56.12A224.11,224.11,0,0,0,500,275c-124.26,0-225,100.74-225,225a224.11,224.11,0,0,0,76.47,168.85A223.72,223.72,0,0,1,295.35,520.35Z"/><path class="cls-48" d="M294.58,519.58c0-124.26,100.74-225,225-225a223.68,223.68,0,0,1,148.9,56.48A224.08,224.08,0,0,0,500,275c-124.26,0-225,100.74-225,225a224.08,224.08,0,0,0,76.06,168.48A223.68,223.68,0,0,1,294.58,519.58Z"/><path class="cls-49" d="M293.81,518.81c0-124.27,100.73-225,225-225a223.71,223.71,0,0,1,149.3,56.84A224.07,224.07,0,0,0,500,275c-124.26,0-225,100.74-225,225a224.07,224.07,0,0,0,75.65,168.11A223.71,223.71,0,0,1,293.81,518.81Z"/><path class="cls-50" d="M293,518c0-124.26,100.74-225,225-225a223.6,223.6,0,0,1,149.7,57.22A224,224,0,0,0,500,275c-124.26,0-225,100.74-225,225a224,224,0,0,0,75.25,167.73A223.6,223.6,0,0,1,293,518Z"/><path class="cls-51" d="M292.26,517.26c0-124.27,100.73-225,225-225a223.63,223.63,0,0,1,150.1,57.58A224,224,0,0,0,500,275c-124.26,0-225,100.74-225,225a224,224,0,0,0,74.84,167.36A223.63,223.63,0,0,1,292.26,517.26Z"/><path class="cls-52" d="M291.48,516.48c0-124.26,100.74-225,225-225a223.55,223.55,0,0,1,150.5,58A223.92,223.92,0,0,0,500,275c-124.26,0-225,100.74-225,225a223.92,223.92,0,0,0,74.44,167A223.55,223.55,0,0,1,291.48,516.48Z"/><path class="cls-53" d="M290.71,515.71c0-124.26,100.74-225,225-225A223.58,223.58,0,0,1,666.61,349,223.93,223.93,0,0,0,500,275c-124.26,0-225,100.74-225,225a223.93,223.93,0,0,0,74,166.61A223.58,223.58,0,0,1,290.71,515.71Z"/><path class="cls-54" d="M289.94,514.94c0-124.27,100.73-225,225-225a223.54,223.54,0,0,1,151.29,58.69A223.86,223.86,0,0,0,500,275c-124.26,0-225,100.74-225,225a223.86,223.86,0,0,0,73.63,166.23A223.54,223.54,0,0,1,289.94,514.94Z"/><path class="cls-55" d="M289.16,514.16c0-124.26,100.74-225,225-225a223.55,223.55,0,0,1,151.7,59.06A223.89,223.89,0,0,0,500,275c-124.26,0-225,100.74-225,225a223.89,223.89,0,0,0,73.22,165.86A223.55,223.55,0,0,1,289.16,514.16Z"/><path class="cls-56" d="M288.39,513.39c0-124.27,100.73-225,225-225a223.57,223.57,0,0,1,152.1,59.43A223.88,223.88,0,0,0,500,275c-124.26,0-225,100.74-225,225a223.88,223.88,0,0,0,72.82,165.49A223.57,223.57,0,0,1,288.39,513.39Z"/><path class="cls-57" d="M287.61,512.61c0-124.26,100.74-225,225-225a223.56,223.56,0,0,1,152.5,59.8A223.87,223.87,0,0,0,500,275c-124.26,0-225,100.74-225,225a223.87,223.87,0,0,0,72.41,165.11A223.56,223.56,0,0,1,287.61,512.61Z"/><path class="cls-58" d="M286.84,511.84c0-124.27,100.73-225,225-225A223.59,223.59,0,0,1,664.74,347,223.87,223.87,0,0,0,500,275c-124.26,0-225,100.74-225,225a223.87,223.87,0,0,0,72,164.74A223.59,223.59,0,0,1,286.84,511.84Z"/><path class="cls-59" d="M286.06,511.06c0-124.26,100.74-225,225-225a223.63,223.63,0,0,1,153.3,60.54A223.85,223.85,0,0,0,500,275c-124.26,0-225,100.74-225,225a223.85,223.85,0,0,0,71.6,164.36A223.63,223.63,0,0,1,286.06,511.06Z"/><path class="cls-60" d="M285.29,510.29c0-124.26,100.74-225,225-225A223.64,223.64,0,0,1,664,346.19,223.88,223.88,0,0,0,500,275c-124.26,0-225,100.74-225,225a223.88,223.88,0,0,0,71.19,164A223.64,223.64,0,0,1,285.29,510.29Z"/><path class="cls-61" d="M284.52,509.52c0-124.27,100.73-225,225-225a223.63,223.63,0,0,1,154.09,61.27A223.84,223.84,0,0,0,500,275c-124.26,0-225,100.74-225,225a223.84,223.84,0,0,0,70.79,163.61A223.63,223.63,0,0,1,284.52,509.52Z"/><path class="cls-62" d="M283.74,508.74c0-124.26,100.74-225,225-225a223.68,223.68,0,0,1,154.5,61.64A223.89,223.89,0,0,0,500,275c-124.26,0-225,100.74-225,225a223.89,223.89,0,0,0,70.38,163.24A223.68,223.68,0,0,1,283.74,508.74Z"/><path class="cls-63" d="M283,508C283,383.7,383.7,283,508,283a223.69,223.69,0,0,1,154.89,62A223.85,223.85,0,0,0,500,275c-124.26,0-225,100.74-225,225a223.85,223.85,0,0,0,70,162.86A223.69,223.69,0,0,1,283,508Z"/><path class="cls-64" d="M282.19,507.19c0-124.26,100.74-225,225-225a223.8,223.8,0,0,1,155.3,62.38A223.91,223.91,0,0,0,500,275c-124.26,0-225,100.74-225,225a223.91,223.91,0,0,0,69.57,162.49A223.8,223.8,0,0,1,282.19,507.19Z"/><path class="cls-65" d="M281.42,506.42c0-124.26,100.74-225,225-225a223.82,223.82,0,0,1,155.7,62.75A223.94,223.94,0,0,0,500,275c-124.26,0-225,100.74-225,225a223.94,223.94,0,0,0,69.17,162.12A223.82,223.82,0,0,1,281.42,506.42Z"/><path class="cls-66" d="M280.65,505.65c0-124.27,100.73-225,225-225a223.86,223.86,0,0,1,156.09,63.11A224,224,0,0,0,500,275c-124.26,0-225,100.74-225,225a224,224,0,0,0,68.76,161.74A223.86,223.86,0,0,1,280.65,505.65Z"/><path class="cls-67" d="M279.87,504.87c0-124.26,100.74-225,225-225a223.89,223.89,0,0,1,156.5,63.49A224,224,0,0,0,500,275c-124.26,0-225,100.74-225,225a224,224,0,0,0,68.36,161.37A223.89,223.89,0,0,1,279.87,504.87Z"/><path class="cls-68" d="M279.1,504.1c0-124.27,100.73-225,225-225A224,224,0,0,1,661,343,224,224,0,0,0,500,275c-124.26,0-225,100.74-225,225A224,224,0,0,0,343,661,224,224,0,0,1,279.1,504.1Z"/><path class="cls-69" d="M278.32,503.32c0-124.26,100.74-225,225-225a224.08,224.08,0,0,1,157.3,64.22A224.13,224.13,0,0,0,500,275c-124.26,0-225,100.74-225,225a224.13,224.13,0,0,0,67.54,160.62A224.08,224.08,0,0,1,278.32,503.32Z"/><path class="cls-70" d="M277.55,502.55c0-124.27,100.73-225,225-225a224.08,224.08,0,0,1,157.69,64.59A224.15,224.15,0,0,0,500,275c-124.26,0-225,100.74-225,225a224.15,224.15,0,0,0,67.14,160.24A224.08,224.08,0,0,1,277.55,502.55Z"/><path class="cls-71" d="M276.77,501.77c0-124.26,100.74-225,225-225a224.2,224.2,0,0,1,158.1,65A224.24,224.24,0,0,0,500,275c-124.26,0-225,100.74-225,225a224.24,224.24,0,0,0,66.73,159.87A224.2,224.2,0,0,1,276.77,501.77Z"/><path class="cls-72" d="M276,501c0-124.26,100.74-225,225-225a224.25,224.25,0,0,1,158.5,65.33A224.29,224.29,0,0,0,500,275c-124.26,0-225,100.74-225,225a224.29,224.29,0,0,0,66.33,159.5A224.25,224.25,0,0,1,276,501Z"/></g><path class="cls-73" d="M500,175c-179.49,0-325,145.51-325,325S320.51,825,500,825,825,679.49,825,500,679.49,175,500,175Zm0,550c-124.26,0-225-100.74-225-225S375.74,275,500,275,725,375.74,725,500,624.26,725,500,725Z"/><path class="cls-41" d="M501,726c124.26,0,225-100.74,225-225a224.28,224.28,0,0,0-66.41-159.59A224.23,224.23,0,0,1,725,500c0,124.26-100.74,225-225,225a224.23,224.23,0,0,1-158.59-65.41A224.28,224.28,0,0,0,501,726Z"/><path class="cls-41" d="M176,501c0-179.49,145.51-325,325-325a324,324,0,0,1,229.3,94.7A324,324,0,0,0,500,175c-179.49,0-325,145.51-325,325a324,324,0,0,0,95.7,230.3A324,324,0,0,1,176,501Z"/><g class="cls-40"><path class="cls-41" d="M974.31,500A449.62,449.62,0,0,0,550,75.69V500H974.31Z"/><path class="cls-42" d="M551,76.75A448.53,448.53,0,0,1,973.25,499H551V76.75Z"/><path class="cls-43" d="M551.94,77.81A447.4,447.4,0,0,1,972.19,498.06H551.94V77.81Z"/><path class="cls-44" d="M552.9,78.87A446.31,446.31,0,0,1,971.13,497.1H552.9V78.87Z"/><path class="cls-45" d="M553.87,79.93a445.21,445.21,0,0,1,416.2,416.2H553.87V79.93Z"/><path class="cls-46" d="M554.84,81A444.09,444.09,0,0,1,969,495.16H554.84V81Z"/><path class="cls-47" d="M555.81,82.06A443,443,0,0,1,967.94,494.19H555.81V82.06Z"/><path class="cls-48" d="M556.77,83.12A442,442,0,0,1,966.88,493.23H556.77V83.12Z"/><path class="cls-49" d="M557.74,84.18A440.87,440.87,0,0,1,965.82,492.26H557.74V84.18Z"/><path class="cls-50" d="M558.71,85.24a439.84,439.84,0,0,1,406,406.05h-406v-406Z"/><path class="cls-51" d="M559.68,86.3a438.8,438.8,0,0,1,404,404h-404V86.3Z"/><path class="cls-52" d="M560.65,87.36a435,435,0,0,1,150.19,39.48A440,440,0,0,1,923.16,339.16a435,435,0,0,1,39.48,150.19h-402v-402Z"/><path class="cls-53" d="M561.61,88.42a436.74,436.74,0,0,1,400,400h-400v-400Z"/><path class="cls-54" d="M562.58,89.48A432.76,432.76,0,0,1,710.81,129,438,438,0,0,1,921,339.19a432.76,432.76,0,0,1,39.49,148.23H562.58V89.48Z"/><path class="cls-55" d="M563.55,90.54A434.75,434.75,0,0,1,959.46,486.45H563.55V90.54Z"/><path class="cls-56" d="M564.52,91.61A433.73,433.73,0,0,1,958.39,485.48H564.52V91.61Z"/><path class="cls-57" d="M565.48,92.67A432.79,432.79,0,0,1,957.33,484.52H565.48V92.67Z"/><path class="cls-58" d="M566.45,93.73A431.81,431.81,0,0,1,956.27,483.55H566.45V93.73Z"/><path class="cls-59" d="M567.42,94.79A427.94,427.94,0,0,1,710.75,134.3a433.07,433.07,0,0,1,205,205,427.94,427.94,0,0,1,39.51,143.33H567.42V94.79Z"/><path class="cls-60" d="M568.39,95.85A429.94,429.94,0,0,1,954.15,481.61H568.39V95.85Z"/><path class="cls-61" d="M569.35,96.91a426,426,0,0,1,141.37,39.52A431.17,431.17,0,0,1,913.57,339.28a426,426,0,0,1,39.52,141.37H569.35V96.91Z"/><path class="cls-62" d="M570.32,98A428.1,428.1,0,0,1,952,479.68H570.32V98Z"/><path class="cls-63" d="M571.29,99A427.25,427.25,0,0,1,951,478.71H571.29V99Z"/><path class="cls-64" d="M572.26,100.09A426.34,426.34,0,0,1,949.91,477.74H572.26V100.09Z"/><path class="cls-65" d="M573.23,101.15A425.5,425.5,0,0,1,948.85,476.77H573.23V101.15Z"/><path class="cls-66" d="M574.19,102.22A424.58,424.58,0,0,1,947.78,475.81H574.19V102.22Z"/><path class="cls-67" d="M575.16,103.28A423.77,423.77,0,0,1,946.72,474.84H575.16V103.28Z"/><path class="cls-68" d="M576.13,104.34A422.92,422.92,0,0,1,945.66,473.87H576.13V104.34Z"/><path class="cls-69" d="M577.1,105.4A422.17,422.17,0,0,1,944.6,472.9H577.1V105.4Z"/><path class="cls-70" d="M578.06,106.46A421.35,421.35,0,0,1,943.54,471.94H578.06V106.46Z"/><path class="cls-71" d="M579,107.52A420.61,420.61,0,0,1,942.48,471H579V107.52Z"/><path class="cls-72" d="M580,470V108.58A419.86,419.86,0,0,1,941.42,470H580Z"/></g><g class="cls-40"><path class="cls-41" d="M500,75.69A449.62,449.62,0,0,0,75.69,500H500V75.69Z"/><path class="cls-42" d="M207.49,207.49A447.49,447.49,0,0,1,499,76.75V499H76.75A447.49,447.49,0,0,1,207.49,207.49Z"/><path class="cls-43" d="M208.18,208.18A446.21,446.21,0,0,1,498.06,77.81V498.06H77.81A446.21,446.21,0,0,1,208.18,208.18Z"/><path class="cls-44" d="M208.86,208.86a445.18,445.18,0,0,1,288.24-130V497.1H78.87a445.18,445.18,0,0,1,130-288.24Z"/><path class="cls-45" d="M209.54,209.54A444.09,444.09,0,0,1,496.13,79.93v416.2H79.93A444.09,444.09,0,0,1,209.54,209.54Z"/><path class="cls-46" d="M210.23,210.23A442.9,442.9,0,0,1,495.16,81V495.16H81A442.9,442.9,0,0,1,210.23,210.23Z"/><path class="cls-47" d="M210.91,210.91A441.77,441.77,0,0,1,494.19,82.06V494.19H82.06A441.77,441.77,0,0,1,210.91,210.91Z"/><path class="cls-48" d="M211.6,211.6A440.74,440.74,0,0,1,493.23,83.12V493.23H83.12A440.74,440.74,0,0,1,211.6,211.6Z"/><path class="cls-49" d="M212.28,212.28a439.63,439.63,0,0,1,280-128.1V492.26H84.18a439.63,439.63,0,0,1,128.1-280Z"/><path class="cls-50" d="M213,213A438.56,438.56,0,0,1,491.29,85.24V491.29h-406A438.56,438.56,0,0,1,213,213Z"/><path class="cls-51" d="M213.65,213.65A437.54,437.54,0,0,1,490.32,86.3v404H86.3A437.54,437.54,0,0,1,213.65,213.65Z"/><path class="cls-52" d="M214.33,214.33a439.38,439.38,0,0,1,124.83-87.49,435,435,0,0,1,150.2-39.48v402h-402a435,435,0,0,1,39.48-150.19A439.38,439.38,0,0,1,214.33,214.33Z"/><path class="cls-53" d="M215,215A435.43,435.43,0,0,1,488.39,88.42v400h-400A435.43,435.43,0,0,1,215,215Z"/><path class="cls-54" d="M215.7,215.7A437.28,437.28,0,0,1,339.19,129,432.76,432.76,0,0,1,487.42,89.48V487.42H89.48A432.76,432.76,0,0,1,129,339.19,437.28,437.28,0,0,1,215.7,215.7Z"/><path class="cls-55" d="M216.39,216.39A433.44,433.44,0,0,1,486.45,90.54V486.45H90.54A433.44,433.44,0,0,1,216.39,216.39Z"/><path class="cls-56" d="M217.07,217.07A432.48,432.48,0,0,1,485.48,91.61V485.48H91.61A432.48,432.48,0,0,1,217.07,217.07Z"/><path class="cls-57" d="M217.76,217.76A431.56,431.56,0,0,1,484.52,92.67V484.52H92.67A431.56,431.56,0,0,1,217.76,217.76Z"/><path class="cls-58" d="M218.44,218.44A430.57,430.57,0,0,1,483.55,93.73V483.55H93.73A430.57,430.57,0,0,1,218.44,218.44Z"/><path class="cls-59" d="M219.12,219.12A432.27,432.27,0,0,1,339.25,134.3,427.94,427.94,0,0,1,482.58,94.79V482.58H94.79A427.94,427.94,0,0,1,134.3,339.25,432.27,432.27,0,0,1,219.12,219.12Z"/><path class="cls-60" d="M219.81,219.81a428.72,428.72,0,0,1,261.8-124V481.61H95.85a428.65,428.65,0,0,1,124-261.8Z"/><path class="cls-61" d="M220.49,220.49a430.3,430.3,0,0,1,118.79-84.06A426,426,0,0,1,480.65,96.91V480.65H96.91a426,426,0,0,1,39.52-141.37A430.3,430.3,0,0,1,220.49,220.49Z"/><path class="cls-62" d="M221.18,221.18A426.86,426.86,0,0,1,479.68,98V479.68H98a426.86,426.86,0,0,1,123.21-258.5Z"/><path class="cls-63" d="M221.86,221.86A426.17,426.17,0,0,1,478.71,99V478.71H99A426.1,426.1,0,0,1,221.86,221.86Z"/><path class="cls-64" d="M222.55,222.55A425.15,425.15,0,0,1,477.74,100.09V477.74H100.09A425.15,425.15,0,0,1,222.55,222.55Z"/><path class="cls-65" d="M223.23,223.23A424.42,424.42,0,0,1,476.77,101.15V476.77H101.15A424.42,424.42,0,0,1,223.23,223.23Z"/><path class="cls-66" d="M223.91,223.91a423.54,423.54,0,0,1,251.9-121.69V475.81H102.22a423.46,423.46,0,0,1,121.69-251.9Z"/><path class="cls-67" d="M224.6,224.6A422.72,422.72,0,0,1,474.84,103.28V474.84H103.28A422.72,422.72,0,0,1,224.6,224.6Z"/><path class="cls-68" d="M225.28,225.28A421.9,421.9,0,0,1,473.87,104.34V473.87H104.34A421.9,421.9,0,0,1,225.28,225.28Z"/><path class="cls-69" d="M226,226A421.2,421.2,0,0,1,472.9,105.4V472.9H105.4A421.12,421.12,0,0,1,226,226Z"/><path class="cls-70" d="M226.65,226.65A420.41,420.41,0,0,1,471.94,106.46V471.94H106.46A420.41,420.41,0,0,1,226.65,226.65Z"/><path class="cls-71" d="M227.34,227.34A419.67,419.67,0,0,1,471,107.52V471H107.52A419.67,419.67,0,0,1,227.34,227.34Z"/><path class="cls-72" d="M108.58,470A419.86,419.86,0,0,1,470,108.58V470H108.58Z"/></g><g class="cls-40"><path class="cls-41" d="M550,974.31A449.62,449.62,0,0,0,974.31,550H550V974.31Z"/><path class="cls-42" d="M551,551H973.25A448.53,448.53,0,0,1,551,973.25V551Z"/><path class="cls-43" d="M551.94,551.94H972.19A447.4,447.4,0,0,1,551.94,972.19V551.94Z"/><path class="cls-44" d="M552.9,552.9H971.13A446.31,446.31,0,0,1,552.9,971.13V552.9Z"/><path class="cls-45" d="M553.87,553.87h416.2a445.21,445.21,0,0,1-416.2,416.2V553.87Z"/><path class="cls-46" d="M554.84,554.84H969A444.09,444.09,0,0,1,554.84,969V554.84Z"/><path class="cls-47" d="M555.81,555.81H967.94A443,443,0,0,1,555.81,967.94V555.81Z"/><path class="cls-48" d="M556.77,556.77H966.88A442,442,0,0,1,556.77,966.88V556.77Z"/><path class="cls-49" d="M557.74,557.74H965.82A440.87,440.87,0,0,1,557.74,965.82V557.74Z"/><path class="cls-50" d="M558.71,558.71h406a439.84,439.84,0,0,1-406,406v-406Z"/><path class="cls-51" d="M559.68,559.68h404a438.8,438.8,0,0,1-404,404v-404Z"/><path class="cls-52" d="M560.65,560.65h402a435,435,0,0,1-39.48,150.19A440,440,0,0,1,710.84,923.16a435,435,0,0,1-150.19,39.48v-402Z"/><path class="cls-53" d="M561.61,561.61h400a436.74,436.74,0,0,1-400,400v-400Z"/><path class="cls-54" d="M562.58,562.58H960.52A432.76,432.76,0,0,1,921,710.81,438,438,0,0,1,710.81,921a432.76,432.76,0,0,1-148.23,39.49V562.58Z"/><path class="cls-55" d="M563.55,563.55H959.46A434.75,434.75,0,0,1,563.55,959.46V563.55Z"/><path class="cls-56" d="M564.52,564.52H958.39A433.73,433.73,0,0,1,564.52,958.39V564.52Z"/><path class="cls-57" d="M565.48,565.48H957.33A432.79,432.79,0,0,1,565.48,957.33V565.48Z"/><path class="cls-58" d="M566.45,566.45H956.27A431.81,431.81,0,0,1,566.45,956.27V566.45Z"/><path class="cls-59" d="M567.42,567.42H955.21A427.94,427.94,0,0,1,915.7,710.75a433.07,433.07,0,0,1-205,205,427.94,427.94,0,0,1-143.33,39.51V567.42Z"/><path class="cls-60" d="M568.39,568.39H954.15A429.94,429.94,0,0,1,568.39,954.15V568.39Z"/><path class="cls-61" d="M569.35,569.35H953.09a426,426,0,0,1-39.52,141.37A431.17,431.17,0,0,1,710.72,913.57a426,426,0,0,1-141.37,39.52V569.35Z"/><path class="cls-62" d="M570.32,570.32H952A428.1,428.1,0,0,1,570.32,952V570.32Z"/><path class="cls-63" d="M571.29,571.29H951A427.25,427.25,0,0,1,571.29,951V571.29Z"/><path class="cls-64" d="M572.26,572.26H949.91A426.34,426.34,0,0,1,572.26,949.91V572.26Z"/><path class="cls-65" d="M573.23,573.23H948.85A425.46,425.46,0,0,1,573.23,948.84V573.23Z"/><path class="cls-66" d="M574.19,574.19H947.78A424.58,424.58,0,0,1,574.19,947.78V574.19Z"/><path class="cls-67" d="M575.16,575.16H946.72A423.77,423.77,0,0,1,575.16,946.72V575.16Z"/><path class="cls-68" d="M576.13,576.13H945.66A422.92,422.92,0,0,1,576.13,945.66V576.13Z"/><path class="cls-69" d="M577.1,577.1H944.6A422.17,422.17,0,0,1,577.1,944.6V577.1Z"/><path class="cls-70" d="M578.06,578.06H943.54A421.35,421.35,0,0,1,578.06,943.54V578.06Z"/><path class="cls-71" d="M579,579H942.48A420.61,420.61,0,0,1,579,942.48V579Z"/><path class="cls-72" d="M580,580H941.42A419.83,419.83,0,0,1,580,941.42V580Z"/></g><g class="cls-40"><path class="cls-41" d="M75.69,550A449.62,449.62,0,0,0,500,974.31V550H75.69Z"/><path class="cls-42" d="M76.75,551H499V973.25A448.53,448.53,0,0,1,76.75,551Z"/><path class="cls-43" d="M77.81,551.94H498.06V972.19A447.4,447.4,0,0,1,77.81,551.94Z"/><path class="cls-44" d="M78.87,552.9H497.1V971.13A446.31,446.31,0,0,1,78.87,552.9Z"/><path class="cls-45" d="M79.93,553.87h416.2v416.2a445.21,445.21,0,0,1-416.2-416.2Z"/><path class="cls-46" d="M81,554.84H495.16V969A444.09,444.09,0,0,1,81,554.84Z"/><path class="cls-47" d="M82.06,555.81H494.19V967.94A443,443,0,0,1,82.06,555.81Z"/><path class="cls-48" d="M83.12,556.77H493.23V966.88A442,442,0,0,1,83.12,556.77Z"/><path class="cls-49" d="M84.18,557.74H492.26V965.82A440.87,440.87,0,0,1,84.18,557.74Z"/><path class="cls-50" d="M85.24,558.71H491.29v406a439.84,439.84,0,0,1-406-406Z"/><path class="cls-51" d="M86.3,559.68h404v404a438.8,438.8,0,0,1-404-404Z"/><path class="cls-52" d="M87.36,560.65h402v402a435,435,0,0,1-150.2-39.48A440,440,0,0,1,126.84,710.84,435,435,0,0,1,87.36,560.65Z"/><path class="cls-53" d="M88.42,561.61h400v400a436.74,436.74,0,0,1-400-400Z"/><path class="cls-54" d="M89.48,562.58H487.42V960.52A432.76,432.76,0,0,1,339.19,921,438,438,0,0,1,129,710.81,432.76,432.76,0,0,1,89.48,562.58Z"/><path class="cls-55" d="M90.54,563.55H486.45V959.46A434.75,434.75,0,0,1,90.54,563.55Z"/><path class="cls-56" d="M91.61,564.52H485.48V958.39A433.73,433.73,0,0,1,91.61,564.52Z"/><path class="cls-57" d="M92.67,565.48H484.52V957.33A432.79,432.79,0,0,1,92.67,565.48Z"/><path class="cls-58" d="M93.73,566.45H483.55V956.27A431.81,431.81,0,0,1,93.73,566.45Z"/><path class="cls-59" d="M94.79,567.42H482.58V955.21A427.94,427.94,0,0,1,339.25,915.7a433.07,433.07,0,0,1-204.95-205A427.94,427.94,0,0,1,94.79,567.42Z"/><path class="cls-60" d="M95.85,568.39H481.61V954.15a428.72,428.72,0,0,1-261.8-124,428.65,428.65,0,0,1-124-261.8Z"/><path class="cls-61" d="M96.91,569.35H480.65V953.09a426,426,0,0,1-141.37-39.52A431.17,431.17,0,0,1,136.43,710.72,426,426,0,0,1,96.91,569.35Z"/><path class="cls-62" d="M98,570.32H479.68V952A428.1,428.1,0,0,1,98,570.32Z"/><path class="cls-63" d="M99,571.29H478.71V951A427.23,427.23,0,0,1,99,571.29Z"/><path class="cls-64" d="M100.09,572.26H477.74V949.91A426.34,426.34,0,0,1,100.09,572.26Z"/><path class="cls-65" d="M101.15,573.23H476.77V948.85A425.5,425.5,0,0,1,101.15,573.23Z"/><path class="cls-66" d="M102.22,574.19H475.81V947.78A424.56,424.56,0,0,1,102.22,574.19Z"/><path class="cls-67" d="M103.28,575.16H474.84V946.72A423.77,423.77,0,0,1,103.28,575.16Z"/><path class="cls-68" d="M104.34,576.13H473.87V945.66A422.92,422.92,0,0,1,104.34,576.13Z"/><path class="cls-69" d="M105.4,577.1H472.9V944.6A422.14,422.14,0,0,1,105.4,577.1Z"/><path class="cls-70" d="M106.46,578.06H471.94V943.54A421.35,421.35,0,0,1,106.46,578.06Z"/><path class="cls-71" d="M107.52,579H471V942.48A420.61,420.61,0,0,1,107.52,579Z"/><path class="cls-72" d="M470,941.42A419.83,419.83,0,0,1,108.58,580H470V941.42Z"/></g><path class="cls-74" d="M525,100.77V475H899.23C886.83,274,726,113.17,525,100.77Z"/><path class="cls-75" d="M525,899.23C726,886.83,886.83,726,899.23,525H525Z"/><g class="cls-76"><path class="cls-77" d="M526,526H899.15c0-.33.06-.67.08-1H525V899.23l1-.08Z"/></g><path class="cls-78" d="M475,100.77C274,113.17,113.17,274,100.77,475H475Z"/><path class="cls-79" d="M100.77,525C113.17,726,274,886.83,475,899.23V525Z"/><g class="cls-40"><path class="cls-41" d="M242.16,242.16C305.79,178.52,387.09,139,475,128.08V100.76c-97.44,6-188.22,46.77-257.84,116.4S106.73,377.56,100.76,475h27.32C139,387.09,178.52,305.79,242.16,242.16Z"/><path class="cls-80" d="M241.38,241.38C305.2,177.56,386.8,138,475,127.23V100.76c-97.44,6-188.22,46.77-257.84,116.4S106.73,377.56,100.76,475h26.47C138,386.8,177.56,305.2,241.38,241.38Z"/><path class="cls-81" d="M240.61,240.61C304.62,176.6,386.5,137,475,126.38V100.76c-97.44,6-188.22,46.77-257.84,116.4S106.73,377.56,100.76,475h25.62C137,386.5,176.6,304.62,240.61,240.61Z"/><path class="cls-82" d="M239.83,239.83C304,175.64,386.21,136,475,125.54V100.76c-97.44,6-188.22,46.77-257.84,116.4S106.73,377.56,100.76,475h24.78C136,386.21,175.64,304,239.83,239.83Z"/><path class="cls-83" d="M239.06,239.06C303.44,174.68,385.91,135,475,124.69V100.76c-97.44,6-188.22,46.77-257.84,116.4S106.73,377.56,100.76,475h23.93C135,385.91,174.68,303.44,239.06,239.06Z"/><path class="cls-84" d="M238.29,238.29C302.85,173.72,385.62,134,475,123.84V100.76c-97.44,6-188.22,46.77-257.84,116.4S106.73,377.56,100.76,475h23.08C134,385.62,173.72,302.85,238.29,238.29Z"/><path class="cls-85" d="M237.51,237.51C302.26,172.76,385.32,133,475,123V100.76c-97.44,6-188.22,46.77-257.84,116.4S106.73,377.56,100.76,475H123C133,385.32,172.76,302.26,237.51,237.51Z"/><path class="cls-86" d="M236.74,236.74C301.67,171.8,385,132,475,122.15V100.76c-97.44,6-188.22,46.77-257.84,116.4S106.73,377.56,100.76,475h21.39C132,385,171.8,301.67,236.74,236.74Z"/><path class="cls-87" d="M236,236c65.12-65.12,148.77-105,239-114.66V100.76c-97.44,6-188.22,46.77-257.84,116.4S106.73,377.56,100.76,475H121.3C131,384.73,170.84,301.08,236,236Z"/><path class="cls-88" d="M235.19,235.19C300.5,169.88,384.44,130,475,120.46v-19.7c-97.44,6-188.22,46.77-257.84,116.4S106.73,377.56,100.76,475h19.7C130,384.44,169.88,300.49,235.19,235.19Z"/><path class="cls-89" d="M234.42,234.42C299.91,168.92,384.14,129,475,119.61V100.76c-97.44,6-188.22,46.77-257.84,116.4S106.73,377.56,100.76,475h18.85C129,384.14,168.92,299.91,234.42,234.42Z"/><path class="cls-90" d="M233.64,233.64C299.32,168,383.85,128,475,118.76v-18c-97.44,6-188.22,46.77-257.84,116.4S106.73,377.56,100.76,475h18C128,383.85,168,299.32,233.64,233.64Z"/><path class="cls-91" d="M232.87,232.87C298.73,167,383.55,127,475,117.92V100.76c-97.44,6-188.22,46.77-257.84,116.4S106.73,377.56,100.76,475h17.16C127,383.55,167,298.73,232.87,232.87Z"/><path class="cls-92" d="M232.09,232.09C298.14,166,383.25,126,475,117.07V100.76c-97.44,6-188.22,46.77-257.84,116.4S106.73,377.56,100.76,475h16.31C126,383.25,166,298.14,232.09,232.09Z"/><path class="cls-93" d="M231.32,231.32C297.55,165.08,383,125,475,116.22V100.76c-97.44,6-188.22,46.77-257.84,116.4S106.73,377.56,100.76,475h15.46C125,383,165.08,297.55,231.32,231.32Z"/><path class="cls-94" d="M230.54,230.54C297,164.12,382.66,124,475,115.38V100.76c-97.44,6-188.22,46.77-257.84,116.4S106.73,377.56,100.76,475h14.62C124,382.66,164.12,297,230.54,230.54Z"/><path class="cls-95" d="M229.77,229.77C296.38,163.16,382.37,123,475,114.53V100.76c-97.44,6-188.22,46.77-257.84,116.4S106.73,377.56,100.76,475h13.77C123,382.37,163.16,296.37,229.77,229.77Z"/><path class="cls-96" d="M229,229c66.79-66.8,153.07-107,246-115.32V100.76c-97.44,6-188.22,46.77-257.84,116.4S106.73,377.56,100.76,475h12.92C122,382.07,162.21,295.79,229,229Z"/><path class="cls-97" d="M228.22,228.22c67-67,153.56-107.22,246.78-115.38V100.76c-97.44,6-188.22,46.77-257.84,116.4S106.73,377.56,100.76,475h12.08C121,381.78,161.25,295.2,228.22,228.22Z"/><path class="cls-98" d="M227.45,227.45C294.61,160.29,381.48,120,475,112V100.76c-97.44,6-188.22,46.77-257.84,116.4S106.73,377.56,100.76,475H112C120,381.48,160.29,294.61,227.45,227.45Z"/><path class="cls-99" d="M226.67,226.67C294,159.33,381.19,119,475,111.14V100.76c-97.44,6-188.22,46.77-257.84,116.4S106.73,377.56,100.76,475h10.38C119,381.19,159.33,294,226.67,226.67Z"/><path class="cls-100" d="M225.9,225.9c67.53-67.53,155-107.9,249.1-115.6v-9.54c-97.44,6-188.22,46.77-257.84,116.4S106.73,377.56,100.76,475h9.54C118,380.89,158.37,293.43,225.9,225.9Z"/><path class="cls-101" d="M225.12,225.12C292.84,157.41,380.6,117,475,109.45v-8.69c-97.44,6-188.22,46.77-257.84,116.4S106.73,377.56,100.76,475h8.69C117,380.6,157.41,292.84,225.12,225.12Z"/><path class="cls-102" d="M224.35,224.35C292.25,156.45,380.3,116,475,108.6v-7.84c-97.44,6-188.22,46.77-257.84,116.4S106.73,377.56,100.76,475h7.84C116,380.3,156.45,292.25,224.35,224.35Z"/><path class="cls-103" d="M223.58,223.58C291.67,155.49,380,115,475,107.76v-7c-97.44,6-188.22,46.77-257.84,116.4S106.73,377.56,100.76,475h7C115,380,155.49,291.67,223.58,223.58Z"/><path class="cls-104" d="M222.8,222.8C291.08,154.53,379.71,114,475,106.91v-6.15c-97.44,6-188.22,46.77-257.84,116.4S106.73,377.56,100.76,475h6.15C114,379.71,154.53,291.08,222.8,222.8Z"/><path class="cls-105" d="M222,222c68.46-68.46,157.39-109,253-116v-5.3c-97.44,6-188.22,46.77-257.84,116.4S106.73,377.56,100.76,475h5.3C113,379.42,153.57,290.49,222,222Z"/><path class="cls-106" d="M221.25,221.25C289.9,152.61,379.12,112,475,105.22v-4.46c-97.44,6-188.22,46.77-257.84,116.4S106.73,377.56,100.76,475h4.46C112,379.12,152.61,289.9,221.25,221.25Z"/><path class="cls-107" d="M220.48,220.48C289.31,151.65,378.83,111,475,104.37v-3.61c-97.44,6-188.22,46.77-257.84,116.4S106.73,377.56,100.76,475h3.61C111,378.83,151.65,289.31,220.48,220.48Z"/><path class="cls-108" d="M219.71,219.71c69-69,158.82-109.7,255.29-116.19v-2.76c-97.44,6-188.22,46.77-257.84,116.4S106.73,377.56,100.76,475h2.76C110,378.53,150.69,288.72,219.71,219.71Z"/><path class="cls-109" d="M218.93,218.93C288.13,149.73,378.24,109,475,102.68v-1.92c-97.44,6-188.22,46.77-257.84,116.4S106.73,377.56,100.76,475h1.92C109,378.24,149.73,288.13,218.93,218.93Z"/><path class="cls-110" d="M218.16,218.16C287.55,148.77,377.94,108,475,101.83v-1.07c-97.44,6-188.22,46.77-257.84,116.4S106.73,377.56,100.76,475h1.07C108,377.94,148.77,287.55,218.16,218.16Z"/></g><g class="cls-40"><path class="cls-41" d="M217.16,782.84q6.27,6.27,12.77,12.23C162.13,721.15,125,625.93,125,525H100.76C106.73,622.44,147.53,713.22,217.16,782.84Z"/><path class="cls-80" d="M217.16,782.84q6.08,6.07,12.37,11.84C161.68,720.9,124.43,625.82,124.25,525H100.76C106.73,622.44,147.53,713.22,217.16,782.84Z"/><path class="cls-81" d="M217.16,782.84q5.88,5.88,12,11.46C161.23,720.65,123.87,625.71,123.5,525H100.76C106.73,622.44,147.53,713.22,217.16,782.84Z"/><path class="cls-82" d="M217.16,782.84q5.68,5.68,11.57,11.08A397,397,0,0,1,122.75,525h-22C106.73,622.44,147.53,713.22,217.16,782.84Z"/><path class="cls-83" d="M217.16,782.84q5.47,5.49,11.17,10.69A397,397,0,0,1,122,525H100.76C106.73,622.44,147.53,713.22,217.16,782.84Z"/><path class="cls-84" d="M217.16,782.84q5.28,5.29,10.77,10.31A397,397,0,0,1,121.24,525H100.76C106.73,622.44,147.53,713.22,217.16,782.84Z"/><path class="cls-85" d="M217.16,782.84q5.09,5.1,10.37,9.93A397,397,0,0,1,120.49,525H100.76C106.73,622.44,147.53,713.22,217.16,782.84Z"/><path class="cls-86" d="M217.16,782.84c3.26,3.27,6.59,6.44,10,9.55A396.89,396.89,0,0,1,119.74,525h-19C106.73,622.44,147.53,713.22,217.16,782.84Z"/><path class="cls-87" d="M217.16,782.84q4.69,4.71,9.57,9.16A396.88,396.88,0,0,1,119,525H100.76C106.73,622.44,147.53,713.22,217.16,782.84Z"/><path class="cls-88" d="M217.16,782.84q4.5,4.5,9.17,8.78A396.82,396.82,0,0,1,118.24,525H100.76C106.73,622.44,147.53,713.22,217.16,782.84Z"/><path class="cls-89" d="M217.16,782.84q4.31,4.3,8.77,8.4A396.86,396.86,0,0,1,117.49,525H100.76C106.73,622.44,147.53,713.22,217.16,782.84Z"/><path class="cls-90" d="M217.16,782.84q4.11,4.11,8.36,8A396.86,396.86,0,0,1,116.73,525h-16C106.73,622.44,147.53,713.22,217.16,782.84Z"/><path class="cls-91" d="M217.16,782.84q3.92,3.92,8,7.63A396.85,396.85,0,0,1,116,525H100.76C106.73,622.44,147.53,713.22,217.16,782.84Z"/><path class="cls-92" d="M217.16,782.84c2.47,2.48,5,4.89,7.56,7.25A396.9,396.9,0,0,1,115.23,525H100.76C106.73,622.44,147.53,713.22,217.16,782.84Z"/><path class="cls-93" d="M217.16,782.84c2.34,2.35,4.74,4.63,7.16,6.86A396.81,396.81,0,0,1,114.48,525H100.76C106.73,622.44,147.53,713.22,217.16,782.84Z"/><path class="cls-94" d="M217.16,782.84c2.21,2.22,4.47,4.37,6.76,6.48A396.81,396.81,0,0,1,113.73,525h-13C106.73,622.44,147.53,713.22,217.16,782.84Z"/><path class="cls-95" d="M217.16,782.84c2.08,2.09,4.21,4.11,6.36,6.1A396.82,396.82,0,0,1,113,525H100.76C106.73,622.44,147.53,713.22,217.16,782.84Z"/><path class="cls-96" d="M217.16,782.84q2.93,2.94,6,5.71A396.76,396.76,0,0,1,112.23,525H100.76C106.73,622.44,147.53,713.22,217.16,782.84Z"/><path class="cls-97" d="M217.16,782.84c1.82,1.82,3.68,3.6,5.56,5.33A396.73,396.73,0,0,1,111.48,525H100.76C106.73,622.44,147.53,713.22,217.16,782.84Z"/><path class="cls-98" d="M217.16,782.84q2.53,2.53,5.16,4.95A396.85,396.85,0,0,1,110.72,525h-10C106.73,622.44,147.53,713.22,217.16,782.84Z"/><path class="cls-99" d="M217.16,782.84q2.34,2.34,4.76,4.57A396.81,396.81,0,0,1,110,525h-9.21C106.73,622.44,147.53,713.22,217.16,782.84Z"/><path class="cls-100" d="M217.16,782.84q2.15,2.14,4.36,4.18a396.79,396.79,0,0,1-112.3-262h-8.46C106.73,622.44,147.53,713.22,217.16,782.84Z"/><path class="cls-101" d="M217.16,782.84c1.29,1.3,2.62,2.56,4,3.8A396.81,396.81,0,0,1,108.47,525h-7.71C106.73,622.44,147.53,713.22,217.16,782.84Z"/><path class="cls-102" d="M217.16,782.84c1.16,1.17,2.35,2.3,3.56,3.42A396.83,396.83,0,0,1,107.72,525h-7C106.73,622.44,147.53,713.22,217.16,782.84Z"/><path class="cls-103" d="M217.16,782.84c1,1,2.09,2,3.16,3A396.81,396.81,0,0,1,107,525h-6.21C106.73,622.44,147.53,713.22,217.16,782.84Z"/><path class="cls-104" d="M217.16,782.84c.9.91,1.82,1.79,2.76,2.65A396.84,396.84,0,0,1,106.22,525h-5.46C106.73,622.44,147.53,713.22,217.16,782.84Z"/><path class="cls-105" d="M217.16,782.84c.77.78,1.56,1.53,2.36,2.27-69.2-70.45-109.25-162-114.06-260.11h-4.7C106.73,622.44,147.53,713.22,217.16,782.84Z"/><path class="cls-106" d="M217.16,782.84c.64.64,1.29,1.27,2,1.88A396.91,396.91,0,0,1,104.71,525h-3.95C106.73,622.44,147.53,713.22,217.16,782.84Z"/><path class="cls-107" d="M217.16,782.84c.51.51,1,1,1.55,1.5C149.41,714.16,109.14,622.85,104,525h-3.2C106.73,622.44,147.53,713.22,217.16,782.84Z"/><path class="cls-108" d="M217.16,782.84l1.15,1.12C149,713.91,108.57,622.74,103.21,525h-2.45C106.73,622.44,147.53,713.22,217.16,782.84Z"/><path class="cls-109" d="M217.16,782.84l.75.73C148.5,713.66,108,622.62,102.46,525h-1.7C106.73,622.44,147.53,713.22,217.16,782.84Z"/><path class="cls-110" d="M217.16,782.84l.35.35C148,713.41,107.44,622.51,101.71,525h-.95C106.73,622.44,147.53,713.22,217.16,782.84Z"/></g><g class="cls-40"><path class="cls-41" d="M795.07,229.93q-6-6.5-12.23-12.77C713.22,147.53,622.44,106.73,525,100.76V125C625.93,125,721.15,162.13,795.07,229.93Z"/><path class="cls-80" d="M794.68,229.53q-5.76-6.28-11.84-12.37C713.22,147.53,622.44,106.73,525,100.76v23.49C625.82,124.43,720.9,161.68,794.68,229.53Z"/><path class="cls-81" d="M794.3,229.13q-5.58-6.09-11.46-12C713.22,147.53,622.44,106.73,525,100.76V123.5C625.71,123.87,720.65,161.23,794.3,229.13Z"/><path class="cls-82" d="M793.92,228.73q-5.4-5.88-11.08-11.57C713.22,147.53,622.44,106.73,525,100.76v22A397,397,0,0,1,793.92,228.73Z"/><path class="cls-83" d="M793.53,228.33q-5.21-5.69-10.69-11.17C713.22,147.53,622.44,106.73,525,100.76V122A397,397,0,0,1,793.53,228.33Z"/><path class="cls-84" d="M793.15,227.93q-5-5.48-10.31-10.77C713.22,147.53,622.44,106.73,525,100.76v20.48A397,397,0,0,1,793.15,227.93Z"/><path class="cls-85" d="M792.77,227.53q-4.85-5.28-9.93-10.37C713.22,147.53,622.44,106.73,525,100.76v19.73A397,397,0,0,1,792.77,227.53Z"/><path class="cls-86" d="M792.39,227.13c-3.11-3.38-6.28-6.71-9.55-10C713.22,147.53,622.44,106.73,525,100.76v19A396.89,396.89,0,0,1,792.39,227.13Z"/><path class="cls-87" d="M792,226.73q-4.46-4.87-9.16-9.57C713.22,147.53,622.44,106.73,525,100.76V119A396.88,396.88,0,0,1,792,226.73Z"/><path class="cls-88" d="M791.62,226.33q-4.27-4.67-8.78-9.17C713.22,147.53,622.44,106.73,525,100.76v17.48A396.82,396.82,0,0,1,791.62,226.33Z"/><path class="cls-89" d="M791.24,225.93q-4.1-4.47-8.4-8.77C713.22,147.53,622.44,106.73,525,100.76v16.73A396.86,396.86,0,0,1,791.24,225.93Z"/><path class="cls-90" d="M790.85,225.52q-3.9-4.25-8-8.36C713.22,147.53,622.44,106.73,525,100.76v16A396.86,396.86,0,0,1,790.85,225.52Z"/><path class="cls-91" d="M790.47,225.12q-3.72-4.05-7.63-8C713.22,147.53,622.44,106.73,525,100.76V116A396.85,396.85,0,0,1,790.47,225.12Z"/><path class="cls-92" d="M790.09,224.72c-2.36-2.56-4.77-5.09-7.25-7.56C713.22,147.53,622.44,106.73,525,100.76v14.47A396.9,396.9,0,0,1,790.09,224.72Z"/><path class="cls-93" d="M789.7,224.32c-2.23-2.42-4.51-4.82-6.86-7.16C713.22,147.53,622.44,106.73,525,100.76v13.72A396.81,396.81,0,0,1,789.7,224.32Z"/><path class="cls-94" d="M789.32,223.92c-2.11-2.29-4.26-4.55-6.48-6.76C713.22,147.53,622.44,106.73,525,100.76v13A396.81,396.81,0,0,1,789.32,223.92Z"/><path class="cls-95" d="M788.94,223.52c-2-2.15-4-4.28-6.1-6.36C713.22,147.53,622.44,106.73,525,100.76V113A396.8,396.8,0,0,1,788.94,223.52Z"/><path class="cls-96" d="M788.55,223.12q-2.77-3-5.71-6C713.22,147.53,622.44,106.73,525,100.76v11.47A396.76,396.76,0,0,1,788.55,223.12Z"/><path class="cls-97" d="M788.17,222.72c-1.73-1.88-3.51-3.74-5.33-5.56C713.22,147.53,622.44,106.73,525,100.76v10.72A396.73,396.73,0,0,1,788.17,222.72Z"/><path class="cls-98" d="M787.79,222.32q-2.41-2.62-4.95-5.16C713.22,147.53,622.44,106.73,525,100.76v10A396.85,396.85,0,0,1,787.79,222.32Z"/><path class="cls-99" d="M787.41,221.92q-2.24-2.41-4.57-4.76C713.22,147.53,622.44,106.73,525,100.76V110A396.81,396.81,0,0,1,787.41,221.92Z"/><path class="cls-100" d="M787,221.52q-2-2.22-4.18-4.36C713.22,147.53,622.44,106.73,525,100.76v8.46A396.79,396.79,0,0,1,787,221.52Z"/><path class="cls-101" d="M786.64,221.12c-1.24-1.34-2.5-2.67-3.8-4C713.22,147.53,622.44,106.73,525,100.76v7.71A396.81,396.81,0,0,1,786.64,221.12Z"/><path class="cls-102" d="M786.26,220.72c-1.12-1.21-2.25-2.4-3.42-3.56C713.22,147.53,622.44,106.73,525,100.76v7A396.83,396.83,0,0,1,786.26,220.72Z"/><path class="cls-103" d="M785.87,220.32c-1-1.07-2-2.13-3-3.16C713.22,147.53,622.44,106.73,525,100.76V107A396.81,396.81,0,0,1,785.87,220.32Z"/><path class="cls-104" d="M785.49,219.92c-.86-.94-1.74-1.86-2.65-2.76C713.22,147.53,622.44,106.73,525,100.76v5.46A396.84,396.84,0,0,1,785.49,219.92Z"/><path class="cls-105" d="M785.11,219.52c-.74-.8-1.49-1.59-2.27-2.36C713.22,147.53,622.44,106.73,525,100.76v4.7C623.07,110.27,714.66,150.32,785.11,219.52Z"/><path class="cls-106" d="M784.72,219.12c-.61-.67-1.24-1.32-1.88-2C713.22,147.53,622.44,106.73,525,100.76v3.95A396.91,396.91,0,0,1,784.72,219.12Z"/><path class="cls-107" d="M784.34,218.71c-.49-.52-1-1-1.5-1.55C713.22,147.53,622.44,106.73,525,100.76V104C622.85,109.14,714.16,149.41,784.34,218.71Z"/><path class="cls-108" d="M784,218.31c-.37-.39-.74-.77-1.12-1.15C713.22,147.53,622.44,106.73,525,100.76v2.45C622.74,108.57,713.91,149,784,218.31Z"/><path class="cls-109" d="M783.57,217.91l-.73-.75C713.22,147.53,622.44,106.73,525,100.76v1.7C622.63,108,713.66,148.5,783.57,217.91Z"/><path class="cls-110" d="M783.19,217.51c-.12-.11-.23-.24-.35-.35C713.22,147.53,622.44,106.73,525,100.76v.95C622.52,107.44,713.41,148,783.19,217.51Z"/></g><path class="cls-111" d="M899.23,475h50.08C936.79,246.38,753.62,63.21,525,50.69v50.08C726,113.17,886.83,274,899.23,475Z"/><g class="cls-112"><path class="cls-113" d="M525,100.77V475h1V100.85Z"/></g><path class="cls-114" d="M525,899.23v50.08C753.62,936.79,936.79,753.62,949.31,525H899.23C886.83,726,726,886.83,525,899.23Z"/><path class="cls-115" d="M475,100.77V50.69C246.38,63.21,63.21,246.38,50.69,475h50.08C113.17,274,274,113.17,475,100.77Z"/><path class="cls-116" d="M100.77,525H50.69C63.21,753.62,246.38,936.79,475,949.31V899.23C274,886.83,113.17,726,100.77,525Z"/><g class="cls-117"><path class="cls-118" d="M100.77,525c0,.33,0,.67.08,1H475v-1Z"/></g><path class="cls-41" d="M86.34,676.15A446,446,0,0,1,51.69,526h49.16c0-.33-.06-.67-.08-1H50.68A448.24,448.24,0,0,0,181.8,818.2l.5.49A448.58,448.58,0,0,1,86.34,676.15Z"/><path class="cls-41" d="M86.34,325.85A449.51,449.51,0,0,1,475,51.74V50.68A449.53,449.53,0,0,0,50.68,475h1.06A445.91,445.91,0,0,1,86.34,325.85Z"/><path d="M216,783.05l.5.5C286.27,853.37,377.29,894.27,475,900.24v-1C377.15,893.56,285.94,852.8,216,783.05Z"/><path class="cls-41" d="M818.2,181.8A448.24,448.24,0,0,0,525,50.68h0v50.08l1,.08V51.69A448.11,448.11,0,0,1,818.69,182.3Z"/><path class="cls-41" d="M783.55,216.45l-.5-.5c69.75,70,110.51,161.2,116.24,259.05h1C894.27,377.29,853.37,286.27,783.55,216.45Z"/><path class="cls-41" d="M949.31,525H899.17c-6.19,97.33-47,188-116.62,257.55S622.33,893,525,899.17v50.14l1-.06V900.17c97.33-6.19,188-47,257.55-116.62S894,623.33,900.17,526h49.08Z"/><g class="cls-119"><circle class="cls-120" cx="525" cy="525" r="125"/></g><circle class="cls-121" cx="500" cy="500" r="125"/><path class="cls-41" d="M376,501a125,125,0,0,1,212.88-88.88A125,125,0,1,0,412.12,588.88,124.59,124.59,0,0,1,376,501Z"/></g></g></svg>