<svg width="15" height="19" viewBox="0 0 15 19" fill="none" xmlns="http://www.w3.org/2000/svg">
<path d="M7.5 15.8333C7.32742 15.8333 7.1875 15.975 7.1875 16.1499V18.6833C7.1875 18.8581 7.32742 18.9999 7.5 18.9999C7.67258 18.9999 7.8125 18.8581 7.8125 18.6833V16.1499C7.8125 15.975 7.67258 15.8333 7.5 15.8333Z" fill="#4487C0"/>
<path d="M9.958 15.398C9.87273 15.246 9.68195 15.1928 9.53191 15.2792C9.38187 15.3656 9.32937 15.5589 9.41465 15.711C9.41535 15.7122 9.41605 15.7134 9.41675 15.7147L10.6668 17.9085C10.7541 18.0594 10.9455 18.11 11.0944 18.0215C11.2419 17.9339 11.2925 17.7424 11.208 17.5919L9.958 15.398Z" fill="#4487C0"/>
<path d="M13.6102 14.9257L11.4452 13.659C11.2964 13.5706 11.1049 13.6212 11.0176 13.772C10.9303 13.9229 10.9802 14.1169 11.1291 14.2054C11.1303 14.2061 11.1315 14.2068 11.1327 14.2075L13.2977 15.4742C13.4477 15.5606 13.6385 15.5074 13.7238 15.3553C13.8083 15.2048 13.7577 15.0133 13.6102 14.9257Z" fill="#4487C0"/>
<path d="M3.9818 13.775C3.9818 13.775 3.98176 13.775 3.98176 13.775C3.89555 13.6235 3.70446 13.5715 3.55493 13.6589C3.55481 13.6589 3.55469 13.659 3.55458 13.6591L1.38958 14.9257C1.23954 15.0121 1.18704 15.2055 1.27231 15.3575C1.35758 15.5095 1.54837 15.5627 1.6984 15.4763C1.69962 15.4756 1.70083 15.4749 1.70204 15.4742L3.86704 14.2075C4.01661 14.1202 4.06798 13.9266 3.9818 13.775Z" fill="#4487C0"/>
<path d="M5.4692 15.2819C5.46908 15.2818 5.46897 15.2817 5.46885 15.2817C5.31936 15.1943 5.12822 15.2463 5.04201 15.3978C5.04201 15.3978 5.04197 15.3979 5.04197 15.3979L3.79197 17.5917C3.70471 17.7426 3.75463 17.9366 3.90354 18.0251C4.05244 18.1135 4.24389 18.0629 4.33115 17.912C4.33186 17.9108 4.33252 17.9096 4.33322 17.9084L5.58322 15.7145C5.66963 15.5632 5.61862 15.3695 5.4692 15.2819Z" fill="#4487C0"/>
<path fill-rule="evenodd" clip-rule="evenodd" d="M7.8125 2.18817V4.12458C11.8272 4.29863 14.995 7.64477 15 11.7167C15 11.8915 14.8601 12.0333 14.6875 12.0333H10.9222C10.7737 13.7102 9.46223 15.0392 7.80738 15.1897C5.91754 15.3615 4.24801 13.9484 4.07844 12.0333H0.3125C0.139922 12.0333 0 11.8915 0 11.7167C0.00503906 7.64477 3.17285 4.29863 7.1875 4.12458V2.18817C6.28648 2.03304 5.62668 1.2428 5.625 0.316667C5.625 0.141787 5.76492 0 5.9375 0H9.0625C9.23508 0 9.375 0.141787 9.375 0.316667C9.37332 1.2428 8.71352 2.03304 7.8125 2.18817ZM8.71062 0.633333H6.28937C6.40285 1.08051 6.74742 1.42971 7.18875 1.5447C7.85734 1.71887 8.53871 1.31084 8.71062 0.633333ZM7.5 14.5667C6.06824 14.5649 4.86562 13.475 4.70469 12.0333H10.2953C10.1344 13.475 8.93176 14.5649 7.5 14.5667ZM7.80738 4.75178C4.01422 4.57975 0.801641 7.55626 0.631875 11.4H14.3681C14.209 7.7972 11.3628 4.913 7.80738 4.75178Z" fill="#4487C0"/>
<path d="M5.19088 6.17175C4.29029 6.55883 3.49736 7.16422 2.88182 7.93463C2.77326 8.0706 2.79404 8.27002 2.92822 8.38002C3.0624 8.49002 3.2592 8.46897 3.36775 8.333C3.91857 7.64357 4.62814 7.1018 5.434 6.75536C5.59303 6.68732 5.66756 6.50152 5.60041 6.34037C5.53326 6.17923 5.3499 6.1037 5.19088 6.17175Z" fill="#4487C0"/>
</svg>
