<svg width="60" height="58" viewBox="0 0 60 58" fill="none" xmlns="http://www.w3.org/2000/svg">
<path d="M42.6 7.93992H26.46V6.07992H42.6V7.93992ZM42.6 11.6599H26.46V13.5199H42.6V11.6599ZM42.6 17.2999H26.46V19.1599H42.6V17.2999ZM42.6 22.8799H26.46V24.7999H42.6V22.8799ZM21.18 24.3199C21.18 25.3399 20.34 26.1799 19.32 26.1799C18.3 26.1799 17.46 25.3399 17.46 24.3199C17.46 23.2999 18.3 22.4599 19.32 22.4599C20.34 22.4599 21.18 23.2999 21.18 24.3199ZM59.34 56.6599C59.16 56.9599 58.86 57.0799 58.56 57.0799H40.74C40.44 57.0799 40.14 56.8999 39.96 56.6599C39.78 56.3599 39.78 56.0599 39.9 55.7599L41.7 52.0999V50.0599H35.64V51.0199C35.64 51.5599 35.22 51.9799 34.68 51.9799H25.32C24.78 51.9799 24.36 51.5599 24.36 51.0199V50.0599H18.3V52.0999L20.1 55.7599C20.22 56.0599 20.22 56.4199 20.04 56.6599C19.86 56.9599 19.56 57.0799 19.26 57.0799H1.43999C1.13999 57.0799 0.83999 56.8999 0.65999 56.6599C0.47999 56.3599 0.47999 56.0599 0.59999 55.7599L2.39999 52.0999V43.0399C2.39999 42.4999 2.81999 42.0799 3.35999 42.0799H17.4C17.94 42.0799 18.36 42.4999 18.36 43.0399V48.1999H24.42V47.2399C24.42 46.6999 24.84 46.2799 25.38 46.2799H29.1V29.4799H19.32C16.44 29.4799 14.1 27.1999 14.1 24.3199C14.1 21.4999 16.38 19.2199 19.26 19.1599H22.68V1.87992C22.68 1.33992 23.1 0.919922 23.64 0.919922H45C45.54 0.919922 45.96 1.33992 45.96 1.87992V26.4799C45.96 28.1599 44.64 29.4799 42.96 29.4799H30.96V46.3399H34.68C35.22 46.3399 35.64 46.7599 35.64 47.2999V48.2599H41.7V43.0999C41.7 42.5599 42.12 42.1399 42.66 42.1399H56.7C57.24 42.1399 57.66 42.5599 57.66 43.0999V52.1599L59.46 55.8199C59.52 55.9999 59.52 56.3599 59.34 56.6599ZM24.54 24.5599C24.48 25.6999 24.06 26.7199 23.34 27.5599H42.96C43.56 27.5599 44.1 27.0799 44.1 26.4199V2.77992H24.54V24.5599ZM19.32 27.5599C21.18 27.5599 22.68 26.1199 22.68 24.2599C22.68 22.3999 21.18 20.9599 19.32 20.9599C17.46 20.9599 15.96 22.3999 15.96 24.2599C15.96 26.1199 17.46 27.5599 19.32 27.5599ZM4.25999 51.4399H16.44V43.9399H4.25999V51.4399ZM17.76 55.2199L16.8 53.2999H3.89999L2.99999 55.2199H17.76ZM33.72 48.1399H26.28V49.9999H33.78V48.1399H33.72ZM43.56 51.4399H55.74V43.9399H43.56V51.4399ZM57.06 55.2199L56.16 53.2999H43.2L42.3 55.2199H57.06Z" fill="#4487C0"/>
</svg>
