<svg width="60" height="75" viewBox="0 0 60 75" fill="none" xmlns="http://www.w3.org/2000/svg">
<g clip-path="url(#clip0)">
<path d="M21.3984 14.5359C21.9162 14.5359 22.3359 14.1162 22.3359 13.5984C22.3359 13.0806 21.9162 12.6609 21.3984 12.6609C20.8807 12.6609 20.4609 13.0806 20.4609 13.5984C20.4609 14.1162 20.8807 14.5359 21.3984 14.5359Z" fill="#4487C0"/>
<path d="M11.55 26.4094C12.0678 26.4094 12.4875 25.9897 12.4875 25.4719C12.4875 24.9542 12.0678 24.5344 11.55 24.5344C11.0322 24.5344 10.6125 24.9542 10.6125 25.4719C10.6125 25.9897 11.0322 26.4094 11.55 26.4094Z" fill="#4487C0"/>
<path d="M47.6625 26.4094C48.1803 26.4094 48.6 25.9897 48.6 25.4719C48.6 24.9542 48.1803 24.5344 47.6625 24.5344C47.1447 24.5344 46.725 24.9542 46.725 25.4719C46.725 25.9897 47.1447 26.4094 47.6625 26.4094Z" fill="#4487C0"/>
<path d="M37.8141 14.5359C38.3318 14.5359 38.7516 14.1162 38.7516 13.5984C38.7516 13.0806 38.3318 12.6609 37.8141 12.6609C37.2963 12.6609 36.8766 13.0806 36.8766 13.5984C36.8766 14.1162 37.2963 14.5359 37.8141 14.5359Z" fill="#4487C0"/>
<path d="M11.2359 53.4375C11.7537 53.4375 12.1734 53.0178 12.1734 52.5C12.1734 51.9822 11.7537 51.5625 11.2359 51.5625C10.7182 51.5625 10.2984 51.9822 10.2984 52.5C10.2984 53.0178 10.7182 53.4375 11.2359 53.4375Z" fill="#4487C0"/>
<path d="M48.7594 53.4375C49.2771 53.4375 49.6969 53.0178 49.6969 52.5C49.6969 51.9822 49.2771 51.5625 48.7594 51.5625C48.2416 51.5625 47.8219 51.9822 47.8219 52.5C47.8219 53.0178 48.2416 53.4375 48.7594 53.4375Z" fill="#4487C0"/>
<path d="M59.9156 33.2109C60.0092 33.0142 60.0314 32.7911 59.9784 32.5798C59.9254 32.3685 59.8004 32.1823 59.625 32.0531L57.0234 30.1781C56.9241 30.1 56.8101 30.0428 56.6881 30.0099C56.5661 29.977 56.4387 29.9691 56.3136 29.9866C56.1885 30.0042 56.0682 30.0469 55.96 30.1121C55.8518 30.1773 55.7579 30.2637 55.6839 30.3661C55.6099 30.4686 55.5574 30.5849 55.5295 30.7081C55.5016 30.8313 55.4989 30.9589 55.5216 31.0832C55.5443 31.2075 55.5918 31.326 55.6614 31.4314C55.731 31.5369 55.8212 31.6272 55.9266 31.6969L56.175 31.875H42.4266C42.1779 31.875 41.9395 31.9738 41.7637 32.1496C41.5878 32.3254 41.4891 32.5639 41.4891 32.8125C41.4891 33.0611 41.5878 33.2996 41.7637 33.4754C41.9395 33.6512 42.1779 33.75 42.4266 33.75H56.175L55.9313 33.9281C55.741 34.0777 55.616 34.2951 55.5824 34.5347C55.5488 34.7744 55.6091 35.0178 55.7508 35.2139C55.8925 35.4101 56.1045 35.5439 56.3426 35.5873C56.5807 35.6307 56.8263 35.5804 57.0281 35.4469L59.3953 33.75C59.6152 33.6218 59.7953 33.4352 59.9156 33.2109Z" fill="#4487C0"/>
<path d="M4.33592 33.9L4.10155 33.75H17.8125C18.0611 33.75 18.2996 33.6513 18.4754 33.4755C18.6512 33.2996 18.75 33.0612 18.75 32.8125C18.75 32.5639 18.6512 32.3254 18.4754 32.1496C18.2996 31.9738 18.0611 31.875 17.8125 31.875H4.10155L4.33592 31.725C4.44063 31.6588 4.53118 31.5726 4.60234 31.4712C4.6735 31.3698 4.72386 31.2553 4.75051 31.1343C4.77716 31.0133 4.77956 30.8882 4.75759 30.7663C4.73562 30.6444 4.6897 30.5281 4.62249 30.424C4.55529 30.3199 4.46812 30.2302 4.36604 30.1601C4.26395 30.0899 4.14897 30.0406 4.02774 30.0152C3.90651 29.9897 3.78143 29.9885 3.65974 30.0116C3.53804 30.0348 3.42214 30.0818 3.31874 30.15L0.398424 32.025C0.273591 32.1144 0.171866 32.2323 0.101688 32.3688C0.0315107 32.5054 -0.00509644 32.6567 -0.00509644 32.8102C-0.00509644 32.9637 0.0315107 33.115 0.101688 33.2516C0.171866 33.3881 0.273591 33.506 0.398424 33.5954L3.30936 35.4704C3.41277 35.5386 3.52867 35.5856 3.65036 35.6088C3.77206 35.6319 3.89714 35.6307 4.01837 35.6052C4.1396 35.5798 4.25458 35.5305 4.35666 35.4604C4.45875 35.3902 4.54591 35.3005 4.61312 35.1964C4.68033 35.0923 4.72624 34.976 4.74822 34.8541C4.77019 34.7322 4.76778 34.6071 4.74114 34.4861C4.71449 34.3651 4.66413 34.2506 4.59297 34.1492C4.52181 34.0478 4.43126 33.9616 4.32655 33.8954L4.33592 33.9Z" fill="#4487C0"/>
<path d="M8.46563 11.4797C8.41584 11.6447 8.41584 11.8208 8.46563 11.9859C8.46563 11.9859 8.46563 11.9859 8.46563 12.0187L9.80625 16.0687C9.84565 16.186 9.90776 16.2943 9.98903 16.3876C10.0703 16.4809 10.1692 16.5572 10.2799 16.6123C10.3907 16.6673 10.5112 16.7 10.6347 16.7085C10.7581 16.717 10.882 16.7011 10.9992 16.6617C11.1165 16.6223 11.2248 16.5602 11.3181 16.4789C11.4114 16.3976 11.4877 16.2988 11.5428 16.188C11.5978 16.0772 11.6305 15.9567 11.639 15.8333C11.6475 15.7099 11.6316 15.586 11.5922 15.4687L11.4938 15.1687L20.8922 24.5437C21.0681 24.7196 21.3067 24.8185 21.5555 24.8185C21.8042 24.8185 22.0428 24.7196 22.2188 24.5437C22.3947 24.3678 22.4935 24.1292 22.4935 23.8804C22.4935 23.6317 22.3947 23.3931 22.2188 23.2172L12.8438 13.8422L13.0781 13.9218C13.1977 13.9935 13.3318 14.0375 13.4706 14.0507C13.6094 14.064 13.7494 14.0461 13.8804 13.9984C14.0114 13.9507 14.1301 13.8744 14.2279 13.775C14.3257 13.6756 14.4 13.5557 14.4456 13.424C14.4912 13.2922 14.5068 13.1519 14.4914 13.0134C14.4759 12.8748 14.4297 12.7415 14.3562 12.623C14.2827 12.5046 14.1836 12.404 14.0663 12.3287C13.949 12.2533 13.8164 12.2051 13.6781 12.1875L9.65625 10.8328H9.61875C9.38007 10.7664 9.12481 10.7971 8.90874 10.9183C8.69267 11.0395 8.53336 11.2414 8.46563 11.4797Z" fill="#4487C0"/>
<path d="M14.0625 52.5C14.0625 52.7486 14.1613 52.9871 14.3371 53.1629C14.5129 53.3387 14.7514 53.4375 15 53.4375H45C45.2486 53.4375 45.4871 53.3387 45.6629 53.1629C45.8387 52.9871 45.9375 52.7486 45.9375 52.5C45.9375 52.2514 45.8387 52.0129 45.6629 51.8371C45.4871 51.6613 45.2486 51.5625 45 51.5625H15C14.7514 51.5625 14.5129 51.6613 14.3371 51.8371C14.1613 52.0129 14.0625 52.2514 14.0625 52.5Z" fill="#4487C0"/>
<path d="M51.5625 55.3125H7.96875C7.72011 55.3125 7.48165 55.4113 7.30584 55.5871C7.13002 55.7629 7.03125 56.0014 7.03125 56.25C7.03125 56.4986 7.13002 56.7371 7.30584 56.9129C7.48165 57.0887 7.72011 57.1875 7.96875 57.1875H51.5625C51.8111 57.1875 52.0496 57.0887 52.2254 56.9129C52.4012 56.7371 52.5 56.4986 52.5 56.25C52.5 56.0014 52.4012 55.7629 52.2254 55.5871C52.0496 55.4113 51.8111 55.3125 51.5625 55.3125Z" fill="#4487C0"/>
<path d="M27.6984 8.33907C27.8086 8.3947 27.9286 8.42803 28.0517 8.43716C28.1747 8.44629 28.2984 8.43104 28.4155 8.39228C28.5327 8.35352 28.641 8.29202 28.7343 8.2113C28.8277 8.13058 28.9041 8.03223 28.9594 7.92189L29.0578 7.72501V18.75C29.0578 18.9986 29.1566 19.2371 29.3324 19.4129C29.5082 19.5887 29.7467 19.6875 29.9953 19.6875C30.244 19.6875 30.4824 19.5887 30.6582 19.4129C30.834 19.2371 30.9328 18.9986 30.9328 18.75V7.72501L31.0313 7.92189C31.1425 8.14442 31.3376 8.31364 31.5737 8.39231C31.8097 8.47099 32.0673 8.45268 32.2899 8.34142C32.5124 8.23015 32.6816 8.03504 32.7603 7.79901C32.839 7.56298 32.8207 7.30536 32.7094 7.08282L30.8344 3.33282V3.30001C30.7732 3.18942 30.6903 3.09235 30.5906 3.01463C30.4909 2.93691 30.3766 2.88014 30.2544 2.84774C30.1323 2.81534 30.0048 2.80797 29.8797 2.82608C29.7547 2.8442 29.6345 2.88741 29.5266 2.95314C29.3865 3.05502 29.2685 3.18417 29.1797 3.33282L27.3047 7.08282C27.1921 7.30195 27.1703 7.5566 27.244 7.79169C27.3176 8.02678 27.4809 8.22342 27.6984 8.33907Z" fill="#4487C0"/>
<path d="M20.625 48.75V41.25C20.625 38.6531 22.6875 36.4125 25.6641 35.3484C25.0476 34.9795 24.4806 34.5338 23.9766 34.0219C20.8359 35.5031 18.75 38.189 18.75 41.25V48.75C18.75 48.9986 18.8488 49.2371 19.0246 49.4129C19.2004 49.5887 19.4389 49.6875 19.6875 49.6875C19.9361 49.6875 20.1746 49.5887 20.3504 49.4129C20.5262 49.2371 20.625 48.9986 20.625 48.75Z" fill="#4487C0"/>
<path d="M36.0234 34.0219C35.5194 34.5338 34.9524 34.9795 34.3359 35.3484C37.3125 36.4125 39.375 38.6531 39.375 41.25V48.75C39.375 48.9986 39.4738 49.2371 39.6496 49.4129C39.8254 49.5887 40.0639 49.6875 40.3125 49.6875C40.5611 49.6875 40.7996 49.5887 40.9754 49.4129C41.1512 49.2371 41.25 48.9986 41.25 48.75V41.25C41.25 38.189 39.1547 35.5031 36.0234 34.0219Z" fill="#4487C0"/>
<path d="M30 34.6875C31.2979 34.6875 32.5667 34.3026 33.6459 33.5815C34.7251 32.8604 35.5663 31.8355 36.063 30.6364C36.5597 29.4372 36.6896 28.1177 36.4364 26.8447C36.1832 25.5717 35.5582 24.4024 34.6404 23.4846C33.7226 22.5668 32.5533 21.9418 31.2803 21.6886C30.0073 21.4354 28.6878 21.5653 27.4886 22.062C26.2895 22.5587 25.2646 23.3999 24.5435 24.4791C23.8224 25.5583 23.4375 26.8271 23.4375 28.125C23.4375 29.8655 24.1289 31.5347 25.3596 32.7654C26.5903 33.9961 28.2595 34.6875 30 34.6875ZM30 23.4375C30.9271 23.4375 31.8334 23.7124 32.6042 24.2275C33.3751 24.7426 33.9759 25.4746 34.3307 26.3312C34.6855 27.1877 34.7783 28.1302 34.5974 29.0395C34.4166 29.9488 33.9701 30.784 33.3146 31.4396C32.659 32.0951 31.8238 32.5416 30.9145 32.7224C30.0052 32.9033 29.0627 32.8105 28.2062 32.4557C27.3496 32.1009 26.6176 31.5001 26.1025 30.7292C25.5874 29.9584 25.3125 29.0521 25.3125 28.125C25.3125 26.8818 25.8064 25.6895 26.6854 24.8104C27.5645 23.9314 28.7568 23.4375 30 23.4375Z" fill="#4487C0"/>
<path d="M46.9125 13.9594L47.1469 13.8797L37.7719 23.2547C37.596 23.4306 37.4971 23.6692 37.4971 23.918C37.4971 24.1668 37.596 24.4054 37.7719 24.5813C37.9478 24.7572 38.1864 24.856 38.4352 24.856C38.6839 24.856 38.9225 24.7572 39.0984 24.5813L48.4969 15.2063L48.3984 15.5063C48.3201 15.7425 48.3388 16.0001 48.4505 16.2225C48.5621 16.445 48.7575 16.6139 48.9937 16.6922C49.23 16.7705 49.4876 16.7518 49.71 16.6402C49.9324 16.5285 50.1014 16.3331 50.1797 16.0969L51.5203 12.0469C51.5203 12.0469 51.5203 12.0469 51.5203 12.0141C51.5659 11.8535 51.5677 11.6837 51.5257 11.5222C51.4837 11.3607 51.3993 11.2133 51.2813 11.0953C51.1633 10.9772 51.0159 10.8929 50.8544 10.8509C50.6929 10.8089 50.5231 10.8107 50.3625 10.8563H50.325L46.3172 12.1875C46.1962 12.223 46.0836 12.2826 45.9861 12.3626C45.8887 12.4427 45.8084 12.5415 45.75 12.6533C45.6917 12.7651 45.6565 12.8876 45.6465 13.0133C45.6366 13.139 45.6521 13.2654 45.6922 13.385C45.7323 13.5046 45.7961 13.6148 45.8797 13.7092C45.9634 13.8035 46.0653 13.88 46.1792 13.9341C46.2931 13.9881 46.4168 14.0187 46.5428 14.0238C46.6688 14.029 46.7945 14.0087 46.9125 13.9641V13.9594Z" fill="#4487C0"/>
</g>
<defs>
<clipPath id="clip0">
<rect width="60" height="75" fill="white"/>
</clipPath>
</defs>
</svg>
