<svg width="96" height="96" viewBox="0 0 96 96" fill="none" xmlns="http://www.w3.org/2000/svg">
<path fill-rule="evenodd" clip-rule="evenodd" d="M8 0H88C92.4112 0 96 3.5888 96 8V57.6V64C96 68.4112 92.4112 72 88 72H61.1184L63.736 86.4H70.0224C71.8528 86.4 73.4976 87.416 74.3136 89.0528C75.064 90.552 74.9856 92.2976 74.104 93.7232C73.2224 95.1488 71.696 96 70.0208 96H25.9776C24.3024 96 22.7744 95.1488 21.8944 93.7232C21.0144 92.2976 20.936 90.552 21.6848 89.0528C22.504 87.416 24.1488 86.4 25.9792 86.4H32.2656L34.8832 72H8C3.5888 72 0 68.4112 0 64V57.6V8C0 3.5888 3.5888 0 8 0ZM70.0224 89.6H62.4H56C55.1168 89.6 54.4 88.8832 54.4 88C54.4 87.1168 55.1168 86.4 56 86.4H60.4832L57.864 72H38.1344L35.5168 86.4H46.4C47.2832 86.4 48 87.1168 48 88C48 88.8832 47.2832 89.6 46.4 89.6H33.6H25.9776C25.368 89.6 24.8192 89.9392 24.5472 90.4832C24.1856 91.2048 24.4752 91.8112 24.616 92.04C24.7568 92.2688 25.1728 92.8 25.9776 92.8H70.0224C70.8272 92.8 71.2416 92.2688 71.3856 92.0416C71.5248 91.8128 71.8144 91.2048 71.4544 90.4848C71.1808 89.9392 70.632 89.6 70.0224 89.6ZM92.8 64C92.8 66.6464 90.6464 68.8 88 68.8H59.2H36.8H8C5.3536 68.8 3.2 66.6464 3.2 64V59.2H92.8V64ZM3.2 56H92.8V8C92.8 5.3536 90.6464 3.2 88 3.2H8C5.3536 3.2 3.2 5.3536 3.2 8V56Z" fill="#4487C0"/>
<path fill-rule="evenodd" clip-rule="evenodd" d="M27.1999 32H43.1999C44.0831 32 44.7999 32.7168 44.7999 33.6C44.7999 44.1872 36.1871 52.8 25.5999 52.8C15.0127 52.8 6.3999 44.1872 6.3999 33.6C6.3999 23.0128 15.0127 14.4 25.5999 14.4C26.4831 14.4 27.1999 15.1168 27.1999 16V32ZM9.5999 33.6C9.5999 42.4224 16.7775 49.6 25.5999 49.6C33.8815 49.6 40.7151 43.2736 41.5199 35.2H25.5999C24.7167 35.2 23.9999 34.4832 23.9999 33.6V17.68C15.9263 18.4848 9.5999 25.3184 9.5999 33.6Z" fill="#4487C0"/>
<path fill-rule="evenodd" clip-rule="evenodd" d="M30.3999 9.6C30.3999 8.7168 31.1167 8 31.9999 8C42.5871 8 51.1999 16.6128 51.1999 27.2C51.1999 28.0832 50.4831 28.8 49.5999 28.8H31.9999C31.1167 28.8 30.3999 28.0832 30.3999 27.2V9.6ZM33.5999 11.28V25.6H47.9199C47.1679 18.0528 41.1471 12.032 33.5999 11.28Z" fill="#4487C0"/>
<path fill-rule="evenodd" clip-rule="evenodd" d="M55.9999 6.40002H87.9999C88.8831 6.40002 89.5999 7.11682 89.5999 8.00002V51.2C89.5999 52.0832 88.8831 52.8 87.9999 52.8H55.9999C55.1167 52.8 54.3999 52.0832 54.3999 51.2V8.00002C54.3999 7.11682 55.1167 6.40002 55.9999 6.40002ZM57.5999 49.6H86.3999V9.60002H57.5999V49.6Z" fill="#4487C0"/>
<path d="M72 14.4H62.4C61.5168 14.4 60.8 15.1168 60.8 16C60.8 16.8832 61.5168 17.6 62.4 17.6H72C72.8832 17.6 73.6 16.8832 73.6 16C73.6 15.1168 72.8832 14.4 72 14.4Z" fill="#4487C0"/>
<path d="M81.6 20.8H62.4C61.5168 20.8 60.8 21.5168 60.8 22.4C60.8 23.2832 61.5168 24 62.4 24H81.6C82.4832 24 83.2 23.2832 83.2 22.4C83.2 21.5168 82.4832 20.8 81.6 20.8Z" fill="#4487C0"/>
<path d="M72 27.2H62.4C61.5168 27.2 60.8 27.9168 60.8 28.8C60.8 29.6832 61.5168 30.4 62.4 30.4H72C72.8832 30.4 73.6 29.6832 73.6 28.8C73.6 27.9168 72.8832 27.2 72 27.2Z" fill="#4487C0"/>
<path d="M81.6 33.6H62.4C61.5168 33.6 60.8 34.3168 60.8 35.2C60.8 36.0832 61.5168 36.8 62.4 36.8H81.6C82.4832 36.8 83.2 36.0832 83.2 35.2C83.2 34.3168 82.4832 33.6 81.6 33.6Z" fill="#4487C0"/>
<path d="M72 40H62.4C61.5168 40 60.8 40.7168 60.8 41.6C60.8 42.4832 61.5168 43.2 62.4 43.2H72C72.8832 43.2 73.6 42.4832 73.6 41.6C73.6 40.7168 72.8832 40 72 40Z" fill="#4487C0"/>
<path d="M51.2 62.4H44.8C43.9168 62.4 43.2 63.1168 43.2 64C43.2 64.8832 43.9168 65.6 44.8 65.6H51.2C52.0832 65.6 52.8 64.8832 52.8 64C52.8 63.1168 52.0832 62.4 51.2 62.4Z" fill="#4487C0"/>
</svg>
