<svg xmlns="http://www.w3.org/2000/svg" viewBox="0 0 1122 1122"><defs><style>.cls-1{fill:#394959;opacity:0.92;}.cls-2{fill:#8c776b;}.cls-3{fill:#f0cfc2;}.cls-4{fill:#9aaab5;}.cls-5{fill:#262626;}.cls-6{fill:#383838;}.cls-7{fill:#ebefeb;}.cls-8{fill:#91a1ab;}.cls-9{fill:#f7f7f7;}.cls-10{fill:#5e5e5e;}.cls-11{fill:#303030;}.cls-12{fill:#bfbfbf;}.cls-13{fill:#f0ddd1;}.cls-14{fill:#999;}.cls-15{fill:#afd9c4;}.cls-16{fill:#c4a451;}.cls-17{fill:#4d4d4d;}.cls-18{fill:#454545;}.cls-19{fill:#f2f2f2;}.cls-20{fill:#aa6a64;}.cls-21{fill:#0f0f0f;}.cls-22{opacity:0.81;}.cls-23{fill:#b3d6e3;}.cls-24{fill:#fcd79f;}</style></defs><title>io gateways</title><g id="object"><path class="cls-1" d="M887.75,523.29c43.69-.78,90.75-.64,126.36,23.4,15.91,10.73,29.07,27.48,28.43,46-1.83,52.33-100.87,65.56-97.79,117.84,1.65,28.16,33,44.32,55.64,62.53,35.44,28.47,55.29,73.54,51.73,117.47-1.83,22.73-10.32,46-28.41,61-14.3,11.84-33.08,17.44-51.49,21.81-76,18-155,20.25-233.27,22.39l-293.18,8c-75.28,2.06-154.43,3.3-221-30.11S111.63,859.4,145.13,795.39c9.52-18.19,25.15-37.58,17.4-56.51-3.57-8.72-11.51-15-18.41-21.66-40-38.69-51.84-118.12-12-161.49,39.38-42.82,159.21-21.68,216.65-22.72Z"/><path class="cls-2" d="M835.56,247.54c2.64,5,5.61,10,7.33,15.47,1.34,4.33,1.89,9,3.82,13,1,2.16,2.45,4.09,3.48,6.26a40.29,40.29,0,0,1,2.27,6.89,101.16,101.16,0,0,1,3.17,15.17c.46,4.39.32,9.05-1.57,13-2.47,5.18-7.49,8.24-12.42,10.37-5.21,2.25-10.92,3.81-16.31,2.36-4-1.08-7.54-3.76-10.81-6.56-7.36-6.29-14.07-13.43-20.77-20.56a158.42,158.42,0,0,1-13.36-15.5c-4.2-5.82-7.67-12.24-11.61-18.27-5.74-8.8-12.73-17.39-14.12-28.18-1.53-12,4.46-24,12.45-32.43,5.11-5.42,11.32-9.93,18.27-11.26a35.17,35.17,0,0,1,12.81.37A76.24,76.24,0,0,1,815.28,203c6.38,2.82,6.3,4.09,8,11.28A139.85,139.85,0,0,0,835.56,247.54Z"/><path class="cls-3" d="M805.38,220.05c.47-12.19-9.78-22.49-22.89-23s-24.13,9-24.6,21.16a20.71,20.71,0,0,0,.65,5.91c0,.48,0,1,0,1.48a62.8,62.8,0,0,0,.49,13.21c1.34,8.5,5.41,16.53,13.49,21.65a18.32,18.32,0,0,0,9.1,3.15c4.43.14,8.58-2,11.76-4.68,10.53-8.94,11.94-22.93,11.74-36.2A21.12,21.12,0,0,0,805.38,220.05Z"/><path class="cls-2" d="M766.94,196.67c-5.24,4.1-10.76,8.61-12.66,15-1.66,5.58-.29,11.93-2.95,17.11-2.48,4.82-8.06,7.75-9.61,12.95s1.65,10.65,6.21,13.32a9,9,0,0,1,3,2.13,6,6,0,0,1,1,3.15,20.28,20.28,0,0,1-.74,7.39,4.57,4.57,0,0,0-.3,2.09c.29,1.45,2,2.11,3.51,2.14s3-.29,4.41.29a8.32,8.32,0,0,1,2.33,1.77c2.66,2.46,7,4.26,9.72,1.88,1.7-1.48,2-4.08,1.39-6.25a24,24,0,0,0-3.17-5.95,107.41,107.41,0,0,1-6.22-11.89c-1.63-3.49-3.29-7-3.75-10.88a36.19,36.19,0,0,1,.67-9.89c.47-2.91.94-5.83,1.4-8.74a20.9,20.9,0,0,1,1.93-6.84c1.61-2.9,4.49-4.84,6.69-7.32a19.34,19.34,0,0,0,4.76-11.48C775,189.08,770.42,194,766.94,196.67Z"/><path class="cls-2" d="M797.48,212.68a12.77,12.77,0,0,1,5.76,13.48c-1.06,4.58-4.66,8.41-5,13.09-.35,5,3.16,9.72,2.71,14.72-.33,3.69-2.72,6.83-4.89,10a31.15,31.15,0,0,1,6,1,7.22,7.22,0,0,1,1.94-1.71c2.28-1.32,5.2-1,7.54-2.18,7-3.56,2.77-15.73,8.49-21.15,1.46-1.38,3.44-2.15,4.79-3.63,2.82-3.06,2-8,.32-11.76s-4.19-7.44-4.31-11.6c-.06-2,.43-3.93.16-5.87-.67-4.77-5.46-7.67-9.73-9.89-7.56-3.92-15.38-7.92-23.87-8.61-7.39-.6-20.94,5-16.73,14.67C775,213.12,789.9,208.18,797.48,212.68Z"/><path class="cls-3" d="M751.91,323.73c-3.5,7.94-7.18,16.68-14.61,20.74-4.39,2.41-9.51,2.79-14.44,2.73-8.7-.12-17.3-1.48-25.88-2.86-3.43-.55-7.05-1.18-9.68-3.51s-3.7-6.95-1.27-9.59L723.5,331a7.12,7.12,0,0,0,3.42-.58,7.66,7.66,0,0,0,2.77-3.31,222.48,222.48,0,0,0,14-30.78c1.49-4.08,2.91-8.28,5.47-11.76s6.53-6.19,10.69-5.88C780.35,280.2,755.2,316.25,751.91,323.73Z"/><path class="cls-3" d="M680.05,330.93a2.38,2.38,0,0,0-1.34-.13,5.31,5.31,0,0,0-1.2.72c-1.31.77-2.9.11-4.28-.44s-3.17-.9-4.19.24a4,4,0,0,0-.77,1.67c-.55,1.92-.92,4.1,0,5.82a5.53,5.53,0,0,0,2.09,2c4.24,2.54,9.59,1.18,14.52,1.31a6.07,6.07,0,0,0,2.68-.29c2.18-1,2.64-5.08,1.55-7C687.6,332.08,682.78,331.74,680.05,330.93Z"/><path class="cls-4" d="M697.39,344.78a4.79,4.79,0,0,0,.77,2.15,4.45,4.45,0,0,0,3.1,1.25q12.82,1.57,25.75,2.24c4,.21,8.43.26,11.82-2.14,2.3-1.62,3.82-4.16,5.28-6.62l7.83-13.27c4.14-7,8.3-14.05,11.1-21.71s4.18-16.05,2.58-24c-.46-2.27-1.26-4.64-3.06-6-3.07-2.31-7.5-.67-10.61,1.69a21.57,21.57,0,0,0-4.51,4.49,35.34,35.34,0,0,0-3.48,6.51q-8.3,18.47-16.58,36.92a5.14,5.14,0,0,1-2.09,2.73,4.59,4.59,0,0,1-2.33.23c-7.91-.57-15.82-1.24-23.74-1.72-4.25-.26-4,1.37-3.55,5.33S696.66,340.84,697.39,344.78Z"/><path class="cls-5" d="M781.47,427.42a259.38,259.38,0,0,0-1.29,27.31q-.15,14.08-.2,28.16c0,10,0,20.07.23,30.11.7,28.22,1.6,69.18,4.13,97.3a36.07,36.07,0,0,0,12.12.84c2.77-35.34,3.57-84.1,11-118.77,6-28,16.55-54.92,16.49-83.54,0-8.58-1.32-18.19-7.23-24.88-4.33-4.91-13-9.6-19.21-5.28-5.44,3.8-7.46,13.2-9.35,19.05A156,156,0,0,0,781.47,427.42Z"/><path class="cls-5" d="M737.89,402.07c-2.17,9.38-4.29,35.74-5.6,45.3q-2,14.78-3.92,29.55c-1.37,10.54-2.69,21.08-3.8,31.65-3.13,29.72-6.2,72.39-7.64,102.22,3.47,1.47,10.28,2.25,14,2.28,7.24-36.79,14.1-87.7,25.46-123.25,9.17-28.71,20.32-55.94,24.07-86A43.61,43.61,0,0,0,775,377.25c-3.3-5.65-10.59-11.58-16.8-7.76-5.47,3.36-7.78-3.78-10.28,2.15A186.6,186.6,0,0,0,737.89,402.07Z"/><path class="cls-6" d="M731.63,605.88a2.49,2.49,0,0,1,1.23.43,2.61,2.61,0,0,1,.74,1.82c1.29,9.85-.87,19.88-2.36,29.7-1,6.88-.57,7-2.6,14.9-1.08.41-4.83.88-4.87-.27a100.74,100.74,0,0,1,.29-14.11,7.4,7.4,0,0,0-.19-3,2.46,2.46,0,0,0-2.18-1.77c-1.7,0-2.39,2.15-2.61,3.83q-.57,4.15-1.12,8.31c-.44,3.29-1.09,2.81-3.74,4.79-1.63,1.23-3.74,1.58-5.77,1.89a120.12,120.12,0,0,1-16.26,1.77,14,14,0,0,1-6.94-1.21c-2.62-1.41-4.23-4.17-5.29-7-1.57-4.14-2-5.22,1.06-8.4,2.22-2.3,5.67-2.9,8.87-2.91s6.44.43,9.55-.31a23.05,23.05,0,0,0,6.53-3c2.12-1.29,4.27-2.73,5.56-4.85s1.59-4.74,1.78-7.24c.28-3.55-.95-10.54,2.56-12.82C719,604.51,728.29,605.4,731.63,605.88Z"/><path class="cls-6" d="M789.4,601.62c2.74-.25,5.73.6,7.36,2.81a9.84,9.84,0,0,1,1.48,3.51c2.59,10.11-.31,21.19,3.17,31a44.07,44.07,0,0,1,1.72,5c.56,2.6-.82,2.22-.39,4.85a8.24,8.24,0,0,1,.23,2.56c-.26,1.78-1.91,3-3.47,3.91-2.64,1.55-5.65,2.91-8.66,2.36a14.83,14.83,0,0,1-4.5-1.9,9.31,9.31,0,0,1-2.22-1.55,7.89,7.89,0,0,1-1.56-2.84c-2.4-6.77-.71-11.09-.87-18.27s-1.15-14.17-1.1-21.28c0-2.14-.39-5.5,1.13-7.27S787.12,601.83,789.4,601.62Z"/><path class="cls-7" d="M707.89,446c-3,3.53-6.45,7.72-6.12,13.1.38,6.1,5.48,9.48,10,10s9.21-.49,13.25,2.14c5.18,3.36,7.6,11.59,12,16.52,4.17,4.63,10.17,5.95,15.2,3.36s8.88-8.67,14-10.77c10.07-4.08,22.48,7.79,30.68-1.19,3.39-3.71,5-10.33,9.11-12.43,4.62-2.39,9.67,2.42,14.57,1.65s8.4-6.89,9.49-13.34.21-13.16-.67-19.66l-4.14-30.54c-1.14-8.43-3.12-18.28-9-21.15-3.62-1.76-7.6-.23-11.26,1.36-10.73,4.65-21.43,9.74-32.54,12.21-6.79,1.5-9.75-8.86-16.59-10.09-7.69-1.37-11.61-7.46-16.49,2C731,405.44,719,432.76,707.89,446Z"/><path class="cls-8" d="M752.76,286c-2.47,8.54-3.54,17.4-4.87,26.19-3,19.73-7.33,39.23-11.67,58.7l-3.87,17.38a5.08,5.08,0,0,0-.17,2.22,4.51,4.51,0,0,0,.87,1.7,20.11,20.11,0,0,0,7.42,6.18c4.74,2.29,10.16,2.63,15.42,2.74a229.07,229.07,0,0,0,61.91-7.16,8,8,0,0,0,3.33-1.45c1.4-1.22,1.78-3.21,1.92-5.06.85-11.29-4.07-22.15-5.77-33.35-1.24-8.19-.74-16.56-1.83-24.77-.93-7-3-13.79-3.92-20.78-.64-4.93-.71-9.93-1.67-14.81-1.05-5.42-3.19-10.62-3.74-16.11-.26-2.64-.16-5.33-.82-7.89s-2.28-5.1-4.81-5.89c-2.16-.68-4.49,0-6.66.71-5,1.56-10.08,3-15.3,3.14-5.45.16-12.41-4.67-16.6-.64C757.2,271.58,754.53,279.87,752.76,286Z"/><path class="cls-9" d="M636,176.07c0-14.89,1-45.47-2.38-56.58-2.77-9.1-17-6.55-20.88-6.29-7,.46-14,0-21,.67-15.74,1.51-28.37-2.64-44.1-.08-1.88.31-7,2.76-8.61,5.85-3.32,6.39-2.31,28.54-2.3,40.84.12,92.71.05,168.76-.46,261.46-.2,38-.83,57.9.61,84.09.49,8.87,1.36,21.39,3.48,27.49,3.61,10.4,13.26,8.73,18.12,8.46,22.94-1.27,45.11,5.36,67.94-1.16a6.54,6.54,0,0,0,4.69-3.64c3.47-6.66,4.5-36.48,4.47-49.36-.28-101,.42-153.24.42-247.73C636,218.63,636,206.88,636,176.07Z"/><path class="cls-10" d="M617.35,219.28c0-1.49.45-4.54-1.08-5.64-1.25-.91-7.68-.66-9.44-.63-3.16,0-6.32,0-9.48.07-7.12.15-12.82-.27-19.94,0a17.55,17.55,0,0,0-3.89.58c-1.5.64-1,2.85-1,4.07,0,9.24,0,16.82-.21,26.07-.09,3.78-.38,5.77.28,8.38a4.42,4.42,0,0,0,1.57,2.74c1.63,1,6,.87,8.19.84,10.38-.12,20.4.54,30.73-.11a6.53,6.53,0,0,0,2.11-.37c1.58-.66,2-3.63,2-4.92-.13-10.07.19-15.27.19-24.69C617.37,223.52,617.36,222.35,617.35,219.28Z"/><path class="cls-11" d="M614.93,219.57c0-1,.41-3.16-1-3.93-1.11-.63-6.84-.45-8.41-.44-2.82,0-5.63,0-8.45.05-6.34.11-11.43-.18-17.77,0a20.23,20.23,0,0,0-3.47.4c-1.34.45-.94,2-.93,2.84,0,6.44,0,11.73-.18,18.17-.09,2.64-.34,4,.24,5.84a3.06,3.06,0,0,0,1.4,1.92,14.09,14.09,0,0,0,4.9.6c0,1,0,1.43,0,2.84,0,.56-.13.65.26.94a1.76,1.76,0,0,0,.93.31c.61.07,1.86.09,3,.1,0,.9,0,1.39,0,2.76,0,.43-.15.65.12.95a1,1,0,0,0,.64.31,30,30,0,0,0,3.37.09c4.26,0,8.38.06,12.62,0,.3,0,.62,0,.87,0,.65-.08.84-.41.83-.56,0-1.13.08-1.72.08-2.78,0-.24,0-.37,0-.72h0l1.63,0c.44,0,.89,0,1.26,0,.94-.07,1.22-.41,1.21-.55-.07-1.14.12-1.73.12-2.79,0-.24,0-.37,0-.72,0,0,0,0,0-.06.93,0,1.86-.06,2.8-.11a7.57,7.57,0,0,0,1.89-.25c1.4-.46,1.81-2.54,1.8-3.43-.11-7,.17-10.65.17-17.22C615,222.53,614.94,221.72,614.93,219.57Z"/><path class="cls-9" d="M580.3,221.27c0-1.12,0-2,0-3.14,0-.14,0-.5,0-.61s-.1-.22-.15-.22l-1,0c-.14,0-.21-.06-.31,0a.46.46,0,0,0-.1.25c0,.26,0,.94,0,1.29,0,1.63,0,3.21,0,4.83,0,.12,0,.24,0,.34s.14.32.19.31c.37,0,.57,0,.92,0h.24s.17.07.21-.17,0-1.21,0-1.48Z"/><path class="cls-9" d="M583.37,221.27c0-1.12,0-2,0-3.14,0-.14,0-.5,0-.61s-.1-.22-.14-.22c-.35,0-.5,0-1,0-.15,0-.22-.06-.32,0a.46.46,0,0,0-.1.25c0,.26,0,.94,0,1.29,0,1.63,0,3.21,0,4.83,0,.12,0,.24,0,.34s.13.32.18.31c.38,0,.57,0,.92,0h.24c.06,0,.17.07.21-.17s0-1.21,0-1.48C583.37,222.26,583.38,221.76,583.37,221.27Z"/><path class="cls-9" d="M586.38,221.27c0-1.12,0-2,0-3.14,0-.14,0-.5,0-.61s-.1-.22-.15-.22l-1,0c-.14,0-.22-.06-.31,0a.44.44,0,0,0-.11.25c0,.26,0,.94,0,1.29,0,1.63,0,3.21,0,4.83,0,.12,0,.24,0,.34s.14.32.18.31c.38,0,.57,0,.93,0h.23c.06,0,.17.07.22-.17s0-1.21,0-1.48Z"/><path class="cls-9" d="M589.45,221.27c0-1.12,0-2,0-3.14,0-.14,0-.5,0-.61s-.1-.22-.15-.22l-1,0c-.14,0-.21-.06-.31,0a.46.46,0,0,0-.1.25c0,.26,0,.94,0,1.29,0,1.63,0,3.21,0,4.83,0,.12,0,.24,0,.34s.14.32.19.31c.37,0,.57,0,.92,0h.24s.17.07.21-.17,0-1.21,0-1.48Z"/><path class="cls-9" d="M592.59,221.27c0-1.12,0-2,0-3.14,0-.14,0-.5,0-.61s-.1-.22-.14-.22c-.35,0-.5,0-1,0-.15,0-.22-.06-.32,0a.46.46,0,0,0-.1.25c0,.26,0,.94,0,1.29,0,1.63,0,3.21,0,4.83,0,.12,0,.24,0,.34s.13.32.18.31c.38,0,.57,0,.92,0h.24c.06,0,.17.07.21-.17s0-1.21,0-1.48C592.59,222.26,592.6,221.76,592.59,221.27Z"/><path class="cls-9" d="M595.67,221.27c0-1.12,0-2,0-3.14,0-.14,0-.5,0-.61s-.1-.22-.15-.22l-1,0c-.14,0-.22-.06-.31,0a.44.44,0,0,0-.11.25c0,.26,0,.94,0,1.29,0,1.63,0,3.21,0,4.83,0,.12,0,.24,0,.34s.14.32.18.31c.38,0,.57,0,.93,0h.23c.06,0,.17.07.22-.17s0-1.21,0-1.48Z"/><path class="cls-9" d="M598.67,221.27c0-1.12,0-2,0-3.14,0-.14,0-.5,0-.61s-.1-.22-.15-.22l-1,0c-.14,0-.21-.06-.31,0a.46.46,0,0,0-.1.25c0,.26,0,.94,0,1.29,0,1.63,0,3.21,0,4.83,0,.12,0,.24,0,.34s.14.32.19.31c.37,0,.57,0,.92,0h.24s.17.07.21-.17,0-1.21,0-1.48Z"/><path class="cls-9" d="M601.74,221.27c0-1.12,0-2,0-3.14,0-.14,0-.5,0-.61s-.1-.22-.14-.22c-.35,0-.5,0-1,0-.15,0-.22-.06-.32,0a.46.46,0,0,0-.1.25c0,.26,0,.94,0,1.29,0,1.63,0,3.21,0,4.83,0,.12,0,.24,0,.34s.13.32.18.31c.38,0,.57,0,.92,0h.24c.06,0,.17.07.21-.17s0-1.21,0-1.48C601.74,222.26,601.75,221.76,601.74,221.27Z"/><path class="cls-9" d="M604.83,221.28c0-1.12,0-2,0-3.14,0-.13,0-.49,0-.61s-.1-.22-.14-.22c-.35,0-.5,0-1,0-.15,0-.22-.05-.32,0a.39.39,0,0,0-.1.25c0,.25,0,.94,0,1.28,0,1.64,0,3.21,0,4.84,0,.11,0,.23,0,.33s.13.32.18.32c.38,0,.57,0,.92,0h.24c.06,0,.17.07.21-.17s0-1.21,0-1.49C604.84,222.27,604.84,221.78,604.83,221.28Z"/><path class="cls-9" d="M607.91,221.28c0-1.12,0-2,0-3.14,0-.13,0-.49,0-.61s-.1-.22-.15-.22l-1,0c-.14,0-.22-.05-.31,0s-.08.09-.11.25,0,.94,0,1.28c0,1.64,0,3.21,0,4.84,0,.11,0,.23,0,.33s.14.32.18.32c.38,0,.58,0,.93,0h.24c.05,0,.17.07.21-.17s0-1.21,0-1.49Z"/><path class="cls-9" d="M610.91,221.28c0-1.12,0-2,0-3.14,0-.13,0-.49,0-.61s-.1-.22-.14-.22c-.35,0-.5,0-1,0-.14,0-.21-.05-.31,0a.39.39,0,0,0-.1.25c0,.25,0,.94,0,1.28,0,1.64,0,3.21,0,4.84,0,.11,0,.23,0,.33s.14.32.19.32c.37,0,.57,0,.92,0h.24c.06,0,.17.07.21-.17s0-1.21,0-1.49Z"/><path class="cls-10" d="M617.35,162.79c0-1.48.45-4.53-1.08-5.64-1.25-.9-7.68-.65-9.44-.62-3.16,0-6.32,0-9.48.06-7.12.15-12.82-.26-19.94,0a18.16,18.16,0,0,0-3.89.59c-1.5.63-1,2.84-1,4.07,0,9.24,0,16.82-.21,26.06-.09,3.79-.38,5.78.28,8.39a4.42,4.42,0,0,0,1.57,2.74c1.63,1,6,.87,8.19.84,10.38-.13,20.4.53,30.73-.12a6.27,6.27,0,0,0,2.11-.36c1.58-.66,2-3.64,2-4.92-.13-10.07.19-15.28.19-24.7C617.37,167,617.36,165.87,617.35,162.79Z"/><path class="cls-11" d="M614.93,163.09c0-1,.41-3.16-1-3.93-1.11-.63-6.84-.46-8.41-.44-2.82,0-5.63,0-8.45.05-6.34.1-11.43-.18-17.77,0a20.22,20.22,0,0,0-3.47.41c-1.34.44-.94,2-.93,2.84,0,6.44,0,11.73-.18,18.17-.09,2.64-.34,4,.24,5.84a3,3,0,0,0,1.4,1.91,14.06,14.06,0,0,0,4.9.61c0,1,0,1.43,0,2.84,0,.56-.13.64.26.94a1.76,1.76,0,0,0,.93.31c.61.07,1.86.09,3,.09,0,.91,0,1.4,0,2.77,0,.43-.15.65.12.95a1,1,0,0,0,.64.31,32.57,32.57,0,0,0,3.37.09c4.26,0,8.38.06,12.62,0,.3,0,.62,0,.87,0,.65-.08.84-.41.83-.56,0-1.13.08-1.72.08-2.78,0-.24,0-.38,0-.72h1.63c.44,0,.89,0,1.26,0,.94-.08,1.22-.41,1.21-.56-.07-1.13.12-1.72.12-2.78,0-.24,0-.37,0-.72,0,0,0,0,0-.06.93,0,1.86-.06,2.8-.11a7.57,7.57,0,0,0,1.89-.25c1.4-.47,1.81-2.54,1.8-3.43-.11-7,.17-10.65.17-17.22C615,166.05,614.94,165.23,614.93,163.09Z"/><path class="cls-9" d="M580.3,164.78c0-1.12,0-2,0-3.13,0-.14,0-.5,0-.62s-.1-.22-.15-.22c-.34,0-.49,0-1,0-.14,0-.21-.06-.31,0a.46.46,0,0,0-.1.25,12.85,12.85,0,0,0,0,1.29c0,1.63,0,3.21,0,4.83,0,.12,0,.24,0,.33,0,.25.14.32.19.32.37,0,.57,0,.92,0h.24s.17.07.21-.17,0-1.21,0-1.49Z"/><path class="cls-9" d="M583.37,164.78c0-1.12,0-2,0-3.13,0-.14,0-.5,0-.62s-.1-.22-.14-.22c-.35,0-.5,0-1,0-.15,0-.22-.06-.32,0a.46.46,0,0,0-.1.25c0,.25,0,.94,0,1.29,0,1.63,0,3.21,0,4.83a3.08,3.08,0,0,0,0,.33c0,.25.13.32.18.32.38,0,.57,0,.92,0h.24c.06,0,.17.07.21-.17s0-1.21,0-1.49C583.37,165.78,583.38,165.28,583.37,164.78Z"/><path class="cls-9" d="M586.38,164.78c0-1.12,0-2,0-3.13,0-.14,0-.5,0-.62s-.1-.22-.15-.22c-.34,0-.49,0-1,0-.14,0-.22-.06-.31,0a.44.44,0,0,0-.11.25c0,.25,0,.94,0,1.29,0,1.63,0,3.21,0,4.83,0,.12,0,.24,0,.33,0,.25.14.32.18.32.38,0,.57,0,.93,0h.23c.06,0,.17.07.22-.17s0-1.21,0-1.49Z"/><path class="cls-9" d="M589.45,164.78c0-1.12,0-2,0-3.13,0-.14,0-.5,0-.62s-.1-.22-.15-.22c-.34,0-.49,0-1,0-.14,0-.21-.06-.31,0a.46.46,0,0,0-.1.25,12.85,12.85,0,0,0,0,1.29c0,1.63,0,3.21,0,4.83,0,.12,0,.24,0,.33,0,.25.14.32.19.32.37,0,.57,0,.92,0h.24s.17.07.21-.17,0-1.21,0-1.49Z"/><path class="cls-9" d="M592.59,164.78c0-1.12,0-2,0-3.13,0-.14,0-.5,0-.62s-.1-.22-.14-.22c-.35,0-.5,0-1,0-.15,0-.22-.06-.32,0a.46.46,0,0,0-.1.25c0,.25,0,.94,0,1.29,0,1.63,0,3.21,0,4.83a3.08,3.08,0,0,0,0,.33c0,.25.13.32.18.32.38,0,.57,0,.92,0h.24c.06,0,.17.07.21-.17s0-1.21,0-1.49C592.59,165.78,592.6,165.28,592.59,164.78Z"/><path class="cls-9" d="M595.67,164.78c0-1.12,0-2,0-3.13,0-.14,0-.5,0-.62s-.1-.22-.15-.22c-.34,0-.49,0-1,0-.14,0-.22-.06-.31,0a.44.44,0,0,0-.11.25c0,.25,0,.94,0,1.29,0,1.63,0,3.21,0,4.83,0,.12,0,.24,0,.33,0,.25.14.32.18.32.38,0,.57,0,.93,0h.23c.06,0,.17.07.22-.17s0-1.21,0-1.49Z"/><path class="cls-9" d="M598.67,164.78c0-1.12,0-2,0-3.13,0-.14,0-.5,0-.62s-.1-.22-.15-.22c-.34,0-.49,0-1,0-.14,0-.21-.06-.31,0a.46.46,0,0,0-.1.25,12.85,12.85,0,0,0,0,1.29c0,1.63,0,3.21,0,4.83,0,.12,0,.24,0,.33,0,.25.14.32.19.32.37,0,.57,0,.92,0h.24s.17.07.21-.17,0-1.21,0-1.49Z"/><path class="cls-9" d="M601.74,164.78c0-1.12,0-2,0-3.13,0-.14,0-.5,0-.62s-.1-.22-.14-.22c-.35,0-.5,0-1,0-.15,0-.22-.06-.32,0a.46.46,0,0,0-.1.25c0,.25,0,.94,0,1.29,0,1.63,0,3.21,0,4.83a3.08,3.08,0,0,0,0,.33c0,.25.13.32.18.32.38,0,.57,0,.92,0h.24c.06,0,.17.07.21-.17s0-1.21,0-1.49C601.74,165.78,601.75,165.28,601.74,164.78Z"/><path class="cls-9" d="M604.83,164.8c0-1.12,0-2,0-3.14,0-.13,0-.5,0-.61s-.1-.22-.14-.22c-.35,0-.5,0-1,0-.15,0-.22-.06-.32.05a.38.38,0,0,0-.1.24c0,.26,0,1,0,1.29,0,1.63,0,3.21,0,4.84,0,.11,0,.23,0,.33,0,.25.13.32.18.32.38,0,.57,0,.92,0h.24c.06,0,.17.08.21-.17s0-1.2,0-1.48C604.84,165.79,604.84,165.3,604.83,164.8Z"/><path class="cls-9" d="M607.91,164.8c0-1.12,0-2,0-3.14,0-.13,0-.5,0-.61s-.1-.22-.15-.22l-1,0c-.14,0-.22-.06-.31.05a.37.37,0,0,0-.11.24c0,.26,0,1,0,1.29,0,1.63,0,3.21,0,4.84,0,.11,0,.23,0,.33,0,.25.14.32.18.32.38,0,.58,0,.93,0h.24c.05,0,.17.08.21-.17s0-1.2,0-1.48Z"/><path class="cls-9" d="M610.91,164.8c0-1.12,0-2,0-3.14,0-.13,0-.5,0-.61s-.1-.22-.14-.22c-.35,0-.5,0-1,0-.14,0-.21-.06-.31.05a.38.38,0,0,0-.1.24c0,.26,0,1,0,1.29,0,1.63,0,3.21,0,4.84,0,.11,0,.23,0,.33,0,.25.14.32.19.32.37,0,.57,0,.92,0h.24c.06,0,.17.08.21-.17s0-1.2,0-1.48Z"/><path class="cls-10" d="M617.35,275.76c0-1.49.45-4.53-1.08-5.64-1.25-.91-7.68-.65-9.44-.63-3.16.05-6.32,0-9.48.07-7.12.15-12.82-.27-19.94,0a18.16,18.16,0,0,0-3.89.58c-1.5.64-1,2.85-1,4.07,0,9.25,0,16.83-.21,26.07-.09,3.78-.38,5.77.28,8.38a4.42,4.42,0,0,0,1.57,2.74c1.63,1,6,.87,8.19.84,10.38-.12,20.4.54,30.73-.11a6.81,6.81,0,0,0,2.11-.36c1.58-.67,2-3.64,2-4.92-.13-10.07.19-15.28.19-24.7C617.37,280,617.36,278.83,617.35,275.76Z"/><path class="cls-11" d="M614.93,276.06c0-1,.41-3.16-1-3.94-1.11-.63-6.84-.45-8.41-.43-2.82,0-5.63,0-8.45,0-6.34.11-11.43-.18-17.77,0a19.27,19.27,0,0,0-3.47.41c-1.34.44-.94,2-.93,2.83,0,6.45,0,11.73-.18,18.17-.09,2.64-.34,4,.24,5.85a3.07,3.07,0,0,0,1.4,1.91,14.09,14.09,0,0,0,4.9.6c0,1,0,1.43,0,2.84,0,.57-.13.65.26.94a1.76,1.76,0,0,0,.93.31c.61.08,1.86.1,3,.1,0,.91,0,1.39,0,2.77,0,.42-.15.65.12.94a1,1,0,0,0,.64.31,29.84,29.84,0,0,0,3.37.1c4.26,0,8.38.06,12.62,0a7.83,7.83,0,0,0,.87,0c.65-.07.84-.41.83-.55,0-1.14.08-1.73.08-2.79,0-.24,0-.37,0-.72h0l1.63,0c.44,0,.89,0,1.26,0,.94-.07,1.22-.41,1.21-.55-.07-1.14.12-1.72.12-2.78,0-.25,0-.38,0-.72,0,0,0-.05,0-.07.93,0,1.86-.06,2.8-.11a7.14,7.14,0,0,0,1.89-.25c1.4-.46,1.81-2.53,1.8-3.43-.11-7,.17-10.65.17-17.21C615,279,614.94,278.2,614.93,276.06Z"/><path class="cls-9" d="M580.3,277.75c0-1.12,0-2,0-3.14,0-.13,0-.5,0-.61s-.1-.22-.15-.22l-1,0c-.14,0-.21-.06-.31.05a.38.38,0,0,0-.1.24c0,.26,0,1,0,1.29,0,1.63,0,3.21,0,4.84,0,.11,0,.23,0,.33s.14.32.19.32c.37,0,.57,0,.92,0h.24s.17.08.21-.17,0-1.2,0-1.48Z"/><path class="cls-9" d="M583.37,277.75c0-1.12,0-2,0-3.14,0-.13,0-.5,0-.61s-.1-.22-.14-.22c-.35,0-.5,0-1,0-.15,0-.22-.06-.32.05a.38.38,0,0,0-.1.24c0,.26,0,1,0,1.29,0,1.63,0,3.21,0,4.84,0,.11,0,.23,0,.33s.13.32.18.32c.38,0,.57,0,.92,0h.24c.06,0,.17.08.21-.17s0-1.2,0-1.48C583.37,278.74,583.38,278.25,583.37,277.75Z"/><path class="cls-9" d="M586.38,277.75c0-1.12,0-2,0-3.14,0-.13,0-.5,0-.61s-.1-.22-.15-.22l-1,0c-.14,0-.22-.06-.31.05a.37.37,0,0,0-.11.24c0,.26,0,1,0,1.29,0,1.63,0,3.21,0,4.84,0,.11,0,.23,0,.33s.14.32.18.32c.38,0,.57,0,.93,0h.23c.06,0,.17.08.22-.17s0-1.2,0-1.48Z"/><path class="cls-9" d="M589.45,277.75c0-1.12,0-2,0-3.14,0-.13,0-.5,0-.61s-.1-.22-.15-.22l-1,0c-.14,0-.21-.06-.31.05a.38.38,0,0,0-.1.24c0,.26,0,1,0,1.29,0,1.63,0,3.21,0,4.84,0,.11,0,.23,0,.33s.14.32.19.32c.37,0,.57,0,.92,0h.24s.17.08.21-.17,0-1.2,0-1.48Z"/><path class="cls-9" d="M592.59,277.75c0-1.12,0-2,0-3.14,0-.13,0-.5,0-.61s-.1-.22-.14-.22c-.35,0-.5,0-1,0-.15,0-.22-.06-.32.05a.38.38,0,0,0-.1.24c0,.26,0,1,0,1.29,0,1.63,0,3.21,0,4.84,0,.11,0,.23,0,.33s.13.32.18.32c.38,0,.57,0,.92,0h.24c.06,0,.17.08.21-.17s0-1.2,0-1.48C592.59,278.74,592.6,278.25,592.59,277.75Z"/><path class="cls-9" d="M595.67,277.75c0-1.12,0-2,0-3.14,0-.13,0-.5,0-.61s-.1-.22-.15-.22l-1,0c-.14,0-.22-.06-.31.05a.37.37,0,0,0-.11.24c0,.26,0,1,0,1.29,0,1.63,0,3.21,0,4.84,0,.11,0,.23,0,.33s.14.32.18.32c.38,0,.57,0,.93,0h.23c.06,0,.17.08.22-.17s0-1.2,0-1.48Z"/><path class="cls-9" d="M598.67,277.75c0-1.12,0-2,0-3.14,0-.13,0-.5,0-.61s-.1-.22-.15-.22l-1,0c-.14,0-.21-.06-.31.05a.38.38,0,0,0-.1.24c0,.26,0,1,0,1.29,0,1.63,0,3.21,0,4.84,0,.11,0,.23,0,.33s.14.32.19.32c.37,0,.57,0,.92,0h.24s.17.08.21-.17,0-1.2,0-1.48Z"/><path class="cls-9" d="M601.74,277.75c0-1.12,0-2,0-3.14,0-.13,0-.5,0-.61s-.1-.22-.14-.22c-.35,0-.5,0-1,0-.15,0-.22-.06-.32.05a.38.38,0,0,0-.1.24c0,.26,0,1,0,1.29,0,1.63,0,3.21,0,4.84,0,.11,0,.23,0,.33s.13.32.18.32c.38,0,.57,0,.92,0h.24c.06,0,.17.08.21-.17s0-1.2,0-1.48C601.74,278.74,601.75,278.25,601.74,277.75Z"/><path class="cls-9" d="M604.83,277.76c0-1.12,0-2,0-3.13,0-.14,0-.5,0-.62s-.1-.22-.14-.21c-.35,0-.5,0-1,0-.15,0-.22-.06-.32,0a.46.46,0,0,0-.1.25c0,.25,0,.94,0,1.29,0,1.63,0,3.21,0,4.83,0,.12,0,.24,0,.33,0,.25.13.33.18.32.38,0,.57,0,.92,0h.24c.06,0,.17.07.21-.17s0-1.21,0-1.49C604.84,278.76,604.84,278.26,604.83,277.76Z"/><path class="cls-9" d="M607.91,277.76c0-1.12,0-2,0-3.13,0-.14,0-.5,0-.62s-.1-.22-.15-.21c-.34,0-.49,0-1,0-.14,0-.22-.06-.31,0a.44.44,0,0,0-.11.25c0,.25,0,.94,0,1.29,0,1.63,0,3.21,0,4.83,0,.12,0,.24,0,.33,0,.25.14.33.18.32.38,0,.58,0,.93,0h.24c.05,0,.17.07.21-.17s0-1.21,0-1.49Z"/><path class="cls-9" d="M610.91,277.76c0-1.12,0-2,0-3.13,0-.14,0-.5,0-.62s-.1-.22-.14-.21c-.35,0-.5,0-1,0-.14,0-.21-.06-.31,0a.46.46,0,0,0-.1.25c0,.25,0,.94,0,1.29,0,1.63,0,3.21,0,4.83,0,.12,0,.24,0,.33,0,.25.14.33.19.32.37,0,.57,0,.92,0h.24c.06,0,.17.07.21-.17s0-1.21,0-1.49Z"/><path class="cls-10" d="M617.35,332.05c0-1.48.45-4.53-1.08-5.64-1.25-.9-7.68-.65-9.44-.62-3.16,0-6.32,0-9.48.06-7.12.16-12.82-.26-19.94,0a17.55,17.55,0,0,0-3.89.58c-1.5.64-1,2.84-1,4.07,0,9.24,0,16.82-.21,26.07-.09,3.78-.38,5.77.28,8.38a4.42,4.42,0,0,0,1.57,2.74c1.63,1,6,.87,8.19.84,10.38-.13,20.4.54,30.73-.12a6.27,6.27,0,0,0,2.11-.36c1.58-.66,2-3.63,2-4.92-.13-10.07.19-15.27.19-24.69C617.37,336.3,617.36,335.13,617.35,332.05Z"/><path class="cls-11" d="M614.93,332.35c0-1,.41-3.16-1-3.93-1.11-.63-6.84-.45-8.41-.44-2.82,0-5.63,0-8.45,0-6.34.11-11.43-.18-17.77,0a21.26,21.26,0,0,0-3.47.41c-1.34.45-.94,2-.93,2.84,0,6.44,0,11.73-.18,18.17-.09,2.64-.34,4,.24,5.84a3,3,0,0,0,1.4,1.91,13.83,13.83,0,0,0,4.9.61c0,1,0,1.43,0,2.84,0,.56-.13.65.26.94a1.76,1.76,0,0,0,.93.31c.61.07,1.86.09,3,.1,0,.9,0,1.39,0,2.76,0,.43-.15.65.12.95a1,1,0,0,0,.64.31,30,30,0,0,0,3.37.09c4.26,0,8.38.06,12.62,0,.3,0,.62,0,.87,0,.65-.08.84-.41.83-.56,0-1.13.08-1.72.08-2.78,0-.24,0-.37,0-.72h1.63c.44,0,.89,0,1.26,0,.94-.07,1.22-.41,1.21-.55-.07-1.14.12-1.73.12-2.79,0-.24,0-.37,0-.72,0,0,0,0,0-.06.93,0,1.86-.06,2.8-.11a7.57,7.57,0,0,0,1.89-.25c1.4-.46,1.81-2.54,1.8-3.43-.11-7,.17-10.65.17-17.22C615,335.31,614.94,334.49,614.93,332.35Z"/><path class="cls-9" d="M580.3,334.05c0-1.12,0-2,0-3.14,0-.14,0-.5,0-.61s-.1-.22-.15-.22c-.34,0-.49,0-1,0-.14,0-.21-.06-.31,0a.46.46,0,0,0-.1.25c0,.26,0,.94,0,1.29,0,1.63,0,3.21,0,4.83,0,.12,0,.24,0,.34s.14.32.19.31c.37,0,.57,0,.92,0h.24s.17.07.21-.17,0-1.21,0-1.48Z"/><path class="cls-9" d="M583.37,334.05c0-1.12,0-2,0-3.14,0-.14,0-.5,0-.61s-.1-.22-.14-.22c-.35,0-.5,0-1,0-.15,0-.22-.06-.32,0a.46.46,0,0,0-.1.25c0,.26,0,.94,0,1.29,0,1.63,0,3.21,0,4.83,0,.12,0,.24,0,.34s.13.32.18.31c.38,0,.57,0,.92,0h.24c.06,0,.17.07.21-.17s0-1.21,0-1.48C583.37,335,583.38,334.54,583.37,334.05Z"/><path class="cls-9" d="M586.38,334.05c0-1.12,0-2,0-3.14,0-.14,0-.5,0-.61s-.1-.22-.15-.22c-.34,0-.49,0-1,0-.14,0-.22-.06-.31,0a.44.44,0,0,0-.11.25c0,.26,0,.94,0,1.29,0,1.63,0,3.21,0,4.83,0,.12,0,.24,0,.34s.14.32.18.31c.38,0,.57,0,.93,0h.23c.06,0,.17.07.22-.17s0-1.21,0-1.48Z"/><path class="cls-9" d="M589.45,334.05c0-1.12,0-2,0-3.14,0-.14,0-.5,0-.61s-.1-.22-.15-.22c-.34,0-.49,0-1,0-.14,0-.21-.06-.31,0a.46.46,0,0,0-.1.25c0,.26,0,.94,0,1.29,0,1.63,0,3.21,0,4.83,0,.12,0,.24,0,.34s.14.32.19.31c.37,0,.57,0,.92,0h.24s.17.07.21-.17,0-1.21,0-1.48Z"/><path class="cls-9" d="M592.59,334.05c0-1.12,0-2,0-3.14,0-.14,0-.5,0-.61s-.1-.22-.14-.22c-.35,0-.5,0-1,0-.15,0-.22-.06-.32,0a.46.46,0,0,0-.1.25c0,.26,0,.94,0,1.29,0,1.63,0,3.21,0,4.83,0,.12,0,.24,0,.34s.13.32.18.31c.38,0,.57,0,.92,0h.24c.06,0,.17.07.21-.17s0-1.21,0-1.48C592.59,335,592.6,334.54,592.59,334.05Z"/><path class="cls-9" d="M595.67,334.05c0-1.12,0-2,0-3.14,0-.14,0-.5,0-.61s-.1-.22-.15-.22c-.34,0-.49,0-1,0-.14,0-.22-.06-.31,0a.44.44,0,0,0-.11.25c0,.26,0,.94,0,1.29,0,1.63,0,3.21,0,4.83,0,.12,0,.24,0,.34s.14.32.18.31c.38,0,.57,0,.93,0h.23c.06,0,.17.07.22-.17s0-1.21,0-1.48Z"/><path class="cls-9" d="M598.67,334.05c0-1.12,0-2,0-3.14,0-.14,0-.5,0-.61s-.1-.22-.15-.22c-.34,0-.49,0-1,0-.14,0-.21-.06-.31,0a.46.46,0,0,0-.1.25c0,.26,0,.94,0,1.29,0,1.63,0,3.21,0,4.83,0,.12,0,.24,0,.34s.14.32.19.31c.37,0,.57,0,.92,0h.24s.17.07.21-.17,0-1.21,0-1.48Z"/><path class="cls-9" d="M601.74,334.05c0-1.12,0-2,0-3.14,0-.14,0-.5,0-.61s-.1-.22-.14-.22c-.35,0-.5,0-1,0-.15,0-.22-.06-.32,0a.46.46,0,0,0-.1.25c0,.26,0,.94,0,1.29,0,1.63,0,3.21,0,4.83,0,.12,0,.24,0,.34s.13.32.18.31c.38,0,.57,0,.92,0h.24c.06,0,.17.07.21-.17s0-1.21,0-1.48C601.74,335,601.75,334.54,601.74,334.05Z"/><path class="cls-9" d="M604.83,334.06c0-1.12,0-2,0-3.14,0-.13,0-.5,0-.61s-.1-.22-.14-.22c-.35,0-.5,0-1,0-.15,0-.22-.06-.32.05a.38.38,0,0,0-.1.24c0,.26,0,1,0,1.29,0,1.64,0,3.21,0,4.84,0,.11,0,.23,0,.33s.13.32.18.32c.38,0,.57,0,.92,0h.24c.06,0,.17.07.21-.17s0-1.21,0-1.49C604.84,335.05,604.84,334.56,604.83,334.06Z"/><path class="cls-9" d="M607.91,334.06c0-1.12,0-2,0-3.14,0-.13,0-.5,0-.61s-.1-.22-.15-.22c-.34,0-.49,0-1,0-.14,0-.22-.06-.31.05a.37.37,0,0,0-.11.24c0,.26,0,1,0,1.29,0,1.64,0,3.21,0,4.84,0,.11,0,.23,0,.33s.14.32.18.32c.38,0,.58,0,.93,0h.24c.05,0,.17.07.21-.17s0-1.21,0-1.49Z"/><path class="cls-9" d="M610.91,334.06c0-1.12,0-2,0-3.14,0-.13,0-.5,0-.61s-.1-.22-.14-.22c-.35,0-.5,0-1,0-.14,0-.21-.06-.31.05a.38.38,0,0,0-.1.24c0,.26,0,1,0,1.29,0,1.64,0,3.21,0,4.84,0,.11,0,.23,0,.33s.14.32.19.32c.37,0,.57,0,.92,0h.24c.06,0,.17.07.21-.17s0-1.21,0-1.49Z"/><path class="cls-10" d="M617.35,386.6c0-1.49.45-4.54-1.08-5.65-1.25-.9-7.68-.65-9.44-.62-3.16,0-6.32,0-9.48.06-7.12.16-12.82-.26-19.94,0a17.55,17.55,0,0,0-3.89.58c-1.5.64-1,2.84-1,4.07,0,9.24,0,16.82-.21,26.07-.09,3.78-.38,5.77.28,8.38a4.42,4.42,0,0,0,1.57,2.74c1.63,1,6,.87,8.19.84,10.38-.13,20.4.54,30.73-.11a6.53,6.53,0,0,0,2.11-.37c1.58-.66,2-3.63,2-4.92-.13-10.07.19-15.27.19-24.69C617.37,390.84,617.36,389.67,617.35,386.6Z"/><path class="cls-11" d="M614.93,386.89c0-1,.41-3.16-1-3.93-1.11-.63-6.84-.45-8.41-.44-2.82,0-5.63,0-8.45.05-6.34.11-11.43-.18-17.77,0a20.23,20.23,0,0,0-3.47.4c-1.34.45-.94,2-.93,2.84,0,6.44,0,11.73-.18,18.17-.09,2.64-.34,4,.24,5.84a3,3,0,0,0,1.4,1.91,13.83,13.83,0,0,0,4.9.61c0,1,0,1.43,0,2.84,0,.56-.13.65.26.94a1.76,1.76,0,0,0,.93.31c.61.07,1.86.09,3,.1,0,.9,0,1.39,0,2.76,0,.43-.15.65.12.95a1,1,0,0,0,.64.31,30,30,0,0,0,3.37.09c4.26,0,8.38.06,12.62,0,.3,0,.62,0,.87,0,.65-.08.84-.41.83-.56,0-1.13.08-1.72.08-2.78,0-.24,0-.37,0-.72h1.63c.44,0,.89,0,1.26,0,.94-.07,1.22-.41,1.21-.55-.07-1.14.12-1.73.12-2.79,0-.24,0-.37,0-.72,0,0,0,0,0-.06.93,0,1.86-.06,2.8-.11A7.57,7.57,0,0,0,613,412c1.4-.46,1.81-2.54,1.8-3.43-.11-7,.17-10.65.17-17.22C615,389.85,614.94,389,614.93,386.89Z"/><path class="cls-9" d="M580.3,388.59c0-1.12,0-2,0-3.14,0-.14,0-.5,0-.61s-.1-.22-.15-.22l-1,0c-.14,0-.21-.06-.31,0a.46.46,0,0,0-.1.25c0,.26,0,.94,0,1.29,0,1.63,0,3.21,0,4.83,0,.12,0,.24,0,.34s.14.32.19.31c.37,0,.57,0,.92,0h.24s.17.07.21-.17,0-1.21,0-1.48Z"/><path class="cls-9" d="M583.37,388.59c0-1.12,0-2,0-3.14,0-.14,0-.5,0-.61s-.1-.22-.14-.22c-.35,0-.5,0-1,0-.15,0-.22-.06-.32,0a.46.46,0,0,0-.1.25c0,.26,0,.94,0,1.29,0,1.63,0,3.21,0,4.83,0,.12,0,.24,0,.34s.13.32.18.31c.38,0,.57,0,.92,0h.24c.06,0,.17.07.21-.17s0-1.21,0-1.48C583.37,389.58,583.38,389.08,583.37,388.59Z"/><path class="cls-9" d="M586.38,388.59c0-1.12,0-2,0-3.14,0-.14,0-.5,0-.61s-.1-.22-.15-.22l-1,0c-.14,0-.22-.06-.31,0a.44.44,0,0,0-.11.25c0,.26,0,.94,0,1.29,0,1.63,0,3.21,0,4.83,0,.12,0,.24,0,.34s.14.32.18.31c.38,0,.57,0,.93,0h.23c.06,0,.17.07.22-.17s0-1.21,0-1.48Z"/><path class="cls-9" d="M589.45,388.59c0-1.12,0-2,0-3.14,0-.14,0-.5,0-.61s-.1-.22-.15-.22l-1,0c-.14,0-.21-.06-.31,0a.46.46,0,0,0-.1.25c0,.26,0,.94,0,1.29,0,1.63,0,3.21,0,4.83,0,.12,0,.24,0,.34s.14.32.19.31c.37,0,.57,0,.92,0h.24s.17.07.21-.17,0-1.21,0-1.48Z"/><path class="cls-9" d="M592.59,388.59c0-1.12,0-2,0-3.14,0-.14,0-.5,0-.61s-.1-.22-.14-.22c-.35,0-.5,0-1,0-.15,0-.22-.06-.32,0a.46.46,0,0,0-.1.25c0,.26,0,.94,0,1.29,0,1.63,0,3.21,0,4.83,0,.12,0,.24,0,.34s.13.32.18.31c.38,0,.57,0,.92,0h.24c.06,0,.17.07.21-.17s0-1.21,0-1.48C592.59,389.58,592.6,389.08,592.59,388.59Z"/><path class="cls-9" d="M595.67,388.59c0-1.12,0-2,0-3.14,0-.14,0-.5,0-.61s-.1-.22-.15-.22l-1,0c-.14,0-.22-.06-.31,0a.44.44,0,0,0-.11.25c0,.26,0,.94,0,1.29,0,1.63,0,3.21,0,4.83,0,.12,0,.24,0,.34s.14.32.18.31c.38,0,.57,0,.93,0h.23c.06,0,.17.07.22-.17s0-1.21,0-1.48Z"/><path class="cls-9" d="M598.67,388.59c0-1.12,0-2,0-3.14,0-.14,0-.5,0-.61s-.1-.22-.15-.22l-1,0c-.14,0-.21-.06-.31,0a.46.46,0,0,0-.1.25c0,.26,0,.94,0,1.29,0,1.63,0,3.21,0,4.83,0,.12,0,.24,0,.34s.14.32.19.31c.37,0,.57,0,.92,0h.24s.17.07.21-.17,0-1.21,0-1.48Z"/><path class="cls-9" d="M601.74,388.59c0-1.12,0-2,0-3.14,0-.14,0-.5,0-.61s-.1-.22-.14-.22c-.35,0-.5,0-1,0-.15,0-.22-.06-.32,0a.46.46,0,0,0-.1.25c0,.26,0,.94,0,1.29,0,1.63,0,3.21,0,4.83,0,.12,0,.24,0,.34s.13.32.18.31c.38,0,.57,0,.92,0h.24c.06,0,.17.07.21-.17s0-1.21,0-1.48C601.74,389.58,601.75,389.08,601.74,388.59Z"/><path class="cls-9" d="M604.83,388.6c0-1.12,0-2,0-3.14,0-.13,0-.5,0-.61s-.1-.22-.14-.22c-.35,0-.5,0-1,0-.15,0-.22-.06-.32.05a.38.38,0,0,0-.1.24c0,.26,0,.95,0,1.29,0,1.64,0,3.21,0,4.84,0,.11,0,.23,0,.33,0,.25.13.32.18.32.38,0,.57,0,.92,0h.24c.06,0,.17.07.21-.17s0-1.21,0-1.49C604.84,389.59,604.84,389.1,604.83,388.6Z"/><path class="cls-9" d="M607.91,388.6c0-1.12,0-2,0-3.14,0-.13,0-.5,0-.61s-.1-.22-.15-.22l-1,0c-.14,0-.22-.06-.31.05a.37.37,0,0,0-.11.24c0,.26,0,.95,0,1.29,0,1.64,0,3.21,0,4.84,0,.11,0,.23,0,.33,0,.25.14.32.18.32.38,0,.58,0,.93,0h.24c.05,0,.17.07.21-.17s0-1.21,0-1.49Z"/><path class="cls-9" d="M610.91,388.6c0-1.12,0-2,0-3.14,0-.13,0-.5,0-.61s-.1-.22-.14-.22c-.35,0-.5,0-1,0-.14,0-.21-.06-.31.05a.38.38,0,0,0-.1.24c0,.26,0,.95,0,1.29,0,1.64,0,3.21,0,4.84,0,.11,0,.23,0,.33,0,.25.14.32.19.32.37,0,.57,0,.92,0h.24c.06,0,.17.07.21-.17s0-1.21,0-1.49Z"/><path class="cls-10" d="M617.35,442.69c0-1.48.45-4.53-1.08-5.64-1.25-.9-7.68-.65-9.44-.62-3.16,0-6.32,0-9.48.06-7.12.15-12.82-.26-19.94,0a17.55,17.55,0,0,0-3.89.58c-1.5.64-1,2.84-1,4.07,0,9.24,0,16.82-.21,26.06-.09,3.79-.38,5.78.28,8.39a4.42,4.42,0,0,0,1.57,2.74c1.63,1,6,.87,8.19.84,10.38-.13,20.4.53,30.73-.12a6.27,6.27,0,0,0,2.11-.36c1.58-.66,2-3.63,2-4.92-.13-10.07.19-15.27.19-24.69C617.37,446.94,617.36,445.77,617.35,442.69Z"/><path class="cls-11" d="M614.93,443c0-1,.41-3.16-1-3.93-1.11-.63-6.84-.45-8.41-.44-2.82,0-5.63,0-8.45.05-6.34.1-11.43-.18-17.77,0a21.26,21.26,0,0,0-3.47.41c-1.34.44-.94,2-.93,2.84,0,6.44,0,11.73-.18,18.17-.09,2.64-.34,4,.24,5.84a3,3,0,0,0,1.4,1.91,14.06,14.06,0,0,0,4.9.61c0,1,0,1.43,0,2.84,0,.56-.13.64.26.94a1.76,1.76,0,0,0,.93.31c.61.07,1.86.09,3,.1,0,.9,0,1.39,0,2.76,0,.43-.15.65.12.95a1,1,0,0,0,.64.31,32.57,32.57,0,0,0,3.37.09c4.26,0,8.38.06,12.62,0,.3,0,.62,0,.87,0,.65-.08.84-.41.83-.56,0-1.13.08-1.72.08-2.78,0-.24,0-.37,0-.72h1.63c.44,0,.89,0,1.26,0,.94-.08,1.22-.41,1.21-.56-.07-1.13.12-1.72.12-2.78,0-.24,0-.37,0-.72,0,0,0,0,0-.06.93,0,1.86-.06,2.8-.11a7.57,7.57,0,0,0,1.89-.25c1.4-.47,1.81-2.54,1.8-3.43-.11-7,.17-10.65.17-17.22C615,446,614.94,445.13,614.93,443Z"/><path class="cls-12" d="M634.17,557.32c4.55,0,13.9.21,17.3-.48,2.78-.57,2-3.45,1.92-4.24-.14-1.42,0-2.84-.2-4.26-.47-3.2.8-5.76,0-9a3.31,3.31,0,0,0-1.79-1.75c-1.95-.67-8.72-.47-12.48-.47-28.34,0-51.58,0-79.92-.09-11.61,0-17.7-.17-25.7.13a57.89,57.89,0,0,0-8.41.7c-3.18.73-2.67,2.69-2.58,3.68.39,4.66-1.64,9.17.35,13.81a1.53,1.53,0,0,0,1.12,1c2,.7,11.14.91,15.08.9,30.88,0,46.84.09,75.73.09Z"/><path class="cls-13" d="M396,468c1.42-.93,2.83-2.18,3.1-3.86a4.73,4.73,0,0,0-2.54-4.57,11.38,11.38,0,0,0-5.38-1.17,40.28,40.28,0,0,0-10.21,1c-6.06,1.38-12.12,8-3.6,11A21.79,21.79,0,0,0,396,468Z"/><path class="cls-14" d="M555.2,173.36a3.73,3.73,0,0,0-1,1.12,4.4,4.4,0,0,0,.31,4.92,4.09,4.09,0,0,0,4.74,1.12,4.75,4.75,0,0,0,2.5-4.28,3.75,3.75,0,0,0-.22-1.41C560.68,172.61,557,172.07,555.2,173.36Z"/><path class="cls-14" d="M555.2,231.22a3.73,3.73,0,0,0-1,1.12,4.4,4.4,0,0,0,.31,4.92,4.09,4.09,0,0,0,4.74,1.12,4.75,4.75,0,0,0,2.5-4.28,3.75,3.75,0,0,0-.22-1.41C560.68,230.47,557,229.94,555.2,231.22Z"/><path class="cls-14" d="M555.2,286.14a3.86,3.86,0,0,0-1,1.12,4.4,4.4,0,0,0,.31,4.92,4.09,4.09,0,0,0,4.74,1.13,4.76,4.76,0,0,0,2.5-4.29,3.75,3.75,0,0,0-.22-1.41C560.68,285.4,557,284.86,555.2,286.14Z"/><path class="cls-14" d="M555.2,342.44a3.73,3.73,0,0,0-1,1.12,4.4,4.4,0,0,0,.31,4.92,4.09,4.09,0,0,0,4.74,1.12,4.75,4.75,0,0,0,2.5-4.28,3.75,3.75,0,0,0-.22-1.41C560.68,341.69,557,341.16,555.2,342.44Z"/><path class="cls-14" d="M555.2,396.5a3.77,3.77,0,0,0-1,1.13,4.38,4.38,0,0,0,.31,4.91,4.07,4.07,0,0,0,4.74,1.13,4.76,4.76,0,0,0,2.5-4.29,3.79,3.79,0,0,0-.22-1.41C560.68,395.76,557,395.22,555.2,396.5Z"/><path class="cls-15" d="M555.2,452.77a3.73,3.73,0,0,0-1,1.12,4.4,4.4,0,0,0,.31,4.92,4.09,4.09,0,0,0,4.74,1.12,4.75,4.75,0,0,0,2.5-4.28,3.75,3.75,0,0,0-.22-1.41C560.68,452,557,451.48,555.2,452.77Z"/><path class="cls-16" d="M676.91,791.55C662.51,762,629.44,744.16,600.05,733c-31.36-11.91-64.64-17.4-97.17-25.06-27.78-6.53-67.81-14.4-76.77-46.37-9.6-34.2,33.49-43.6,57.8-47.66,34.79-5.8,70.47-8.85,98.84-32,11.91-9.74,21.26-23.2,24.74-38.31,4.33-18.83,2-39.61.2-58.65-1-10.17-2.26-20.31-3.72-30.43-1.51-10.44-19.89-8.08-18.59,2.52,2.37,19.19,4,38.55,4.58,57.89.51,15.87-.84,31.22-11.48,43.79C557,584,522,588.45,491.19,593c-30.07,4.48-69.94,10.31-82.9,42.55-6,14.91-2.91,32.06,5,45.65,8.28,14.25,22,24.42,36.86,31,30.35,13.49,64.34,17.86,96.51,25.22,31.08,7.11,62.27,16.17,88.53,34.94C646.84,780.76,658.38,792,663,806c5.13,15.64-.26,32.61-6.87,47s-15.89,27.77-28.55,37.65S599.47,907,584.15,912c-71.22,23-147.68,20.55-222,18.86-9.43-.21-18.85-2.25-28.28-2.34-5.34,0-5.05,15.77,0,16.35,76.49,8.79,155.91,8.74,231.09-9.33,33-7.92,67.75-19.56,90-46.68C676.18,863,692.61,823.73,676.91,791.55Z"/><path class="cls-17" d="M316.69,607c3.46,8.67,7.14,17.28,9.91,26.23,8.18,26.51,8.07,55.13,5.1,82.87S323,771.25,320.16,799a44.34,44.34,0,0,1-16.16.24q.18-53.28-.81-106.55a33,33,0,0,0-.79-8,32.25,32.25,0,0,0-3.62-7.73l-54-93c-4.63-8-9.3-16-11.91-25s-2.94-19,1-27.38c6-13,21.56-19.38,35-16.32,15.46,3.53,25.45,15.17,28.24,30.76C300.76,567,308.87,587.44,316.69,607Z"/><path class="cls-17" d="M184.5,767.78a31.06,31.06,0,0,1-18.1-7.36c13.23-18.9,18.95-39.8,32.19-58.7,4.18-6,8.39-12,11.43-18.55,3.74-8,5.63-16.73,7.5-25.33,7.24-33.35,3-73.82,10.26-107.17.61-2.8,1.26-5.68,3-8,5-6.75,34.63,3.31,43.12,5,1.87.37,3.88.83,5,2.24,1.32,1.62,4.56-2.28,4.36-.23-1.65,16.85,1.23,9.5-3,36-1.51,9.33-16.44,68.47-20.1,77.27-6.47,15.56-14.83,31.55-26.56,44.12C215.54,726.42,203.09,744.5,184.5,767.78Z"/><path class="cls-18" d="M190.65,766.74c2.22,2.85-1.53,7.56.66,10.32,3.55,4.51,11.45,2.63,14.93,7.21a10.45,10.45,0,0,1,1.76,5.28,26.05,26.05,0,0,1-.82,9.7,4.63,4.63,0,0,1-.79,1.73,3.8,3.8,0,0,1-1.41,1,12.85,12.85,0,0,1-9.87-.18,38.64,38.64,0,0,1-8.61-5.32l-28-20.91a2.94,2.94,0,0,1-1.11-1.21,3,3,0,0,1,0-1.78c1-4.22,3.24-8,5.44-11.71,1.79-3,3.58-6.05,5.51-9C168.34,751.86,183.4,757.43,190.65,766.74Z"/><path class="cls-18" d="M326.37,798.48c2.91.6,2.1,5.75,4.56,7.22,2.07,1.23,4.55,1.39,6.93,1.51l9.19.48c2.12.11,4.42.3,6,1.82,1.73,1.69,1.94,4.45,2,6.94s.15,5.4-1.33,7.49c-2,2.83-5.86,3.11-9.2,3.09-11.84-.07-29.61-.79-41.4-1.76-1.4-.11-3-.36-3.72-1.61a5,5,0,0,1-.39-2.77l1.09-21.71S316.72,796.52,326.37,798.48Z"/><path class="cls-19" d="M284,419.07c7.7,1.89,14.27,6.91,19.86,12.52s10.47,11.93,16.27,17.33c2.46,2.29,5.22,4.48,8.51,5.14a20.92,20.92,0,0,0,8-.49l36.17-6.95c5.16-1,10.44-2,15.64-1.26q.53,5.89,1,11.81a1.56,1.56,0,0,1-1.44,2l-46.13,12.5c-8.66,2.35-17.37,4.71-26.3,5.53a12.79,12.79,0,0,1-5.34-.32,13.28,13.28,0,0,1-4.07-2.59c-13.51-11.22-25-24.66-36.39-38-1.79-2.11-3.66-4.36-4.1-7.09C264.33,420.94,278.14,417.64,284,419.07Z"/><path class="cls-5" d="M452.14,439.66a261.51,261.51,0,0,0,27.76-8.52,3.13,3.13,0,0,0,1.61-1,2.21,2.21,0,0,0,.31-1.15,8.25,8.25,0,0,0-.41-2.55c-1.07-4-2.14-8-3.55-11.91a5.22,5.22,0,0,0-.93-1.76,3.54,3.54,0,0,0-2.69-1,10.16,10.16,0,0,0-2.86.66l-18.91,6.27a73.24,73.24,0,0,0-9.18,3.51,1.57,1.57,0,0,0-.61.43,1.45,1.45,0,0,0-.22.6,10.93,10.93,0,0,0,.16,3.82c.44,2.64.95,5.27,1.56,7.88a14,14,0,0,0,1.21,3.64c.48.88,1.64,2.5,2.79,2.47.51,0,1.21-.58,1.69-.76A20.21,20.21,0,0,1,452.14,439.66Z"/><path class="cls-9" d="M468.66,417.11l5.8-1.94,1.12-.4c.43-.16.38-.22.37-.25-.12-.29-.14-.42-.32-.82-.06-.12,0-.22-.17-.24a1.22,1.22,0,0,0-.49.07c-.48.12-1.75.55-2.39.77-3,1-5.93,2-8.92,3l-.61.22c-.45.17-.56.31-.54.35a6.31,6.31,0,0,1,.21.8,1.21,1.21,0,0,0,.07.2c0,.05-.08.19.37.08s2.24-.73,2.75-.9Z"/><path class="cls-9" d="M469.54,419.72c2.06-.7,3.73-1.24,5.79-2,.25-.08.92-.31,1.12-.39.43-.17.38-.22.37-.26-.12-.29-.14-.42-.32-.82-.06-.11.05-.22-.17-.24a1.89,1.89,0,0,0-.49.07c-.48.13-1.75.56-2.39.77-3,1-5.93,2-8.92,3l-.61.21c-.45.18-.56.32-.54.36a4.72,4.72,0,0,1,.21.8c0,.06,0,.1.07.2s-.08.18.38.07,2.23-.73,2.75-.9Z"/><path class="cls-9" d="M470.39,422.26l5.79-1.94,1.13-.4c.43-.16.38-.22.36-.26-.11-.28-.14-.41-.32-.81-.05-.12,0-.22-.17-.24a1.31,1.31,0,0,0-.48.06c-.49.13-1.76.56-2.39.77-3,1-5.94,2-8.93,3l-.61.22c-.45.17-.55.31-.53.35a6.24,6.24,0,0,1,.2.8,2.05,2.05,0,0,0,.08.2c0,.05-.09.19.37.07s2.24-.72,2.75-.9Z"/><path class="cls-9" d="M471.26,424.86l5.8-1.94,1.12-.39c.43-.17.38-.22.36-.26-.11-.29-.14-.42-.32-.82-.05-.12,0-.22-.17-.24a1.19,1.19,0,0,0-.48.07c-.49.12-1.75.55-2.39.77-3,1-5.93,2-8.93,3l-.61.22c-.45.17-.55.31-.53.35a6.68,6.68,0,0,1,.2.8l.08.2c0,.05-.09.19.37.08s2.24-.73,2.75-.9Z"/><path class="cls-20" d="M279.41,411.66c5.16-.14,11.35.2,14,4.64a14.51,14.51,0,0,1,1.53,5.48c1.15,8.12,2.3,16.26,2.74,24.45.55,10.3,0,20.63.48,30.93,1.15,23,7.74,45.31,13.32,67.65,1.7,6.81,3.33,13.84,2.29,20.78a7.6,7.6,0,0,1-1,3.2,8.73,8.73,0,0,1-3.18,2.51,140.65,140.65,0,0,1-85.19,16.3c-3.54-.45-7.24-1.11-10.06-3.3-3.2-2.5-4.73-6.53-5.88-10.42-6-20.3-5.62-42-2-62.89s10.5-41,17.31-61l11.91-35c4-11.71,7.31-12,17.51-7.22C261.36,411.61,270.52,411.9,279.41,411.66Z"/><path class="cls-13" d="M252.66,395.91c3.49,4.34,8.67,6.9,13.68,9.32,4.09,2,8.45,4,13,3.55,7.86-.79,12.9-8.48,16.78-15.37,5.82-10.32,11.8-21.22,11.93-33.08a35.45,35.45,0,0,0-43.83-34.85c-12.57,3-27.14,11.87-24,26.44,1.42,6.59,3.84,12.83,5,19.52C246.61,379.62,247.25,389.18,252.66,395.91Z"/><path class="cls-16" d="M427.91,430.71c-34.71,6.79-69.3,18-99.32,37.08a191.07,191.07,0,0,0-40.3,33.61c-12.63,14.12-18,28.23-27.52,44.49-19.12,32.67-35.64,62.86-66.19,90.64-29.57,26.89-68.24,43.76-107,51.52-11.49,2.3-7.76,18.16,3.66,16,75.6-14.36,135.14-69.12,176.55-131.46,10.69-16.08,19-33.61,30-49.5a159,159,0,0,1,36.31-37.27C362.9,464.51,397,451.94,432,445.39,446.91,442.6,442.83,427.79,427.91,430.71Z"/><path class="cls-5" d="M463.1,436.81c-.44-4.49-3.48-8.29-4.67-12.64-.91-3.33-1.1-7.5-4.15-9.12-2.22-1.19-4.94-.35-7.32.45q-5.79,2-11.69,3.53c-15.08,4.05-30.7,6.25-45.35,11.68l1.11,3.21c-3.35.9-6.68,1.89-9.94,3.1l.5,1.44c-1.27.46-2.52.94-3.75,1.48-2.56,1.14-5.31,2.87-5.72,5.63a9.16,9.16,0,0,0,1,4.7c2,4.94,3.19,14.3,9.95,11.41,1.74-.74,3.67-1.62,5.68-2.47.16.44.31.87.46,1.31a1.4,1.4,0,0,0,.5.8,1.42,1.42,0,0,0,1,.07,77.68,77.68,0,0,0,9-2.36c.14.41.29.83.43,1.25a1.78,1.78,0,0,0,.63,1,1.76,1.76,0,0,0,1.26.08c11.3-2.12,21.87-7,32.83-10.47,8.2-2.59,16.67-4.4,24.51-7.92a7.37,7.37,0,0,0,2.63-1.7A5.91,5.91,0,0,0,463.1,436.81Z"/><path class="cls-21" d="M402.27,443.07a4,4,0,0,0,2.23-2.22,5.21,5.21,0,0,0-.16-2.84,43,43,0,0,0-3.89-9.82,1.8,1.8,0,0,0-.52-.66,1.27,1.27,0,0,0-.92-.11,7.35,7.35,0,0,0-3.14,1.46c-.95.74-.74,1.22-.27,2.43q2.1,5.46,4.19,10.91a2.3,2.3,0,0,0,.54.94C400.86,443.63,401.65,443.39,402.27,443.07Z"/><path class="cls-21" d="M408.12,440.38a1.28,1.28,0,0,0,.26.49,1,1,0,0,0,.91.16,5.76,5.76,0,0,0,2.34-.79,2.9,2.9,0,0,0,1.34-2.19,4.92,4.92,0,0,0-.48-2.09q-1.89-4.77-3.77-9.53a2.43,2.43,0,0,0-.83-1.25c-.86-.52-3.06.48-3.75,1.14-1.05,1,0,2.63.4,3.81C405.74,433.55,406.9,437,408.12,440.38Z"/><path class="cls-21" d="M417.16,437.59a1.09,1.09,0,0,0,.24.48,1,1,0,0,0,.93.2,6.23,6.23,0,0,0,2.44-.65,2.82,2.82,0,0,0,1.48-2.06,4.51,4.51,0,0,0-.4-2l-3.45-9.42a2.28,2.28,0,0,0-.79-1.25c-.86-.54-3.17.31-3.91.92-1.12.93-.13,2.55.24,3.71C415,430.85,416.06,434.23,417.16,437.59Z"/><path class="cls-21" d="M425.32,434.75a1.17,1.17,0,0,0,.21.45,1,1,0,0,0,.85.19,5.75,5.75,0,0,0,2.23-.61,2.64,2.64,0,0,0,1.35-1.9,4.21,4.21,0,0,0-.37-1.88c-1-2.9-2.09-5.79-3.13-8.69a2.15,2.15,0,0,0-.72-1.15c-.78-.5-2.89.29-3.56.86-1,.85-.12,2.35.22,3.41C423.37,428.54,424.32,431.66,425.32,434.75Z"/><path class="cls-21" d="M406.43,445.92a2.57,2.57,0,0,0-.78-1.33c-.86-.57-3.15.35-3.89,1-1.11,1-.13,2.72.23,4,1.05,3.58,2.08,7.18,3.15,10.76a1.55,1.55,0,0,0,.24.52,1,1,0,0,0,.92.21,5.94,5.94,0,0,0,2.43-.71,3,3,0,0,0,1.47-2.2,5,5,0,0,0-.39-2.18Z"/><path class="cls-21" d="M414.83,443.5a2.47,2.47,0,0,0-.81-1.29c-.88-.56-3.23.33-4,1-1.14.95-.13,2.62.24,3.81,1.09,3.47,2.15,6.95,3.27,10.41a1.37,1.37,0,0,0,.24.5,1.13,1.13,0,0,0,.95.21,6.33,6.33,0,0,0,2.49-.68,2.92,2.92,0,0,0,1.51-2.12,4.85,4.85,0,0,0-.41-2.11Q416.58,448.35,414.83,443.5Z"/><path class="cls-21" d="M423.66,440.39a2.5,2.5,0,0,0-.83-1.29c-.9-.55-3.31.32-4.08.95-1.16.95-.13,2.62.26,3.81,1.12,3.45,2.21,6.93,3.36,10.37a1.28,1.28,0,0,0,.25.51,1.13,1.13,0,0,0,1,.2,6.44,6.44,0,0,0,2.55-.67,2.91,2.91,0,0,0,1.54-2.11,4.65,4.65,0,0,0-.42-2.1Z"/><path class="cls-21" d="M436.08,447q-1.86-4.57-3.73-9.14a2.26,2.26,0,0,0-.86-1.21c-.92-.53-3.39.29-4.18.88-1.2.89-.13,2.46.27,3.58,1.17,3.27,2.3,6.55,3.5,9.81a1.09,1.09,0,0,0,.26.47,1.27,1.27,0,0,0,1,.2,7.23,7.23,0,0,0,2.61-.62,2.78,2.78,0,0,0,1.58-2A4.07,4.07,0,0,0,436.08,447Z"/><g class="cls-22"><path class="cls-23" d="M499.85,426.69c-2.31-7.8-5.1-18-8.2-25.49-4.77.18-9.45,1.42-14.09,2.65l-19,5c-4.71,1.25-18.94,3.61-20.46,9.3-.8,3,2.43,9.25,3.29,12.17q2.08,7,4.16,14c.44,1.5,1,3.17,2.43,3.8a5.3,5.3,0,0,0,3.67-.19c15.29-4.53,30.41-7.37,45.16-13.55a6.52,6.52,0,0,0,2.87-1.88C500.91,430.89,500.42,428.61,499.85,426.69Z"/><path class="cls-23" d="M443.7,409.51a4.49,4.49,0,0,1,1-1.09,106,106,0,0,1,22-14.57,1.1,1.1,0,0,1,1.46.07c.89.68.5,1.44,1.37,2.16.27.23.58.57.44.9a.88.88,0,0,1-.38.36c-6.58,4.08-12.06,7.83-19,11.37a1.06,1.06,0,0,0-.72,1.39l.36,2.57a1,1,0,0,1-.07.66.93.93,0,0,1-.67.3c-1.07.18-4,1.17-4.66.35S443.21,410.32,443.7,409.51Z"/></g><path class="cls-13" d="M293,542.38a11.73,11.73,0,0,0-6-8.3c1.12-.33,2.51-1.11,2.21-2.23-.19-.71-1-1-1.64-1.32a23.46,23.46,0,0,1-7.73-5.16l-.61-.61h0a339.39,339.39,0,0,1-33.82-47.19c4.05-4.59,6.82-10.14,9.55-15.63q5.88-11.83,11.77-23.69c1.51-3,3.05-6.4,2.19-9.67-1.5-5.76-9.81-7.12-14.79-3.86s-7.37,9.2-9.47,14.77q-8.22,21.87-16.45,43.73c-.63,1.67-1.26,3.49-.75,5.2a8.36,8.36,0,0,0,2.47,3.36c13.66,13.13,22,24.58,35.63,37.72.46-1.72,2.15,3.67,2.19,3.65,3.94,6.58,11.52,13.54,19,15.17.8.18,4-1.1,4.75-1.46S292.69,543.1,293,542.38Z"/><path class="cls-19" d="M281.29,514.18c-.07-3.39-6-4.95-5.11-8.23l-7.58,4.64-12.66-25a21.15,21.15,0,0,1-2.38-6.32c-.54-3.76,1-7.48,2.49-11a277.93,277.93,0,0,1,17.19-32.68c2.06-3.35,5.69-8,4-12.2-1.48-3.59-6.58-7-9.91-8.39a14.58,14.58,0,0,0-11.86,0c-4.86,2.33-7.57,7.52-9.94,12.37-6.15,12.54-12.29,25.08-17.66,38-2.94,7-5.66,14.29-6.31,21.89-.24,2.83-.16,5.81,1.17,8.31a18,18,0,0,0,3.94,4.59l26.86,25a1.93,1.93,0,0,1,.81,1.36c0,.67-.66,1.11-1.07,1.64a3.41,3.41,0,0,0,.31,4,10,10,0,0,0,3.51,2.51,178.62,178.62,0,0,1,21-16.26C279.59,517.34,281.32,516,281.29,514.18Z"/><path class="cls-24" d="M304.42,344.1c-3,.36-15.22,1.2-18.28,1.09s-6.71,0-7.94,2.68a11.84,11.84,0,0,1-.69,1.64c-1.2,1.82-3.95,1-6.11,1.22-2.93.3-5.18,2.92-6.06,5.73s-.67,5.82-.6,8.77,0,6-1.42,8.61a5.1,5.1,0,0,0-5.94-1.2c-1.91,1-2.61,4-1.1,5.53.67.69,1.61,1,2.34,1.66,2.12,1.85,1.62,5.17,1.39,8a26.29,26.29,0,0,0,4.26,16.58c-4,.14-6.4-5.33-10.4-5.37-1.08,0-2.21.39-3.22,0a3.71,3.71,0,0,1-1.56-1.41c-2.44-3.36-3.63-7.63-6.66-10.46-2.41-2.26-5.77-3.37-8-5.84-3.08-3.46-3.14-8.69-5.53-12.65-1.85-3-5-5.16-6.72-8.24-1.84-3.23-2-7.17-1.47-10.85a34.08,34.08,0,0,1,3.62-11.16c2.81-5.3,7-9.75,11.06-14.12a51.44,51.44,0,0,1,9.05-8.22,27.7,27.7,0,0,1,14.4-4.34c5.46-.14,10.85,1.21,16.09,2.76,7.08,2.1,23.17,3.88,30,6.75,3.22,1.35,6.5,2.85,8.91,5.4C321.8,335,313.24,343,304.42,344.1Z"/><path class="cls-16" d="M1059,612.47c-19.82-.89-37.88-1.54-46.16-20.4-8-18.29-7.84-39-3.9-58,4.49-21.57,10.8-43.44,8.09-65.68-2.3-18.85-10.38-37.27-26.85-47.82-17.35-11.11-39.95-10.87-59.36-6.38a117.86,117.86,0,0,0-51.58,27.06A114.6,114.6,0,0,0,859.81,464c-5.57,8.53-10,18.08-17.11,25.49-6.94,7.22-14.92,10.24-24.88,8.33-9.26-1.78-19.35-4.81-27.1-10.36-20.54-14.71-7-45.68-9.09-66.22a54.47,54.47,0,0,0-13.75-31.39c-6.85-7.57-18-11.32-23.61-19.92-5.78-8.95-20.18-.61-14.34,8.38,5.55,8.55,14,12.68,21.71,18.9a37.12,37.12,0,0,1,13.52,24.16c2.83,22.54-8.42,45.78,4.21,67C774.48,497,782.78,503,791.81,507c9.64,4.23,20.41,7.69,31,8.17,24,1.09,37.28-19.36,48.08-37.48,10.29-17.25,24.39-31,42.38-40.14,16.8-8.53,38-13.41,56.58-8.72,19.39,4.88,29.51,21.67,32.07,40.6,3,22.37-4.32,44.62-7.93,66.47-3.65,22.11-4.5,47,8.26,66.54,12.48,19.12,34.61,26.89,56.76,24.6C1062.32,626.68,1062.45,612.63,1059,612.47Z"/><path class="cls-5" d="M694.33,315.55a245.72,245.72,0,0,0-18.77-19.95,2.87,2.87,0,0,0-1.53-.93,2.08,2.08,0,0,0-1.1.2,8.18,8.18,0,0,0-2,1.42c-2.94,2.57-5.88,5.14-8.59,8a4.56,4.56,0,0,0-1.1,1.52,3.29,3.29,0,0,0,.3,2.68,10.2,10.2,0,0,0,1.74,2.14L676.47,324a68.75,68.75,0,0,0,6.8,6.31,1.35,1.35,0,0,0,.62.34,1.47,1.47,0,0,0,.59-.06,10.65,10.65,0,0,0,3.17-1.73q3.08-2.21,6-4.6a13.55,13.55,0,0,0,2.58-2.55c.54-.77,1.43-2.43.93-3.39-.23-.43-1-.78-1.35-1.11A16.78,16.78,0,0,1,694.33,315.55Z"/><path class="cls-9" d="M668.37,311c-1.45-1.46-2.61-2.64-4.06-4.09-.17-.18-.65-.65-.8-.79-.32-.29-.35-.23-.37-.2-.2.22-.3.29-.56.61-.08.09-.21,0-.13.24a1,1,0,0,0,.26.39c.3.36,1.2,1.25,1.64,1.7,2.12,2.13,4.14,4.2,6.25,6.31l.44.42c.34.31.5.34.52.31.2-.25.39-.3.6-.51l.13-.14s.2,0-.09-.35-1.55-1.59-1.9-2Z"/><path class="cls-9" d="M670.21,309.13l-4.06-4.1-.8-.78c-.32-.3-.35-.23-.37-.2a7.48,7.48,0,0,0-.56.61c-.08.09-.21,0-.13.24a1,1,0,0,0,.26.38c.3.36,1.2,1.26,1.64,1.71,2.12,2.12,4.14,4.2,6.26,6.3l.43.43c.34.31.5.34.53.31.2-.25.38-.3.59-.51l.14-.15s.19,0-.1-.34-1.55-1.6-1.9-2C671.49,310.43,670.85,309.78,670.21,309.13Z"/><path class="cls-9" d="M672,307.35l-4.06-4.1-.8-.78c-.32-.3-.35-.23-.37-.2a7.48,7.48,0,0,0-.56.61c-.08.09-.21.05-.13.24a1.19,1.19,0,0,0,.25.38c.31.36,1.2,1.25,1.65,1.7,2.11,2.13,4.14,4.21,6.25,6.31l.44.43c.34.31.5.34.52.3a5.68,5.68,0,0,1,.6-.5l.13-.15s.2,0-.09-.35-1.55-1.59-1.9-1.95Z"/><path class="cls-9" d="M673.85,305.53c-1.45-1.46-2.61-2.65-4.06-4.1-.17-.18-.65-.64-.8-.79-.32-.29-.35-.23-.37-.2-.2.22-.3.3-.56.61-.08.1-.21.05-.13.25a1.12,1.12,0,0,0,.26.38c.3.36,1.19,1.25,1.64,1.7,2.12,2.13,4.14,4.2,6.25,6.31l.44.43c.34.3.5.33.52.3.2-.25.39-.3.6-.51l.13-.14s.2,0-.09-.35-1.55-1.59-1.9-1.95Z"/><path class="cls-5" d="M687.36,307.46c-3.62,2.24-5.57,6.4-8.76,9.22-2.44,2.16-5.89,4.05-6,7.31-.08,2.37,1.76,4.32,3.44,6q4.05,4.08,7.85,8.42c9.7,11.08,18.08,23.38,28.77,33.52l2.26-2.27c2.15,2.46,4.38,4.86,6.76,7.12l1-1c.91.88,1.85,1.74,2.82,2.56,2,1.69,4.63,3.3,7.15,2.5a8.78,8.78,0,0,0,3.56-2.8c3.35-3.75,10.77-8.65,5.51-13.18-1.35-1.16-2.9-2.43-4.46-3.78l.93-.93a1.34,1.34,0,0,0,.47-.75,1.31,1.31,0,0,0-.37-.88,66.91,66.91,0,0,0-5.74-6.62c.3-.3.59-.6.89-.89a1.81,1.81,0,0,0,.59-1,1.71,1.71,0,0,0-.46-1.1c-6.5-8.68-15-15.59-22.54-23.43-5.6-5.86-10.67-12.28-16.91-17.44a6.76,6.76,0,0,0-2.54-1.52A5.54,5.54,0,0,0,687.36,307.46Z"/><path class="cls-21" d="M718,356.34a3.82,3.82,0,0,0-2.81-1,4.84,4.84,0,0,0-2.33,1.32,40.37,40.37,0,0,0-6.7,7.39,1.69,1.69,0,0,0-.34.7,1.16,1.16,0,0,0,.29.83,7,7,0,0,0,2.54,2.05c1,.5,1.34.12,2.18-.78l7.49-8.1a2.11,2.11,0,0,0,.56-.84C719.05,357.3,718.52,356.74,718,356.34Z"/><path class="cls-21" d="M713.28,352.51a1.39,1.39,0,0,0,.31-.42,1,1,0,0,0-.25-.84,5.49,5.49,0,0,0-1.64-1.65,2.74,2.74,0,0,0-2.42-.22,4.56,4.56,0,0,0-1.56,1.27l-6.5,7.17a2.28,2.28,0,0,0-.72,1.22c-.07.94,1.68,2.39,2.54,2.7,1.28.46,2.23-1.09,3.05-1.93C708.48,357.38,710.9,355,713.28,352.51Z"/><path class="cls-21" d="M707.15,346a1.24,1.24,0,0,0,.31-.41,1,1,0,0,0-.22-.87,5.77,5.77,0,0,0-1.57-1.8,2.65,2.65,0,0,0-2.36-.39,4.12,4.12,0,0,0-1.56,1.19l-6.54,6.84a2.25,2.25,0,0,0-.73,1.19c-.1,1,1.59,2.56,2.42,2.93,1.25.56,2.21-1,3-1.75C702.34,350.65,704.76,348.36,707.15,346Z"/><path class="cls-21" d="M701.35,340.3a1,1,0,0,0,.29-.37.88.88,0,0,0-.2-.8A5.33,5.33,0,0,0,700,337.5a2.52,2.52,0,0,0-2.18-.35,4,4,0,0,0-1.44,1.1l-6,6.26a2.1,2.1,0,0,0-.67,1.09c-.1.87,1.45,2.32,2.21,2.66,1.15.5,2-.88,2.8-1.61C696.9,344.53,699.15,342.43,701.35,340.3Z"/><path class="cls-21" d="M718.67,351.64a2.35,2.35,0,0,0-.8,1.21c-.13,1,1.6,2.52,2.46,2.87,1.31.53,2.36-1,3.25-1.83,2.6-2.39,5.22-4.75,7.8-7.15a1.5,1.5,0,0,0,.34-.42,1,1,0,0,0-.21-.87,5.52,5.52,0,0,0-1.61-1.76,2.87,2.87,0,0,0-2.48-.33,4.83,4.83,0,0,0-1.67,1.24Z"/><path class="cls-21" d="M713.12,345.54a2.24,2.24,0,0,0-.75,1.21c-.11,1,1.62,2.6,2.47,3,1.28.57,2.27-1,3.13-1.8,2.48-2.36,5-4.71,7.44-7.1a1.17,1.17,0,0,0,.33-.41,1.07,1.07,0,0,0-.22-.89,6,6,0,0,0-1.61-1.83,2.8,2.8,0,0,0-2.43-.39,4.56,4.56,0,0,0-1.61,1.22Z"/><path class="cls-21" d="M706.81,339.36a2.27,2.27,0,0,0-.74,1.23c-.1,1,1.65,2.67,2.5,3.06,1.29.59,2.27-1,3.11-1.8,2.47-2.39,5-4.76,7.39-7.17a1.1,1.1,0,0,0,.32-.42,1.07,1.07,0,0,0-.23-.91,6.1,6.1,0,0,0-1.63-1.87,2.75,2.75,0,0,0-2.43-.43,4.44,4.44,0,0,0-1.6,1.23Z"/><path class="cls-21" d="M707.19,326.11l-6.18,7a2.21,2.21,0,0,0-.67,1.23c-.06,1,1.66,2.76,2.49,3.18,1.25.64,2.14-.92,2.92-1.73,2.28-2.35,4.58-4.67,6.84-7a1.21,1.21,0,0,0,.3-.41,1.23,1.23,0,0,0-.25-.93,6.85,6.85,0,0,0-1.62-2,2.58,2.58,0,0,0-2.34-.5A3.82,3.82,0,0,0,707.19,326.11Z"/><g class="cls-22"><path class="cls-23" d="M663.49,280.57c-5.64,5.2-13.11,11.8-18.16,17.55a61.08,61.08,0,0,0,8.1,10.82q6.08,7,12.16,14c3,3.46,10.94,14.53,16.4,13.45,2.87-.57,6.81-5.91,8.92-7.86L701,319.15c1.08-1,2.25-2.19,2.2-3.64a5,5,0,0,0-1.69-3c-10.2-11.05-18.9-22.67-30.27-32.58a6.11,6.11,0,0,0-2.79-1.65C666.6,277.92,664.88,279.28,663.49,280.57Z"/><path class="cls-23" d="M672.33,335.25a4.21,4.21,0,0,1-1.34-.39,99.85,99.85,0,0,1-21.5-12.57,1.28,1.28,0,0,1-.57-.69,1.38,1.38,0,0,1,0-.57c.21-1,1-1,1.26-2.06.08-.33.24-.73.58-.75a.81.81,0,0,1,.46.17c6.19,3.88,11.65,6.95,17.52,11.31a1.41,1.41,0,0,0,.73.34,1.32,1.32,0,0,0,.74-.31l2-1.37a.87.87,0,0,1,.59-.22.91.91,0,0,1,.53.44c.6.83,2.66,2.91,2.24,3.8S673.22,335.32,672.33,335.25Z"/></g><path class="cls-3" d="M813.89,280.27c4.11.84,8.32,3,9.87,6.94,1,2.54.73,5.38.43,8.1-2.05,18.81-4.1,37.64-7.51,56.24-.61,3.29-1.28,6.65-3,9.5-2,3.24-5.17,5.53-8.27,7.73l-15.25,10.83c-4.6,3.27-14.62,8.36-19.7,10.86-.45.22-.82.39-1.14.53a35.72,35.72,0,0,1-4.22,3.08l-4.87,3.7a9.62,9.62,0,0,1-4,2.15,5.37,5.37,0,0,1-5.6-3.17,6.52,6.52,0,0,1,1-6.52c.68-.84,1.62-1.71,1.46-2.78a6,6,0,0,1-.15-.83c0-.66.65-1.12,1.23-1.45a46.57,46.57,0,0,1,9.11-4l.46-.14c.36-.27.82-.59,1.42-1,5-3.41,14.43-11.91,19.43-15.32s10.2-7.12,12.14-12.78c1.24-3.61,1-7.53.73-11.33a340.56,340.56,0,0,1,0-41.9,35.15,35.15,0,0,1,1.82-10.6c1.31-3.35,3.78-6.43,7.18-7.63A14,14,0,0,1,813.89,280.27Z"/><path class="cls-4" d="M780,385.75c.19.33.41.69.78.77a1.4,1.4,0,0,0,1-.3L799,375.51c7.56-4.69,15.6-9.93,18.84-18.22,1.59-4.05,1.87-8.49,2.17-12.83a348.74,348.74,0,0,1,4.25-36.76,78.15,78.15,0,0,0,1.7-13.24,59.17,59.17,0,0,0-1.31-11.32,8.67,8.67,0,0,0-1.11-3.35,7.8,7.8,0,0,0-3.68-2.6,26.27,26.27,0,0,0-15.28-1.36,12.36,12.36,0,0,0-5.56,2.44c-4.09,3.49-3.73,9.76-3.48,15.13a93,93,0,0,1-1.08,19c-.69,4.31-1.69,8.6-1.61,13a91.63,91.63,0,0,0,1.32,10.52,63.11,63.11,0,0,1,.39,13.53,11.56,11.56,0,0,1-.87,4,12.6,12.6,0,0,1-3.65,4.05c-5,4.13-11.22,8-15.53,12.85-2.62,2.93-1.35,3.49.64,7Z"/></g></svg>