<svg width="60" height="60" viewBox="0 0 60 60" fill="none" xmlns="http://www.w3.org/2000/svg">
<path d="M40.7735 54H19.2261C19.1237 53.9941 19.0365 53.924 19.0085 53.8254C18.9805 53.7267 19.018 53.6213 19.102 53.5626L20.9069 52.2897C22.8775 50.8531 23.7858 48.3689 23.2067 46H36.7944L36.7939 46.0018C36.215 48.3711 37.1242 50.8556 39.0956 52.2917L40.899 53.5626C40.9825 53.6218 41.0196 53.7273 40.9914 53.8257C40.963 53.9243 40.8757 53.9941 40.7735 54Z" fill="#D4E1F4"/>
<path d="M40.8989 53.5627L39.0955 52.2917C37.1242 50.8556 36.215 48.3711 36.7939 46.0018L36.7944 46H33.7945L33.794 46.0018C33.2151 48.3711 34.1242 50.8556 36.0957 52.2917L37.8991 53.5627C37.9826 53.6219 38.0195 53.7275 37.9913 53.8259C37.9631 53.9243 37.8757 53.9941 37.7735 54H40.7735C40.8757 53.9941 40.963 53.9243 40.9913 53.8259C41.0195 53.7275 40.9824 53.6219 40.8989 53.5627Z" fill="#7FACFA"/>
<path d="M19.101 53.5627L20.9044 52.2917C22.8758 50.8556 23.7849 48.3711 23.2061 46.0018L23.2056 46H26.2056L26.206 46.0018C26.7849 48.3711 25.8758 50.8556 23.9044 52.2917L22.1009 53.5627C22.0174 53.6219 21.9805 53.7275 22.0087 53.8259C22.0369 53.9243 22.1243 53.9941 22.2265 54H19.2265C19.1243 53.9941 19.037 53.9243 19.0087 53.8259C18.9805 53.7275 19.0174 53.6219 19.101 53.5627Z" fill="white"/>
<path d="M55.5016 2H52.5016C54.4337 2 56 3.56622 56 5.49832V42.5016C56 44.4337 54.4337 45.9999 52.5016 46H55.5016C57.4337 46 58.9999 44.4337 58.9999 42.5016V5.49832C58.9999 3.56622 57.4337 2 55.5016 2Z" fill="#7FACFA"/>
<path d="M4.49838 2H7.49834C5.56624 2 4.00002 3.56622 4.00002 5.49832V42.5016C4.00002 44.4337 5.56624 46 7.49834 46H4.49838C2.56628 46 1.00006 44.4337 1.00006 42.5016V5.49832C1.00006 3.56622 2.56628 2 4.49838 2Z" fill="white"/>
<path d="M18.9966 54.0002H40.9966C42.1012 54.0002 42.9966 54.8957 42.9966 56.0003C42.9966 57.1048 42.1012 58.0003 40.9966 58.0003H18.9966C17.892 58.0003 16.9966 57.1048 16.9966 56.0003C16.9967 54.8956 17.892 54.0002 18.9966 54.0002Z" fill="#D4E1F4"/>
<path d="M40.9999 54H38C39.1045 54 40 54.8955 40 56C40 57.1046 39.1045 58 38 58H40.9999C42.1045 58 43 57.1046 43 56C43 54.8955 42.1045 54 40.9999 54Z" fill="#7FACFA"/>
<path d="M18.9999 54H21.9999C20.8953 54 19.9999 54.8955 19.9999 56C19.9999 57.1046 20.8953 58 21.9999 58H18.9999C17.8954 58 16.9999 57.1046 16.9999 56C16.9999 54.8955 17.8954 54 18.9999 54Z" fill="white"/>
<path d="M40.7733 55.0001H19.2256C18.689 54.9997 18.2153 54.6497 18.0575 54.1368C17.8916 53.6184 18.0833 53.0525 18.5302 52.7417L20.331 51.4722C21.9667 50.2701 22.7174 48.2013 22.2333 46.23L21.9433 45H38.0575L37.7675 46.2301C37.2835 48.2024 38.035 50.2721 39.6719 51.4742L41.4755 52.7452C41.9193 53.0584 42.1077 53.624 41.9404 54.1407C41.7813 54.6517 41.3085 54.9998 40.7733 55.0001ZM19.6845 54.375L19.6777 54.3799L19.6845 54.375ZM21.6308 53H38.37C36.5188 51.5795 35.496 49.3309 35.6415 47.002L24.3592 47.0001C24.5055 49.3297 23.4826 51.5792 21.6308 53Z" fill="#4487C0"/>
<path d="M55.5019 47H4.49803C2.0149 46.9971 0.00262109 44.9847 0 42.5015V5.49863C0.00262109 3.01538 2.0149 1.00298 4.49803 1H55.5019C57.985 1.00286 59.9973 3.01538 59.9999 5.49851V42.5014C59.9973 44.9847 57.9851 46.9971 55.5019 47ZM4.49803 3.00001C3.11898 3.0018 2.00156 4.11946 2.00001 5.49863V42.5015C2.00156 43.8806 3.11898 44.9982 4.49803 45H55.5019C56.8809 44.9982 57.9983 43.8806 57.9999 42.5015V5.49863C57.9983 4.11958 56.8809 3.00192 55.5019 3.00013H4.49803V3.00001Z" fill="#4487C0"/>
<path d="M60 39H0V5.49863C0.00262109 3.01538 2.01479 1.00286 4.49803 1H55.5019C57.985 1.00286 59.9973 3.01538 59.9999 5.49851L60 39ZM2.00001 37H58V5.49863C57.9984 4.11958 56.881 3.00192 55.502 3.00013H4.49803C3.11898 3.0018 2.00156 4.11946 2.00001 5.49863V37Z" fill="#4487C0"/>
<path d="M40.9999 58.9999H18.9999C17.343 58.9999 16 57.6567 16 56C16 54.3432 17.3432 53 18.9999 53H40.9999C42.6568 53 43.9999 54.3432 43.9999 56C43.9999 57.6567 42.6568 58.9999 40.9999 58.9999ZM18.9999 54.9999C18.4476 54.9999 18 55.4476 18 55.9998C18 56.5521 18.4477 56.9998 18.9999 56.9998H40.9999C41.5523 56.9998 41.9999 56.5521 41.9999 55.9998C41.9999 55.4476 41.5522 54.9999 40.9999 54.9999H18.9999Z" fill="#4487C0"/>
<path d="M29.9966 43.0001C30.5489 43.0001 30.9965 42.5524 30.9965 42.0002C30.9965 41.4479 30.5489 41.0002 29.9966 41.0002C29.4443 41.0002 28.9966 41.4479 28.9966 42.0002C28.9966 42.5524 29.4443 43.0001 29.9966 43.0001Z" fill="#4487C0"/>
<path d="M18.9999 33.0001C18.7347 33.0002 18.4802 32.8948 18.2927 32.7073C18.1052 32.5197 17.9999 32.2654 17.9999 32V7.00007C17.9999 6.44773 18.4476 6.00012 18.9998 6.00012C19.552 6.00012 19.9998 6.44785 19.9998 7.00007V32C19.9999 32.2652 19.8944 32.5197 19.7069 32.7073C19.5196 32.8948 19.2653 33.0001 18.9999 33.0001Z" fill="#4487C0"/>
<path d="M47.9999 30H16C15.4476 30 15 29.5523 15 29.0001C15 28.4477 15.4478 28.0001 16 28.0001H47.9999C48.5523 28.0001 48.9999 28.4479 48.9999 29.0001C49 29.5523 48.5523 30 47.9999 30Z" fill="#4487C0"/>
<path d="M30.9991 25.9999C30.8181 25.9999 30.6404 25.9507 30.4853 25.8573L26.1553 23.2592L23.7071 25.707C23.3166 26.0974 22.6835 26.0974 22.293 25.707C21.9024 25.3165 21.9026 24.6834 22.293 24.2929L25.2929 21.2929C25.6172 20.9681 26.1212 20.9061 26.5146 21.1426L30.7802 23.7017L35.2314 18.3599C35.4216 18.132 35.7031 18.0001 36 18.0001H41.5312L46.2314 12.36C46.5849 11.9355 47.2156 11.8781 47.6401 12.2316C48.0646 12.5851 48.1221 13.2158 47.7686 13.6403L42.7686 19.6403C42.5784 19.8684 42.2969 20.0001 42 20.0002H36.4688L31.7686 25.6404C31.5783 25.8685 31.2963 26.0004 30.9991 25.9999Z" fill="#4487C0"/>
<path d="M47 19.0001C46.7348 19.0002 46.4804 18.8947 46.2928 18.7072C46.1052 18.5197 45.9999 18.2653 45.9999 18V14.2197L42.1962 14.9804C41.655 15.0882 41.1287 14.7371 41.0204 14.1961C40.9121 13.6549 41.2626 13.1283 41.8037 13.0194L46.8036 12.0195C47.0974 11.9606 47.4021 12.0366 47.6338 12.2266C47.8655 12.4165 47.9999 12.7003 47.9999 12.9999V17.9999C48 18.2651 47.8947 18.5194 47.7071 18.7071C47.5195 18.8949 47.2652 19.0002 47 19.0001Z" fill="#4487C0"/>
</svg>
