<svg width="48" height="60" viewBox="0 0 48 60" fill="none" xmlns="http://www.w3.org/2000/svg">
<path d="M23.75 46.25C23 46.25 22.5 45.75 22.5 45C22.5 44.25 23 43.75 23.75 43.75C30 43.75 35 38.75 35 32.5C35 31.75 35.5 31.25 36.25 31.25C37 31.25 37.5 31.75 37.5 32.5C37.5 40.125 31.375 46.25 23.75 46.25Z" fill="#4487C0"/>
<path fill-rule="evenodd" clip-rule="evenodd" d="M43.75 16.25H36.25V3.75C36.25 1.625 34.625 0 32.5 0C30.375 0 28.75 1.625 28.75 3.75V16.25H18.75V3.75C18.75 1.625 17.125 0 15 0C12.875 0 11.25 1.625 11.25 3.75V16.25H3.75C1.625 16.25 0 17.875 0 20C0 22.125 1.625 23.75 3.75 23.75H5V32.5C5 42.375 12.75 50.5 22.5 51.125V58.75C22.5 59.5 23 60 23.75 60C24.5 60 25 59.5 25 58.75V51.125C34.75 50.5 42.5 42.375 42.5 32.5V23.75H43.75C45.875 23.75 47.5 22.125 47.5 20C47.5 17.875 45.875 16.25 43.75 16.25ZM31.25 3.75C31.25 3 31.75 2.5 32.5 2.5C33.25 2.5 33.75 3 33.75 3.75V6.25H31.25V3.75ZM33.75 16.25V8.75H31.25V16.25H33.75ZM13.75 3.75C13.75 3 14.25 2.5 15 2.5C15.75 2.5 16.25 3 16.25 3.75V6.25H13.75V3.75ZM16.25 8.75H13.75V16.25H16.25V8.75ZM40 32.5C40 41.5 32.75 48.75 23.75 48.75C14.75 48.75 7.5 41.5 7.5 32.5V23.75H40V32.5ZM41.25 21.25H43.75C44.5 21.25 45 20.75 45 20C45 19.25 44.5 18.75 43.75 18.75H3.75C3 18.75 2.5 19.25 2.5 20C2.5 20.75 3 21.25 3.75 21.25H6.25H41.25Z" fill="#4487C0"/>
</svg>
