<svg width="62" height="60" viewBox="0 0 62 60" fill="none" xmlns="http://www.w3.org/2000/svg">
<path d="M60 58.5599H56.4343V56.2285H57.6V55.0627H60V58.5599Z" fill="#4487C0"/>
<path d="M51.36 58.5599H46.9714V56.2285H51.36V58.5599Z" fill="#4487C0"/>
<path d="M2.74277 13.1657H0.342773V8.91431H2.74277V13.1657Z" fill="#4487C0"/>
<path d="M2.74277 3.90852H0.342773V0.411377H3.90849V2.74281H2.74277V3.90852Z" fill="#4487C0"/>
<path fill-rule="evenodd" clip-rule="evenodd" d="M8.98291 2.74281H13.3715V0.411377H8.98291V2.74281ZM22.9029 2.74281H18.5143V0.411377H22.9029V2.74281ZM27.9772 2.74281H32.3658V0.411377H27.9772V2.74281ZM41.8286 2.74281H37.4401V0.411377H41.8286V2.74281ZM51.3601 2.74281H46.9715V0.411377H51.3601V2.74281Z" fill="#4487C0"/>
<path d="M60 3.90852H57.6V2.74281H56.4343V0.411377H60V3.90852Z" fill="#4487C0"/>
<path fill-rule="evenodd" clip-rule="evenodd" d="M57.6001 13.1657H59.9315V8.91431H57.6001V13.1657ZM59.9315 22.3543H57.6001V18.1029H59.9315V22.3543ZM57.6001 31.6115H59.9315V27.36H57.6001V31.6115ZM59.9315 40.8686H57.6001V36.6172H59.9315V40.8686ZM59.9315 50.0572H57.6001V45.8057H59.9315V50.0572Z" fill="#4487C0"/>
<path fill-rule="evenodd" clip-rule="evenodd" d="M54.5828 5.5542L50.9485 19.0628L47.0399 15.2228L43.2685 18.9942V58.3542H0.342773V16.4571H41.4856L44.9142 13.0285L41.0742 9.18848L54.5828 5.5542ZM2.74277 56.0228H41.0056V21.3256L22.9713 39.3599L20.7771 37.1656L39.0856 18.7885H2.74277V56.0228Z" fill="#4487C0"/>
</svg>
