<svg width="53" height="60" viewBox="0 0 53 60" fill="none" xmlns="http://www.w3.org/2000/svg">
<path fill-rule="evenodd" clip-rule="evenodd" d="M27.7755 3.1374V7.5081C41.9296 8.31964 52.8703 20.2431 52.4644 34.4146C52.0584 48.5862 40.4532 59.8638 26.2758 59.8638C12.0985 59.8638 0.493169 48.5862 0.087233 34.4146C-0.318703 20.2431 10.622 8.31964 24.7761 7.5081V3.1374H19.1259V0.137695H33.4251V3.1374H27.7755ZM4.84126 42.5411C8.43243 51.2103 16.8922 56.8626 26.2758 56.8623C39.0826 56.8473 49.4606 46.4688 49.4751 33.6621C49.4751 24.2785 43.8225 15.8189 35.1531 12.2281C26.4837 8.63726 16.5049 10.6223 9.86987 17.2577C3.23479 23.893 1.2501 33.8719 4.84126 42.5411Z" fill="#4487C0"/>
<rect x="44.4525" y="9.26074" width="3.0003" height="8.69741" transform="rotate(-45 44.4525 9.26074)" fill="#4487C0"/>
<path d="M27.729 23.0161H24.7266V26.2027H20.7786L20.7774 32.2231V35.2231H20.7786V35.2333L28.6782 35.2261V38.1205L20.7786 38.1133L20.7762 41.1133L24.3294 41.1163V44.3095H27.3324V41.1193L31.6782 41.1229V32.2231H23.7786V29.2027H31.6794V26.2027H27.729V23.0161Z" fill="#4487C0"/>
</svg>
