<svg width="60" height="75" viewBox="0 0 60 75" fill="none" xmlns="http://www.w3.org/2000/svg">
<path d="M56.163 21.1854C55.563 20.5854 54.765 20.2548 53.9166 20.2548C52.167 20.2548 50.7444 21.6786 50.7444 23.4282V26.3694H49.9008V18.9822C49.9008 16.3836 47.787 14.2692 45.1884 14.2692H38.0322V12.0564H41.5152C43.2648 12.0564 44.6874 10.6326 44.6874 8.883C44.6874 7.1334 43.2648 5.70959 41.5152 5.70959H27.1242C25.3746 5.70959 23.9508 7.1334 23.9508 8.883C23.9508 10.6326 25.3746 12.0564 27.1242 12.0564H30.6048V14.2692H26.022C25.662 14.253 24.2844 14.2116 23.2896 14.5104C22.1442 14.8542 21.1902 15.9276 20.9088 16.2708L17.3496 19.9362H16.8462C14.2482 19.9362 12.1338 22.05 12.1338 24.6486V26.37H10.827V23.4288C10.827 21.6792 9.40321 20.2554 7.65361 20.2554C5.90401 20.2554 4.48021 21.6792 4.48021 23.4288V36.51C4.48021 37.3386 5.15161 38.01 5.98021 38.01C6.80881 38.01 7.48021 37.3386 7.48021 36.51V23.4282C7.48021 23.3328 7.55821 23.2548 7.65361 23.2548C7.74901 23.2548 7.82701 23.3328 7.82701 23.4282V27.8694C7.82701 28.698 8.49841 29.3694 9.32701 29.3694H13.6338C14.4624 29.3694 15.1338 28.698 15.1338 27.8694V24.648C15.1338 23.7042 15.9018 22.9356 16.8462 22.9356H17.9838C18.3894 22.9356 18.7776 22.7718 19.0602 22.4802L23.1078 18.3108C23.1432 18.2748 23.1756 18.237 23.2074 18.198C23.4552 17.8848 23.94 17.4474 24.1518 17.3832C24.5556 17.262 25.4202 17.2416 25.905 17.2668C25.9314 17.2686 25.9578 17.2692 25.9842 17.2692H32.1036C32.9322 17.2692 33.6036 16.5978 33.6036 15.7692V10.5564C33.6036 9.7278 32.9322 9.05639 32.1036 9.05639H27.123C27.0258 9.05639 26.9496 8.9802 26.9496 8.883C26.9496 8.7876 27.0276 8.70959 27.123 8.70959H41.5134C41.6052 8.70959 41.6856 8.7894 41.6856 8.883C41.6856 8.9784 41.6082 9.05639 41.5134 9.05639H36.5292C35.7006 9.05639 35.0292 9.7278 35.0292 10.5564V15.7692C35.0292 16.5978 35.7006 17.2692 36.5292 17.2692H45.1872C46.1298 17.2692 46.8996 18.0378 46.8996 18.9822V27.87C46.8996 28.6986 47.571 29.37 48.3996 29.37H52.2432C53.0718 29.37 53.7432 28.6986 53.7432 27.87V23.4288C53.7432 23.2848 53.94 23.2062 54.0384 23.3064C54.0726 23.3394 54.0888 23.3796 54.0888 23.4288V37.8192C54.0888 37.9146 54.0102 37.992 53.9154 37.992C53.8206 37.992 53.7432 37.9146 53.7432 37.8192V33.378C53.7432 32.5494 53.0718 31.878 52.2432 31.878H48.3984C47.5698 31.878 46.8984 32.5494 46.8984 33.378V36.6684C46.8984 37.6122 46.131 38.3808 45.1872 38.3808H44.01C43.5468 38.3808 43.1076 38.595 42.8232 38.9628L39.4434 43.3254C39.4008 43.3812 39.3618 43.4382 39.3276 43.4994C39.327 43.5 39.2652 43.5768 39.2772 43.5768C39.1686 43.6224 38.9028 43.6596 38.745 43.662H26.784C26.2608 43.6422 25.332 43.5612 24.6978 43.4214L19.4592 34.3476C18.5634 32.7942 16.893 31.8294 15.099 31.8294C13.3074 31.8294 11.637 32.793 10.7394 34.3464L3.58321 46.7388C2.68621 48.2928 2.68621 50.2218 3.58321 51.7734C4.47961 53.3262 6.15001 54.2904 7.94281 54.2904H22.3014C25.0548 54.2688 27.294 52.011 27.294 49.2558C27.294 48.3336 27.0378 47.4372 26.5614 46.6506C26.6382 46.6542 26.6958 46.6578 26.7282 46.659H38.7468C38.904 46.659 39.723 46.644 40.4436 46.3392C41.2062 46.0188 41.682 45.381 41.8638 45.1008L44.7462 41.3802H45.1884C47.7852 41.3802 49.8996 39.2664 49.8996 36.6678V34.8774H50.7444V37.8186C50.7444 39.5682 52.167 40.992 53.9166 40.992C55.6662 40.992 57.09 39.5682 57.09 37.8186V23.43C57.0912 22.5822 56.7624 21.7854 56.163 21.1854ZM22.2774 51.2904H7.94221C7.21801 51.2904 6.54301 50.901 6.18001 50.2728C5.81761 49.6464 5.81761 48.867 6.18061 48.24L13.3368 35.8446C13.6998 35.217 14.3748 34.827 15.099 34.827C15.8232 34.827 16.4982 35.2158 16.8606 35.8446L23.9364 48.0996C23.9484 48.12 23.9604 48.1404 23.9736 48.1608C24.1836 48.4878 24.294 48.8664 24.294 49.2576C24.2934 50.3694 23.3886 51.282 22.2774 51.2904ZM43.1214 23.4822C43.95 23.4822 44.6214 22.8108 44.6214 21.9822C44.6214 21.1536 43.95 20.4822 43.1214 20.4822H25.0242C24.1956 20.4822 23.5242 21.1536 23.5242 21.9822C23.5242 22.8108 24.1956 23.4822 25.0242 23.4822H43.1214ZM15.102 36.0432C14.2734 36.0432 13.602 36.7146 13.602 37.5432V43.9086C13.602 44.7372 14.2734 45.4086 15.102 45.4086C15.9306 45.4086 16.602 44.7372 16.602 43.9086V37.5432C16.602 36.7146 15.9306 36.0432 15.102 36.0432ZM15.102 46.8384C14.2734 46.8384 13.602 47.5098 13.602 48.3384V48.615C13.602 49.4436 14.2734 50.115 15.102 50.115C15.9306 50.115 16.602 49.4436 16.602 48.615V48.3384C16.602 47.5104 15.9306 46.8384 15.102 46.8384Z" fill="#4487C0"/>
</svg>
