<svg id="Layer_1" data-name="Layer 1" xmlns="http://www.w3.org/2000/svg" viewBox="0 0 1044.74 1000"><defs><style>.cls-1{fill:#1b92b0;}.cls-2{fill:#c0ca33;}.cls-3{fill:#8544fe;}.cls-4{fill:#ffa000;}.cls-5{fill:#274a9d;}.cls-6,.cls-8,.cls-9{fill:#757575;}.cls-6,.cls-7{opacity:0.2;}.cls-10,.cls-9{opacity:0.25;}.cls-11{fill:#e0e0e0;}.cls-12{fill:#ffd059;}.cls-13{fill:#6d6e71;}.cls-14{fill:#eee;}</style></defs><title>OEE</title><path class="cls-1" d="M88.52,423.53l-3.44-1.7a169.72,169.72,0,0,1,26.77-37.54c22.66-23.89,47.94-34.2,73.1-29.8,7.92,1.38,17.82,4.74,28.3,8.3,17.61,6,37.58,12.78,56.54,13.5,21.63.83,37.69-6.55,49.12-22.56,3.15-4.42,6.29-9.09,9.61-14,13.37-19.91,28.52-42.48,52.65-60.28,28-20.64,62.56-30.68,105.75-30.68v3.84c-95.28,0-128.51,49.49-155.21,89.26-3.34,5-6.5,9.67-9.68,14.13-27.49,38.52-75.19,22.31-110,10.47-10.33-3.52-20.1-6.83-27.72-8.16-24.15-4.22-47.56,5.41-69.59,28.59A169.21,169.21,0,0,0,88.52,423.53Z"/><path class="cls-2" d="M88.29,424.09l-3.83-.34A162.13,162.13,0,0,1,93,387.3c6.49-18.17,19.14-42.65,42.53-56.09,27-15.5,62.1-13.3,104.37,6.54l8.77,4.16c22.21,10.58,52.64,25.07,84.11,33.35,36.84,9.69,67,8.45,89.6-3.69,1.87-1,3.9-2.15,6-3.37,15.35-8.72,36.38-20.67,60.59-14.45l-1,3.72c-22.7-5.84-42.95,5.67-57.74,14.07-2.16,1.23-4.2,2.39-6.11,3.41-23.51,12.62-54.59,14-92.39,4-31.82-8.37-62.44-23-84.79-33.59l-8.75-4.15c-41.06-19.28-75-21.53-100.81-6.7C94.57,359.18,88.34,423.44,88.29,424.09Z"/><path class="cls-3" d="M85.92,426l-3.7-1c.31-1.13,7.82-28.13,32.94-55.56A161.93,161.93,0,0,1,168,331.23c25.33-11.51,54.68-17.38,87.24-17.45s63.33,3.56,125.66,22.34l.58.17c25.73,7.76,73.61,22.18,103.28-15.64l3,2.37c-13.55,17.27-32.36,26.14-55.91,26.37-19.6.2-38.79-5.6-51.5-9.42l-.58-.18c-61.31-18.46-92-22.17-123.67-22.17h-.88c-72.41.15-114.6,29.65-137.24,54.36C93.49,398.73,86,425.69,85.92,426Z"/><path class="cls-4" d="M85.89,425.31l-3.63-1.25c.43-1.27,11-31.54,41.12-56.94A138.83,138.83,0,0,1,185,337.25c28.92-6.1,61.76-4.16,97.63,5.76,3.69,1,7.82,2.21,12.2,3.46,27,7.72,67.83,19.39,105.23,22.13,44,3.23,73.07-6.76,86.48-29.69l3.31,1.93c-14.2,24.31-44.51,34.94-90.07,31.59-37.79-2.78-78.84-14.51-106-22.27-4.36-1.25-8.49-2.43-12.17-3.45-79.73-22.07-128.69.51-155.73,23.34C96.58,394.78,86,425,85.89,425.31Z"/><path class="cls-5" d="M87.52,423.71l-3.82-.35a343.52,343.52,0,0,1,13.45-63.13c9.87-31.48,28.72-73.94,62.47-97.51,26.46-18.47,58.27-23,94.57-13.35,13.12,3.48,30,11.24,49.58,20.23,52.79,24.28,118.5,54.48,147.56,15.78,9.6-12.78,34.57-54.3,34.82-54.72l3.29,2c-1,1.71-25.32,42.11-35,55-13.82,18.41-36.17,24-68.31,17.23-27.33-5.8-57.4-19.62-83.93-31.82-18.59-8.55-36.15-16.62-49-20-35.15-9.31-65.9-5-91.38,12.79-32.87,22.95-51.32,64.6-61,95.5A339.28,339.28,0,0,0,87.52,423.71Z"/><circle class="cls-5" cx="487.02" cy="231.85" r="7.48"/><circle class="cls-1" cx="487.41" cy="250.65" r="7.48"/><circle class="cls-3" cx="487.41" cy="321.65" r="7.48"/><circle class="cls-4" cx="487.41" cy="339.88" r="7.48"/><circle class="cls-2" cx="487.41" cy="355.61" r="7.48"/><circle class="cls-1" cx="387.63" cy="276.94" r="7.48"/><circle class="cls-1" cx="252.54" cy="375.56" r="7.48"/><circle class="cls-3" cx="193.06" cy="324.52" r="7.48"/><circle class="cls-5" cx="252.54" cy="251.61" r="7.48"/><circle class="cls-3" cx="386.09" cy="339.49" r="7.48"/><circle class="cls-2" cx="386.86" cy="382.86" r="7.48"/><path class="cls-6" d="M76,392.46v.68h-3.7v-.68h1.55v-4.67a1.38,1.38,0,0,1-.3.28,3.07,3.07,0,0,1-.47.28,3.11,3.11,0,0,1-.53.22,1.54,1.54,0,0,1-.48.09v-.72a1.35,1.35,0,0,0,.55-.14,4,4,0,0,0,.57-.33,5,5,0,0,0,.46-.35c.12-.11.19-.18.2-.22h.77v5.56Z"/><path class="cls-6" d="M71.56,358.51a4.15,4.15,0,0,1,.08-.79,2.12,2.12,0,0,1,.27-.75,2.88,2.88,0,0,1,.55-.69,4.61,4.61,0,0,1,.92-.63l.64-.31a4.25,4.25,0,0,0,.63-.35,2.1,2.1,0,0,0,.49-.44.87.87,0,0,0,.19-.57,1,1,0,0,0-.09-.41,1.1,1.1,0,0,0-.28-.37,1.37,1.37,0,0,0-.44-.27,2,2,0,0,0-.62-.09,1.89,1.89,0,0,0-.65.1,2.42,2.42,0,0,0-.51.25,1.79,1.79,0,0,0-.36.3l-.23.25-.49-.53.25-.24a3,3,0,0,1,.49-.35,3.61,3.61,0,0,1,.71-.31,2.91,2.91,0,0,1,.92-.14,2.66,2.66,0,0,1,.88.14,1.92,1.92,0,0,1,.66.37,1.76,1.76,0,0,1,.42.56,1.59,1.59,0,0,1,.14.66,1.38,1.38,0,0,1-.22.79,2.32,2.32,0,0,1-.51.57,3.59,3.59,0,0,1-.63.39l-.53.25a6.73,6.73,0,0,0-.82.43,2.41,2.41,0,0,0-.53.43,1.39,1.39,0,0,0-.32.48,2.41,2.41,0,0,0-.14.6h3.82v.67Z"/><path class="cls-6" d="M74.75,321.31a1.8,1.8,0,0,1,1.15.66,2,2,0,0,1,.43,1.32,2.19,2.19,0,0,1-.18.9,2,2,0,0,1-.51.7,2.6,2.6,0,0,1-.8.45,3.33,3.33,0,0,1-1,.15,3,3,0,0,1-1.45-.33,2.2,2.2,0,0,1-.94-.92l.51-.47a1.77,1.77,0,0,0,.7.76,2.24,2.24,0,0,0,1.18.29,2,2,0,0,0,1.29-.4,1.43,1.43,0,0,0,.47-1.14,1.51,1.51,0,0,0-.5-1.19,2.05,2.05,0,0,0-1.41-.44h-.28V321h.3a1.86,1.86,0,0,0,1.29-.4,1.3,1.3,0,0,0,.44-1,1.26,1.26,0,0,0-.12-.57,1.14,1.14,0,0,0-.33-.42,1.38,1.38,0,0,0-.5-.25,2.28,2.28,0,0,0-1.73.19,1.76,1.76,0,0,0-.71.77l-.48-.46a1.66,1.66,0,0,1,.37-.52,2.36,2.36,0,0,1,.54-.4,3.43,3.43,0,0,1,.68-.26,3.25,3.25,0,0,1,.77-.09,3,3,0,0,1,.92.14,2.28,2.28,0,0,1,.72.4,1.7,1.7,0,0,1,.48.62,2,2,0,0,1,.07,1.42,2,2,0,0,1-.28.54,1.73,1.73,0,0,1-.46.39A1.52,1.52,0,0,1,74.75,321.31Z"/><path class="cls-6" d="M74.83,290.65v-1.94H71.19v-.66l3.87-5h.52v5h1v.68h-1v1.94ZM72,288H74.9V284.2Z"/><path class="cls-6" d="M74,251.24a2.72,2.72,0,0,1,1,.18,2.52,2.52,0,0,1,.8.5,2.37,2.37,0,0,1,.54.78,2.55,2.55,0,0,1,.2,1,2.41,2.41,0,0,1-.79,1.86,2.51,2.51,0,0,1-.86.52,2.84,2.84,0,0,1-1,.19,3,3,0,0,1-.79-.11,2.35,2.35,0,0,1-.69-.29,3.73,3.73,0,0,1-.58-.47,2.61,2.61,0,0,1-.42-.62l.5-.37a2.39,2.39,0,0,0,.83.87,2.22,2.22,0,0,0,1.16.32,2.13,2.13,0,0,0,.76-.13,1.87,1.87,0,0,0,.61-.39,1.81,1.81,0,0,0,.55-1.37,1.73,1.73,0,0,0-.14-.73,1.65,1.65,0,0,0-.39-.58,1.85,1.85,0,0,0-.58-.37,2.2,2.2,0,0,0-.73-.13,2.17,2.17,0,0,0-1,.23,1.83,1.83,0,0,0-.73.65h-.69c0-.05,0-.15.05-.3s.07-.33.11-.55.09-.44.14-.7.11-.52.16-.78c.12-.61.25-1.29.4-2h3.74v.69H72.91l-.54,2.78a1.92,1.92,0,0,1,.7-.47A2.19,2.19,0,0,1,74,251.24Z"/><g class="cls-7"><path class="cls-8" d="M76.73,217.46a2.63,2.63,0,0,1-.21,1,2.58,2.58,0,0,1-.58.84,2.63,2.63,0,0,1-.87.57,2.74,2.74,0,0,1-1.08.21,2.77,2.77,0,0,1-1.12-.23,2.54,2.54,0,0,1-.89-.63,3.14,3.14,0,0,1-.57-1,4.46,4.46,0,0,1-.2-1.36,8.89,8.89,0,0,1,.21-2.06,4.59,4.59,0,0,1,.58-1.46,2.48,2.48,0,0,1,.9-.87,2.42,2.42,0,0,1,1.17-.29,2.52,2.52,0,0,1,1.38.39,2.42,2.42,0,0,1,.92,1.05l-.48.44a1.8,1.8,0,0,0-.72-.89,2,2,0,0,0-1.11-.33,1.62,1.62,0,0,0-.87.23,1.94,1.94,0,0,0-.68.66,3.56,3.56,0,0,0-.43,1.06,5.74,5.74,0,0,0-.16,1.43,2,2,0,0,1,.82-1,2.36,2.36,0,0,1,1.33-.39,2.78,2.78,0,0,1,1.89.76,2.57,2.57,0,0,1,.77,1.86Zm-2.73,2a2,2,0,0,0,.78-.15,2.07,2.07,0,0,0,.65-.44,2.16,2.16,0,0,0,.44-.63,2.09,2.09,0,0,0,.15-.79,1.91,1.91,0,0,0-.16-.78,2,2,0,0,0-.44-.63,1.92,1.92,0,0,0-.64-.44,2.1,2.1,0,0,0-1.56,0,2,2,0,0,0-.65.44,2,2,0,0,0-.44.63,2.09,2.09,0,0,0-.16.78,1.85,1.85,0,0,0,.17.78,2.15,2.15,0,0,0,.44.64,2.21,2.21,0,0,0,.64.44A2.08,2.08,0,0,0,74,219.47Z"/></g><path class="cls-6" d="M76.66,434.58a4.36,4.36,0,0,1-.2,1.33,3.34,3.34,0,0,1-.58,1,2.51,2.51,0,0,1-.87.68,2.33,2.33,0,0,1-1.09.25,2.39,2.39,0,0,1-1.09-.25A2.71,2.71,0,0,1,72,437a3.53,3.53,0,0,1-.57-1,4.08,4.08,0,0,1-.21-1.33,4,4,0,0,1,.21-1.32,3.3,3.3,0,0,1,.57-1.05,2.77,2.77,0,0,1,.87-.7,2.53,2.53,0,0,1,1.09-.25,2.46,2.46,0,0,1,1.09.25,2.57,2.57,0,0,1,.87.7,3.13,3.13,0,0,1,.58,1.05A4.25,4.25,0,0,1,76.66,434.58Zm-.75,0a3.59,3.59,0,0,0-.15-1.07,2.52,2.52,0,0,0-.41-.82,1.82,1.82,0,0,0-.63-.54,1.8,1.8,0,0,0-1.61,0,2,2,0,0,0-.63.54,2.74,2.74,0,0,0-.41.82,3.59,3.59,0,0,0-.15,1.07,3.55,3.55,0,0,0,.15,1.07,2.8,2.8,0,0,0,.41.83,2,2,0,0,0,.63.53,1.79,1.79,0,0,0,2.24-.53,2.58,2.58,0,0,0,.41-.83A3.55,3.55,0,0,0,75.91,434.58Z"/><path class="cls-6" d="M120.74,437.1v.68H117v-.68h1.55v-4.67a1.39,1.39,0,0,1-.3.29,4.17,4.17,0,0,1-.47.28,3.38,3.38,0,0,1-.52.22,2.05,2.05,0,0,1-.49.09v-.73a1.25,1.25,0,0,0,.56-.14,2.84,2.84,0,0,0,.56-.33,5,5,0,0,0,.46-.34,1,1,0,0,0,.2-.22h.77v5.55Z"/><path class="cls-6" d="M149.77,437.78a4.15,4.15,0,0,1,.07-.79,2.33,2.33,0,0,1,.27-.75,2.7,2.7,0,0,1,.56-.69,4.24,4.24,0,0,1,.91-.63c.19-.1.41-.21.64-.31a4.72,4.72,0,0,0,.63-.36,2.07,2.07,0,0,0,.49-.43.87.87,0,0,0,.19-.57,1.06,1.06,0,0,0-.09-.42,1.17,1.17,0,0,0-.27-.37,1.4,1.4,0,0,0-.45-.26,2,2,0,0,0-1.27,0,3,3,0,0,0-.51.24,2.86,2.86,0,0,0-.36.3l-.22.26-.5-.54.26-.24a2.49,2.49,0,0,1,.48-.34,3.1,3.1,0,0,1,.71-.31,2.65,2.65,0,0,1,.92-.14,2.43,2.43,0,0,1,.88.14,1.77,1.77,0,0,1,.66.37,1.72,1.72,0,0,1,.42.55,1.66,1.66,0,0,1,.14.66,1.43,1.43,0,0,1-.21.79,2.23,2.23,0,0,1-.52.58,3.26,3.26,0,0,1-.63.39l-.53.25a6.73,6.73,0,0,0-.82.43,2.72,2.72,0,0,0-.53.42,1.41,1.41,0,0,0-.31.48,2.63,2.63,0,0,0-.15.6h3.82v.68Z"/><path class="cls-6" d="M186.43,435.2a1.84,1.84,0,0,1,1.15.66,2,2,0,0,1,.43,1.32,2.19,2.19,0,0,1-.18.9,2,2,0,0,1-.51.7,2.49,2.49,0,0,1-.8.45,3.32,3.32,0,0,1-1,.16,3,3,0,0,1-1.45-.34,2.2,2.2,0,0,1-.94-.92l.51-.47a1.71,1.71,0,0,0,.7.76,2.15,2.15,0,0,0,1.18.29,1.93,1.93,0,0,0,1.29-.4,1.43,1.43,0,0,0,.47-1.14,1.54,1.54,0,0,0-.49-1.19,2.1,2.1,0,0,0-1.42-.44h-.28v-.63h.3a1.91,1.91,0,0,0,1.29-.39,1.32,1.32,0,0,0,.44-1,1.26,1.26,0,0,0-.12-.57,1.23,1.23,0,0,0-.33-.42,1.38,1.38,0,0,0-.5-.25,2.08,2.08,0,0,0-.63-.09,2.12,2.12,0,0,0-1.1.28,1.76,1.76,0,0,0-.71.77l-.48-.46a1.84,1.84,0,0,1,.37-.52,2.22,2.22,0,0,1,.55-.4,2.66,2.66,0,0,1,.67-.25,2.8,2.8,0,0,1,.77-.1,2.73,2.73,0,0,1,.92.15,2.22,2.22,0,0,1,.73.39,1.79,1.79,0,0,1,.47.62,1.91,1.91,0,0,1,.17.8,1.87,1.87,0,0,1-.1.62,1.73,1.73,0,0,1-.28.54,1.57,1.57,0,0,1-.46.39A1.47,1.47,0,0,1,186.43,435.2Z"/><path class="cls-6" d="M220,439.17v-1.95h-3.64v-.65l3.87-5h.52v5h1v.67h-1v1.95Zm-2.86-2.62h2.93v-3.83Z"/><path class="cls-6" d="M252.61,434.37a2.53,2.53,0,0,1,1,.19,2.34,2.34,0,0,1,1.34,1.28,2.55,2.55,0,0,1,.2,1,2.41,2.41,0,0,1-.79,1.86,2.68,2.68,0,0,1-.86.52,2.84,2.84,0,0,1-1.05.19,3,3,0,0,1-.79-.11,2.37,2.37,0,0,1-.69-.3,2.85,2.85,0,0,1-.57-.47,2,2,0,0,1-.42-.61l.49-.37a2.28,2.28,0,0,0,.83.86,2.17,2.17,0,0,0,1.16.33,1.94,1.94,0,0,0,.76-.14,1.84,1.84,0,0,0,.61-.38,1.94,1.94,0,0,0,.41-.6,2,2,0,0,0,.15-.77,1.73,1.73,0,0,0-.15-.73,1.56,1.56,0,0,0-.39-.58,1.85,1.85,0,0,0-.58-.37,2.2,2.2,0,0,0-.73-.13,2.34,2.34,0,0,0-1,.22,1.9,1.9,0,0,0-.73.65h-.69s0-.14.05-.29.07-.33.11-.55.09-.44.14-.7.11-.52.16-.78c.12-.61.26-1.29.4-2h3.75v.68h-3.19L251,435a1.94,1.94,0,0,1,.7-.48A2.37,2.37,0,0,1,252.61,434.37Z"/><path class="cls-6" d="M288.85,435.23a2.59,2.59,0,0,1-.79,1.88,2.48,2.48,0,0,1-.87.57,2.74,2.74,0,0,1-1.08.21,2.94,2.94,0,0,1-1.12-.22,2.7,2.7,0,0,1-.89-.64,3.14,3.14,0,0,1-.57-1,4.46,4.46,0,0,1-.2-1.36,8.89,8.89,0,0,1,.21-2.06,4.68,4.68,0,0,1,.58-1.46,2.48,2.48,0,0,1,.9-.87,2.42,2.42,0,0,1,1.17-.29,2.52,2.52,0,0,1,1.38.39,2.39,2.39,0,0,1,.92,1.06l-.48.43a1.8,1.8,0,0,0-.72-.89,2,2,0,0,0-1.11-.33,1.71,1.71,0,0,0-.87.23,1.94,1.94,0,0,0-.68.66,3.56,3.56,0,0,0-.43,1.06A5.74,5.74,0,0,0,284,434a2,2,0,0,1,.82-1,2.34,2.34,0,0,1,1.33-.39,2.58,2.58,0,0,1,1,.21,2.47,2.47,0,0,1,.85.56,2.56,2.56,0,0,1,.57.83A2.7,2.7,0,0,1,288.85,435.23Zm-2.73,2a2.09,2.09,0,0,0,.79-.15,2.32,2.32,0,0,0,.64-.43A2.35,2.35,0,0,0,288,436a2.08,2.08,0,0,0,.15-.78,1.85,1.85,0,0,0-.16-.78,1.92,1.92,0,0,0-.44-.64,1.76,1.76,0,0,0-.64-.43,2,2,0,0,0-1.56,0,1.8,1.8,0,0,0-.65.43,1.92,1.92,0,0,0-.44.64,2,2,0,0,0-.16.78,1.84,1.84,0,0,0,.17.77,2,2,0,0,0,.44.64,2.15,2.15,0,0,0,.64.44A2.08,2.08,0,0,0,286.12,437.23Z"/><path class="cls-6" d="M321.2,432.1H317v-.68h5.36l-3.92,7.75h-.85Z"/><path class="cls-6" d="M355.68,435.63a1.87,1.87,0,0,1-.22.92,2.12,2.12,0,0,1-.59.71,2.81,2.81,0,0,1-.86.45,3.66,3.66,0,0,1-1.05.16,3.12,3.12,0,0,1-1.07-.18,2.58,2.58,0,0,1-.84-.49,2.17,2.17,0,0,1-.55-.73,2.06,2.06,0,0,1-.2-.88,1.74,1.74,0,0,1,.14-.69,2.12,2.12,0,0,1,.35-.56,2.28,2.28,0,0,1,.5-.43,2.66,2.66,0,0,1,.56-.28,2.87,2.87,0,0,1-.49-.26,2,2,0,0,1-.4-.37,1.67,1.67,0,0,1-.28-.46,1.36,1.36,0,0,1-.11-.53,1.68,1.68,0,0,1,.22-.85,2.21,2.21,0,0,1,.56-.62,2.83,2.83,0,0,1,.78-.38A2.91,2.91,0,0,1,353,430a2.8,2.8,0,0,1,.86.13,2.57,2.57,0,0,1,.78.38,1.92,1.92,0,0,1,.56.61,1.61,1.61,0,0,1,.22.85,1.39,1.39,0,0,1-.1.53,1.7,1.7,0,0,1-.29.46,2.1,2.1,0,0,1-.41.38,3,3,0,0,1-.5.26,3.36,3.36,0,0,1,.6.3,2.67,2.67,0,0,1,.5.44,2.33,2.33,0,0,1,.34.57A1.92,1.92,0,0,1,355.68,435.63Zm-.75-.05a1.33,1.33,0,0,0-.18-.7,1.57,1.57,0,0,0-.45-.51,2.06,2.06,0,0,0-.63-.31A2.35,2.35,0,0,0,353,434a2.45,2.45,0,0,0-.71.11,2.3,2.3,0,0,0-.62.33,1.66,1.66,0,0,0-.43.52,1.4,1.4,0,0,0-.17.68,1.3,1.3,0,0,0,.18.68,1.84,1.84,0,0,0,.45.51,2.29,2.29,0,0,0,1.32.42,2.37,2.37,0,0,0,.69-.11,2.16,2.16,0,0,0,.62-.33,1.66,1.66,0,0,0,.44-.51A1.39,1.39,0,0,0,354.93,435.58Zm-3.6-3.54a1,1,0,0,0,.15.56,1.55,1.55,0,0,0,.39.42,1.91,1.91,0,0,0,.54.25,2,2,0,0,0,.59.09,2,2,0,0,0,.58-.09,1.69,1.69,0,0,0,.54-.26,1.45,1.45,0,0,0,.39-.43,1,1,0,0,0,.16-.56,1.07,1.07,0,0,0-.15-.56,1.32,1.32,0,0,0-.37-.41,1.93,1.93,0,0,0-.54-.26,2.57,2.57,0,0,0-.62-.08,2.18,2.18,0,0,0-.63.09,1.75,1.75,0,0,0-.53.26,1.25,1.25,0,0,0-.37.42A1.16,1.16,0,0,0,351.33,432Z"/><path class="cls-6" d="M383.68,434.21a2.58,2.58,0,0,1,.21-1,2.52,2.52,0,0,1,.58-.85,2.63,2.63,0,0,1,.87-.57,2.92,2.92,0,0,1,1.08-.2,2.76,2.76,0,0,1,1.12.22,2.44,2.44,0,0,1,.88.64,3.14,3.14,0,0,1,.57,1,4.13,4.13,0,0,1,.21,1.36,9,9,0,0,1-.21,2.06,4.79,4.79,0,0,1-.58,1.46,2.48,2.48,0,0,1-.9.87,2.41,2.41,0,0,1-1.17.28,2.6,2.6,0,0,1-1.38-.38A2.44,2.44,0,0,1,384,438l.48-.43a1.77,1.77,0,0,0,.72.88,1.89,1.89,0,0,0,1.11.34,1.71,1.71,0,0,0,.87-.23,2,2,0,0,0,.68-.66,3.56,3.56,0,0,0,.43-1.06,5.71,5.71,0,0,0,.16-1.44,2.07,2.07,0,0,1-.82,1,2.41,2.41,0,0,1-1.33.38,2.75,2.75,0,0,1-1-.2,2.62,2.62,0,0,1-.85-.56,2.56,2.56,0,0,1-.57-.83A2.74,2.74,0,0,1,383.68,434.21Zm2.73-2a1.85,1.85,0,0,0-.78.16,2.23,2.23,0,0,0-.65.43,2,2,0,0,0-.44.64,2,2,0,0,0-.15.78,1.85,1.85,0,0,0,.16.78,2,2,0,0,0,.44.64,1.9,1.9,0,0,0,.64.43,1.85,1.85,0,0,0,.78.16,1.91,1.91,0,0,0,.78-.16,1.94,1.94,0,0,0,.65-.43,2,2,0,0,0,.6-1.42,1.84,1.84,0,0,0-.17-.77,2.13,2.13,0,0,0-1.08-1.08A1.91,1.91,0,0,0,386.41,432.2Z"/><path class="cls-6" d="M418.7,437.1v.68H415v-.68h1.55v-4.67a1.39,1.39,0,0,1-.3.29,3.43,3.43,0,0,1-.47.28,3.38,3.38,0,0,1-.52.22,2.07,2.07,0,0,1-.48.09v-.73a1.24,1.24,0,0,0,.55-.14,2.84,2.84,0,0,0,.56-.33,5,5,0,0,0,.46-.34,1,1,0,0,0,.2-.22h.77v5.55Z"/><path class="cls-6" d="M425,434.58a4.08,4.08,0,0,1-.21,1.33,3.53,3.53,0,0,1-.57,1,2.6,2.6,0,0,1-.87.68,2.5,2.5,0,0,1-2.18,0,2.51,2.51,0,0,1-.87-.68,3.13,3.13,0,0,1-.57-1,4.08,4.08,0,0,1-.21-1.33,4,4,0,0,1,.21-1.32,3,3,0,0,1,.57-1.05,2.57,2.57,0,0,1,.87-.7,2.5,2.5,0,0,1,2.18,0,2.66,2.66,0,0,1,.87.7,3.3,3.3,0,0,1,.57,1.05A4,4,0,0,1,425,434.58Zm-.75,0a3.59,3.59,0,0,0-.15-1.07,2.74,2.74,0,0,0-.41-.82,2,2,0,0,0-.63-.54,1.78,1.78,0,0,0-.8-.19,1.72,1.72,0,0,0-1.44.73,2.52,2.52,0,0,0-.41.82,3.59,3.59,0,0,0-.15,1.07,3.55,3.55,0,0,0,.15,1.07,2.58,2.58,0,0,0,.41.83,1.7,1.7,0,0,0,1.44.71,1.77,1.77,0,0,0,.8-.18,2,2,0,0,0,.63-.53,2.8,2.8,0,0,0,.41-.83A3.55,3.55,0,0,0,424.29,434.58Z"/><path class="cls-6" d="M453.2,437.1v.68h-3.71v-.68h1.56v-4.67a1.79,1.79,0,0,1-.31.29,3.63,3.63,0,0,1-1,.5,2.07,2.07,0,0,1-.48.09v-.73a1.24,1.24,0,0,0,.55-.14,2.84,2.84,0,0,0,.56-.33,5,5,0,0,0,.46-.34,1.63,1.63,0,0,0,.21-.22h.76v5.55Z"/><path class="cls-6" d="M457.87,437.1v.68h-3.7v-.68h1.55v-4.67a1.79,1.79,0,0,1-.31.29,4,4,0,0,1-.46.28,3.49,3.49,0,0,1-.53.22,1.9,1.9,0,0,1-.48.09v-.73a1.21,1.21,0,0,0,.55-.14,3.25,3.25,0,0,0,.57-.33,3.75,3.75,0,0,0,.45-.34,1.63,1.63,0,0,0,.21-.22h.76v5.55Z"/><rect class="cls-9" x="85.16" y="216.03" width="401.76" height="1.09"/><rect class="cls-9" x="85.16" y="250.65" width="401.76" height="1.09"/><rect class="cls-9" x="85.16" y="285.28" width="401.76" height="1.09"/><rect class="cls-9" x="85.16" y="319.9" width="401.76" height="1.09"/><rect class="cls-9" x="85.16" y="354.52" width="401.76" height="1.09"/><rect class="cls-9" x="85.16" y="389.15" width="401.76" height="1.09"/><rect class="cls-9" x="452.89" y="181.95" width="1.09" height="242.36"/><rect class="cls-9" x="419.41" y="181.95" width="1.09" height="242.36"/><rect class="cls-9" x="385.93" y="181.95" width="1.09" height="242.36"/><rect class="cls-9" x="352.45" y="181.95" width="1.09" height="242.36"/><rect class="cls-9" x="318.97" y="181.95" width="1.09" height="242.36"/><rect class="cls-9" x="285.49" y="181.95" width="1.09" height="242.36"/><rect class="cls-9" x="252.01" y="181.95" width="1.09" height="242.36"/><rect class="cls-9" x="218.53" y="181.95" width="1.09" height="242.36"/><rect class="cls-9" x="185.05" y="181.95" width="1.09" height="242.36"/><rect class="cls-9" x="151.57" y="181.95" width="1.09" height="242.36"/><rect class="cls-9" x="118.09" y="181.95" width="1.09" height="242.36"/><g class="cls-10"><polygon class="cls-8" points="486.92 425.95 83.52 425.95 83.52 181.95 86.8 181.95 86.8 422.68 486.92 422.68 486.92 425.95"/></g><path class="cls-8" d="M90.62,424.32a5.46,5.46,0,1,1-5.46-5.46A5.46,5.46,0,0,1,90.62,424.32Z"/><path class="cls-11" d="M606.46,221.12h17.4a7.67,7.67,0,0,1,7.67,7.67v203a7.68,7.68,0,0,1-7.68,7.68h-17.4a7.67,7.67,0,0,1-7.67-7.67v-203A7.68,7.68,0,0,1,606.46,221.12Z"/><path class="cls-11" d="M688.58,222.81H706a7.67,7.67,0,0,1,7.67,7.67V431.79a7.68,7.68,0,0,1-7.68,7.68h-17.4a7.68,7.68,0,0,1-7.68-7.68V230.48a7.67,7.67,0,0,1,7.67-7.67Z"/><path class="cls-11" d="M770.69,222.81h17.4a7.67,7.67,0,0,1,7.67,7.67V431.79a7.68,7.68,0,0,1-7.68,7.68h-17.4a7.68,7.68,0,0,1-7.68-7.68V230.48A7.68,7.68,0,0,1,770.69,222.81Z"/><path class="cls-12" d="M759.77,245.39H799a7.67,7.67,0,0,1,7.67,7.67V431.79a7.68,7.68,0,0,1-7.68,7.68H759.77a7.68,7.68,0,0,1-7.68-7.68V253.06A7.68,7.68,0,0,1,759.77,245.39Z"/><path class="cls-11" d="M852.81,222.81h17.4a7.67,7.67,0,0,1,7.67,7.67V431.79a7.68,7.68,0,0,1-7.68,7.68h-17.4a7.68,7.68,0,0,1-7.68-7.68V230.48a7.68,7.68,0,0,1,7.68-7.68Z"/><path class="cls-5" d="M677.66,352.12H716.9a7.67,7.67,0,0,1,7.67,7.67v72a7.68,7.68,0,0,1-7.68,7.68H677.66a7.67,7.67,0,0,1-7.67-7.67v-72A7.68,7.68,0,0,1,677.66,352.12Z"/><path class="cls-11" d="M934.92,222.81h17.4a7.67,7.67,0,0,1,7.67,7.67V431.79a7.68,7.68,0,0,1-7.68,7.68h-17.4a7.68,7.68,0,0,1-7.68-7.68V230.48A7.68,7.68,0,0,1,934.92,222.81Z"/><path class="cls-1" d="M595.55,402.52h39.24a7.67,7.67,0,0,1,7.67,7.67v21.6a7.67,7.67,0,0,1-7.67,7.67H595.55a7.68,7.68,0,0,1-7.68-7.68V410.19A7.68,7.68,0,0,1,595.55,402.52Z"/><path class="cls-2" d="M924,308.45h39.24a7.67,7.67,0,0,1,7.67,7.67V431.79a7.67,7.67,0,0,1-7.67,7.67H924a7.68,7.68,0,0,1-7.68-7.68V316.13A7.68,7.68,0,0,1,924,308.45Z"/><path class="cls-3" d="M841.89,349.21h39.24a7.67,7.67,0,0,1,7.67,7.67v74.9a7.68,7.68,0,0,1-7.68,7.68H841.89a7.67,7.67,0,0,1-7.67-7.67v-74.9A7.68,7.68,0,0,1,841.89,349.21Z"/><path class="cls-13" d="M604.25,202.13V205H593.39a7.45,7.45,0,0,1,1.06-3.09,20.58,20.58,0,0,1,3.48-3.88,22.29,22.29,0,0,0,2.57-2.64,3.38,3.38,0,0,0,.64-1.9,2.15,2.15,0,0,0-.56-1.59,2.38,2.38,0,0,0-3.08,0,3,3,0,0,0-.66,1.94l-3.08-.31a5,5,0,0,1,1.73-3.67,5.81,5.81,0,0,1,3.63-1.11,5.25,5.25,0,0,1,3.76,1.29,4.23,4.23,0,0,1,1.37,3.2,5.42,5.42,0,0,1-.4,2.08,8.51,8.51,0,0,1-1.23,2.07,22.75,22.75,0,0,1-2,2.06c-1,.89-1.6,1.49-1.86,1.78a5.5,5.5,0,0,0-.63.86Z"/><path class="cls-13" d="M611.57,188.79a4.42,4.42,0,0,1,3.67,1.67q1.57,2,1.58,6.58c0,3.06-.53,5.25-1.59,6.59a4.4,4.4,0,0,1-3.66,1.65,4.61,4.61,0,0,1-3.8-1.81q-1.44-1.82-1.44-6.46t1.59-6.57A4.39,4.39,0,0,1,611.57,188.79Zm0,2.57a1.54,1.54,0,0,0-1,.36,2.36,2.36,0,0,0-.68,1.28,17.29,17.29,0,0,0-.32,4,17.78,17.78,0,0,0,.28,3.91,2.69,2.69,0,0,0,.73,1.41,1.51,1.51,0,0,0,1,.36,1.56,1.56,0,0,0,1-.36,2.43,2.43,0,0,0,.68-1.29,25.94,25.94,0,0,0,0-7.93,2.73,2.73,0,0,0-.72-1.42A1.52,1.52,0,0,0,611.57,191.36Z"/><path class="cls-13" d="M618.91,192.84a4.66,4.66,0,0,1,1-3.21,3.33,3.33,0,0,1,2.59-1,3.43,3.43,0,0,1,2.64,1,5.93,5.93,0,0,1,0,6.44,3.33,3.33,0,0,1-2.59,1.05,3.43,3.43,0,0,1-2.64-1A4.7,4.7,0,0,1,618.91,192.84Zm2.41,0a4.1,4.1,0,0,0,.37,2.12.87.87,0,0,0,.76.39.88.88,0,0,0,.77-.39,4.38,4.38,0,0,0,.35-2.12,4.26,4.26,0,0,0-.35-2.1.88.88,0,0,0-.77-.41.85.85,0,0,0-.76.4A4.05,4.05,0,0,0,621.32,192.82Zm3.49,12.8h-2.3l8.61-17h2.22Zm5-4.24a4.61,4.61,0,0,1,1-3.21,3.77,3.77,0,0,1,5.22,0,5.88,5.88,0,0,1,0,6.44,3.3,3.3,0,0,1-2.58,1,3.4,3.4,0,0,1-2.64-1A4.65,4.65,0,0,1,629.81,201.38Zm2.41,0a4.19,4.19,0,0,0,.36,2.11.88.88,0,0,0,.76.4.86.86,0,0,0,.76-.39,4.1,4.1,0,0,0,.37-2.12,4.33,4.33,0,0,0-.35-2.11.9.9,0,0,0-.78-.4.85.85,0,0,0-.76.4A4.19,4.19,0,0,0,632.22,201.37Z"/><path class="cls-13" d="M850.59,202.13V205H839.74a7.43,7.43,0,0,1,1-3.09,20.36,20.36,0,0,1,3.49-3.88,21.89,21.89,0,0,0,2.56-2.64,3.38,3.38,0,0,0,.64-1.9,2.11,2.11,0,0,0-.56-1.59,2.07,2.07,0,0,0-1.53-.55,2,2,0,0,0-1.54.58,3,3,0,0,0-.67,1.94l-3.08-.31a5,5,0,0,1,1.73-3.67,5.81,5.81,0,0,1,3.63-1.11,5.25,5.25,0,0,1,3.76,1.29,4.23,4.23,0,0,1,1.37,3.2,5.61,5.61,0,0,1-.39,2.08,8.58,8.58,0,0,1-1.24,2.07,21.44,21.44,0,0,1-2,2.06c-1,.89-1.6,1.49-1.86,1.78a5.5,5.5,0,0,0-.63.86Z"/><path class="cls-13" d="M852.72,200.85l3.09-.31a2.65,2.65,0,0,0,.78,1.65,2.14,2.14,0,0,0,1.5.61,2.08,2.08,0,0,0,1.64-.78,3.59,3.59,0,0,0,.68-2.38,3.28,3.28,0,0,0-.67-2.23,2.24,2.24,0,0,0-1.74-.74,3.16,3.16,0,0,0-2.39,1.18l-2.51-.37,1.59-8.4h8.18V192H857l-.48,2.75a4.6,4.6,0,0,1,2.11-.52,4.66,4.66,0,0,1,3.5,1.5,5.41,5.41,0,0,1,1.43,3.89,5.86,5.86,0,0,1-1.16,3.56,5.13,5.13,0,0,1-4.37,2.13,5.44,5.44,0,0,1-3.65-1.2A5,5,0,0,1,852.72,200.85Z"/><path class="cls-13" d="M865.25,192.84a4.61,4.61,0,0,1,1-3.21,3.3,3.3,0,0,1,2.58-1,3.43,3.43,0,0,1,2.64,1,5.93,5.93,0,0,1,0,6.44,3.32,3.32,0,0,1-2.58,1.05,3.4,3.4,0,0,1-2.64-1A4.65,4.65,0,0,1,865.25,192.84Zm2.42,0a4.23,4.23,0,0,0,.36,2.12.95.95,0,0,0,1.53,0,4.38,4.38,0,0,0,.35-2.12,4.26,4.26,0,0,0-.35-2.1.88.88,0,0,0-.77-.41.87.87,0,0,0-.76.4A4.19,4.19,0,0,0,867.67,192.82Zm3.48,12.8h-2.29l8.6-17h2.23Zm5-4.24a4.66,4.66,0,0,1,1-3.21,3.77,3.77,0,0,1,5.22,0,5.88,5.88,0,0,1,0,6.44,3.3,3.3,0,0,1-2.58,1,3.4,3.4,0,0,1-2.64-1A4.7,4.7,0,0,1,876.15,201.38Zm2.41,0a4.05,4.05,0,0,0,.37,2.11.85.85,0,0,0,.76.4.87.87,0,0,0,.76-.39,4.23,4.23,0,0,0,.36-2.12,4.33,4.33,0,0,0-.35-2.11.88.88,0,0,0-.77-.4.84.84,0,0,0-.76.4A4.05,4.05,0,0,0,878.56,201.37Z"/><path class="cls-13" d="M675.65,200.72l3-.36a2.79,2.79,0,0,0,.77,1.75,2.12,2.12,0,0,0,1.52.61,2.09,2.09,0,0,0,1.61-.73,2.82,2.82,0,0,0,.66-2,2.61,2.61,0,0,0-.63-1.85,2,2,0,0,0-1.53-.69,5.19,5.19,0,0,0-1.42.24l.34-2.53a2.75,2.75,0,0,0,1.92-.54,2,2,0,0,0,.66-1.54,1.68,1.68,0,0,0-1.78-1.79,1.86,1.86,0,0,0-1.35.56,2.52,2.52,0,0,0-.68,1.6l-2.86-.48a6.36,6.36,0,0,1,.9-2.34,4.08,4.08,0,0,1,1.67-1.38,5.71,5.71,0,0,1,2.41-.5,4.81,4.81,0,0,1,3.66,1.45,3.7,3.7,0,0,1-1.19,6.09,3.75,3.75,0,0,1,2.22,1.33,3.88,3.88,0,0,1,.83,2.5,4.88,4.88,0,0,1-1.55,3.63,5.83,5.83,0,0,1-7.51.23A4.94,4.94,0,0,1,675.65,200.72Z"/><path class="cls-13" d="M693.54,188.79a4.42,4.42,0,0,1,3.67,1.67q1.57,2,1.58,6.58c0,3.06-.53,5.25-1.59,6.59a4.4,4.4,0,0,1-3.66,1.65,4.61,4.61,0,0,1-3.8-1.81q-1.44-1.82-1.44-6.46t1.59-6.57A4.39,4.39,0,0,1,693.54,188.79Zm0,2.57a1.54,1.54,0,0,0-1,.36,2.36,2.36,0,0,0-.68,1.28,17.29,17.29,0,0,0-.32,4,17.78,17.78,0,0,0,.28,3.91,2.76,2.76,0,0,0,.73,1.41,1.51,1.51,0,0,0,1,.36,1.56,1.56,0,0,0,1-.36,2.43,2.43,0,0,0,.68-1.29,25.94,25.94,0,0,0,0-7.93,2.73,2.73,0,0,0-.72-1.42A1.52,1.52,0,0,0,693.54,191.36Z"/><path class="cls-13" d="M700.88,192.84a4.66,4.66,0,0,1,1-3.21,3.33,3.33,0,0,1,2.59-1,3.43,3.43,0,0,1,2.64,1,5.93,5.93,0,0,1,0,6.44,3.33,3.33,0,0,1-2.59,1.05,3.43,3.43,0,0,1-2.64-1A4.7,4.7,0,0,1,700.88,192.84Zm2.41,0a4.1,4.1,0,0,0,.37,2.12.87.87,0,0,0,.76.39.88.88,0,0,0,.77-.39,4.38,4.38,0,0,0,.35-2.12,4.26,4.26,0,0,0-.35-2.1.88.88,0,0,0-.77-.41.85.85,0,0,0-.76.4A4.05,4.05,0,0,0,703.29,192.82Zm3.49,12.8h-2.3l8.61-17h2.22Zm5-4.24a4.66,4.66,0,0,1,1-3.21,3.77,3.77,0,0,1,5.22,0,5.88,5.88,0,0,1,0,6.44,3.3,3.3,0,0,1-2.58,1,3.4,3.4,0,0,1-2.64-1A4.7,4.7,0,0,1,711.78,201.38Zm2.41,0a4.19,4.19,0,0,0,.36,2.11.88.88,0,0,0,.76.4.84.84,0,0,0,.76-.39,4.1,4.1,0,0,0,.37-2.12,4.33,4.33,0,0,0-.35-2.11.89.89,0,0,0-.78-.4.85.85,0,0,0-.76.4A4.19,4.19,0,0,0,714.19,201.37Z"/><path class="cls-13" d="M922,200.72l3-.36a2.79,2.79,0,0,0,.77,1.75,2.14,2.14,0,0,0,1.52.61,2.09,2.09,0,0,0,1.61-.73,2.82,2.82,0,0,0,.66-2,2.61,2.61,0,0,0-.63-1.85,2,2,0,0,0-1.53-.69,5.19,5.19,0,0,0-1.42.24l.34-2.53a2.75,2.75,0,0,0,1.92-.54,2,2,0,0,0,.66-1.54,1.67,1.67,0,0,0-1.77-1.78,1.86,1.86,0,0,0-1.36.55,2.52,2.52,0,0,0-.68,1.6l-2.86-.48a6.36,6.36,0,0,1,.9-2.34,4.08,4.08,0,0,1,1.67-1.38,5.71,5.71,0,0,1,2.41-.5,4.81,4.81,0,0,1,3.66,1.45,3.68,3.68,0,0,1-1.19,6.09,3.69,3.69,0,0,1,2.22,1.33,3.83,3.83,0,0,1,.83,2.5,4.84,4.84,0,0,1-1.55,3.63,5.38,5.38,0,0,1-3.87,1.49,5.31,5.31,0,0,1-3.63-1.26A5,5,0,0,1,922,200.72Z"/><path class="cls-13" d="M945.14,192.81l-3,.33a2.12,2.12,0,0,0-.57-1.36,1.65,1.65,0,0,0-1.2-.44,2,2,0,0,0-1.66.88,7.33,7.33,0,0,0-.85,3.66,3.61,3.61,0,0,1,2.87-1.36,4.36,4.36,0,0,1,3.32,1.48,5.31,5.31,0,0,1,1.39,3.81,5.48,5.48,0,0,1-1.46,4,5.3,5.3,0,0,1-7.75-.41q-1.58-1.89-1.58-6.23t1.64-6.4a5.31,5.31,0,0,1,4.27-2,4.5,4.5,0,0,1,3,1A4.8,4.8,0,0,1,945.14,192.81Zm-7,6.75a3.5,3.5,0,0,0,.7,2.34,2.05,2.05,0,0,0,1.58.82,1.84,1.84,0,0,0,1.44-.68,3.38,3.38,0,0,0,.57-2.2,3.56,3.56,0,0,0-.62-2.31,2,2,0,0,0-3,0A3,3,0,0,0,938.12,199.56Z"/><path class="cls-13" d="M947.22,192.84a4.61,4.61,0,0,1,1-3.21,3.3,3.3,0,0,1,2.58-1,3.43,3.43,0,0,1,2.64,1,5.93,5.93,0,0,1,0,6.44,3.33,3.33,0,0,1-2.59,1.05,3.39,3.39,0,0,1-2.63-1A4.65,4.65,0,0,1,947.22,192.84Zm2.41,0a4.21,4.21,0,0,0,.37,2.12.95.95,0,0,0,1.53,0,4.26,4.26,0,0,0,.35-2.12,4.14,4.14,0,0,0-.35-2.1.88.88,0,0,0-.77-.41.87.87,0,0,0-.76.4A4.16,4.16,0,0,0,949.63,192.82Zm3.49,12.8h-2.3l8.61-17h2.23Zm5-4.24a4.66,4.66,0,0,1,1-3.21,3.77,3.77,0,0,1,5.22,0,5.88,5.88,0,0,1,0,6.44,3.3,3.3,0,0,1-2.58,1,3.4,3.4,0,0,1-2.64-1A4.7,4.7,0,0,1,958.12,201.38Zm2.41,0a4.19,4.19,0,0,0,.36,2.11.88.88,0,0,0,.77.4.87.87,0,0,0,.76-.39,4.23,4.23,0,0,0,.36-2.12,4.33,4.33,0,0,0-.35-2.11.88.88,0,0,0-.77-.4.87.87,0,0,0-.77.4A4.19,4.19,0,0,0,960.53,201.37Z"/><path class="cls-13" d="M764.16,205v-3.25h-6.61v-2.71l7-10.26h2.6V199h2v2.72h-2V205Zm0-6v-5.52L760.45,199Z"/><path class="cls-13" d="M775.87,188.79a4.42,4.42,0,0,1,3.67,1.67q1.58,2,1.58,6.58c0,3.06-.53,5.25-1.59,6.59a4.4,4.4,0,0,1-3.66,1.65,4.61,4.61,0,0,1-3.8-1.81q-1.44-1.82-1.44-6.46t1.58-6.57A4.43,4.43,0,0,1,775.87,188.79Zm0,2.57a1.54,1.54,0,0,0-1,.36,2.36,2.36,0,0,0-.68,1.28,17.29,17.29,0,0,0-.32,4,17.78,17.78,0,0,0,.28,3.91,2.69,2.69,0,0,0,.72,1.41,1.54,1.54,0,0,0,1,.36,1.52,1.52,0,0,0,1-.36,2.37,2.37,0,0,0,.69-1.29,25.94,25.94,0,0,0,0-7.93,2.73,2.73,0,0,0-.72-1.42A1.52,1.52,0,0,0,775.87,191.36Z"/><path class="cls-13" d="M783.21,192.84a4.66,4.66,0,0,1,.95-3.21,3.33,3.33,0,0,1,2.59-1,3.39,3.39,0,0,1,2.63,1,5.88,5.88,0,0,1,0,6.44,3.3,3.3,0,0,1-2.58,1.05,3.43,3.43,0,0,1-2.64-1A4.7,4.7,0,0,1,783.21,192.84Zm2.41,0a4.1,4.1,0,0,0,.37,2.12.87.87,0,0,0,.76.39.9.9,0,0,0,.77-.39,4.38,4.38,0,0,0,.35-2.12,4.26,4.26,0,0,0-.35-2.1.89.89,0,0,0-.77-.41.85.85,0,0,0-.76.4A4.05,4.05,0,0,0,785.62,192.82Zm3.48,12.8h-2.29l8.61-17h2.22Zm5-4.24a4.61,4.61,0,0,1,.95-3.21,3.77,3.77,0,0,1,5.22,0,5.93,5.93,0,0,1,0,6.44,3.3,3.3,0,0,1-2.58,1,3.37,3.37,0,0,1-2.64-1A4.65,4.65,0,0,1,794.11,201.38Zm2.41,0a4.19,4.19,0,0,0,.36,2.11.88.88,0,0,0,.76.4.86.86,0,0,0,.76-.39,4.1,4.1,0,0,0,.37-2.12,4.19,4.19,0,0,0-.36-2.11.87.87,0,0,0-.77-.4.85.85,0,0,0-.76.4A4.19,4.19,0,0,0,796.52,201.37Z"/><path class="cls-14" d="M183.08,720.92a107.5,107.5,0,1,1,107.49-107.5A107.62,107.62,0,0,1,183.08,720.92Z"/><path class="cls-11" d="M183.08,691.35A77.93,77.93,0,1,1,261,613.42,78,78,0,0,1,183.08,691.35Z"/><path class="cls-1" d="M105.15,613.42a78,78,0,0,0,77.38,77.93V535.5A78,78,0,0,0,105.15,613.42Z"/><path class="cls-14" d="M222.43,613.42a39.35,39.35,0,1,1-39.35-39.35A39.36,39.36,0,0,1,222.43,613.42Z"/><path d="M156.57,618l3.79-.4a3.27,3.27,0,0,0,1,2,2.61,2.61,0,0,0,3.87-.21,4.42,4.42,0,0,0,.82-2.92,4,4,0,0,0-.82-2.75,2.72,2.72,0,0,0-2.13-.91,3.86,3.86,0,0,0-2.94,1.45l-3.09-.45L159,603.53h10.07v3.56h-7.18l-.6,3.38a5.82,5.82,0,0,1,6.9,1.2,6.67,6.67,0,0,1,1.76,4.79,7.2,7.2,0,0,1-1.42,4.38,6.31,6.31,0,0,1-5.38,2.62,6.71,6.71,0,0,1-4.49-1.47A6.06,6.06,0,0,1,156.57,618Z"/><path d="M178.39,603.17a5.41,5.41,0,0,1,4.51,2.07q1.93,2.43,1.94,8.09t-2,8.1a5.42,5.42,0,0,1-4.5,2,5.7,5.7,0,0,1-4.68-2.22q-1.77-2.24-1.77-8t1.95-8.08A5.4,5.4,0,0,1,178.39,603.17Zm0,3.16a2,2,0,0,0-1.24.44,3,3,0,0,0-.84,1.58,32.52,32.52,0,0,0,0,9.78,3.4,3.4,0,0,0,.89,1.74,1.94,1.94,0,0,0,2.46,0,3,3,0,0,0,.84-1.58,21.78,21.78,0,0,0,.39-5,21.4,21.4,0,0,0-.35-4.81,3.49,3.49,0,0,0-.88-1.75A1.91,1.91,0,0,0,178.39,606.33Z"/><path d="M187.42,608.16a5.7,5.7,0,0,1,1.17-3.95,4.08,4.08,0,0,1,3.18-1.29A4.18,4.18,0,0,1,195,604.2a7.23,7.23,0,0,1,0,7.92,4.08,4.08,0,0,1-3.18,1.29,4.18,4.18,0,0,1-3.24-1.28A5.76,5.76,0,0,1,187.42,608.16Zm3,0a5.1,5.1,0,0,0,.45,2.6,1.1,1.1,0,0,0,.94.49,1.12,1.12,0,0,0,.95-.49,5.38,5.38,0,0,0,.43-2.6,5.28,5.28,0,0,0-.43-2.59,1.14,1.14,0,0,0-1.89,0A5.14,5.14,0,0,0,190.38,608.14Zm4.29,15.75h-2.82l10.58-21h2.74Zm6.15-5.22a5.75,5.75,0,0,1,1.17-4,4.65,4.65,0,0,1,6.43,0,7.3,7.3,0,0,1,0,7.93,4.08,4.08,0,0,1-3.18,1.29,4.17,4.17,0,0,1-3.25-1.29A5.76,5.76,0,0,1,200.82,618.67Zm3,0a5,5,0,0,0,.45,2.59,1,1,0,0,0,.93.5,1.07,1.07,0,0,0,.94-.48,5.17,5.17,0,0,0,.44-2.61,5.26,5.26,0,0,0-.43-2.6,1.09,1.09,0,0,0-1-.49,1.06,1.06,0,0,0-.93.49A5.1,5.1,0,0,0,203.79,618.65Z"/><path class="cls-14" d="M399,720.91A107.49,107.49,0,1,1,506.53,613.42,107.61,107.61,0,0,1,399,720.91Z"/><path class="cls-11" d="M399,691.35A77.93,77.93,0,1,1,477,613.42,78,78,0,0,1,399,691.35Z"/><path class="cls-5" d="M397.59,613.78V535.51a78,78,0,0,0-76.48,77.91v.36a78,78,0,0,0,76.48,77.55l1.45,0A78,78,0,0,0,477,613.78Z"/><path class="cls-14" d="M436.14,613.42a39.36,39.36,0,1,1-39.36-39.35A39.36,39.36,0,0,1,436.14,613.42Z"/><path d="M370.24,607.07v-3.54h13v2.76a20.39,20.39,0,0,0-3.28,4.56,26.47,26.47,0,0,0-2.54,6.31,23,23,0,0,0-.86,6h-3.68a25.77,25.77,0,0,1,1.7-8.41,28,28,0,0,1,4.29-7.65Z"/><path d="M392.12,603.18a5.41,5.41,0,0,1,4.51,2.06c1.3,1.62,1.94,4.32,1.94,8.09s-.65,6.46-1.95,8.1a5.43,5.43,0,0,1-4.5,2,5.73,5.73,0,0,1-4.68-2.23q-1.77-2.24-1.77-8c0-3.74.65-6.44,1.95-8.08A5.4,5.4,0,0,1,392.12,603.18Zm0,3.15a1.91,1.91,0,0,0-1.23.44,2.93,2.93,0,0,0-.84,1.58,21.32,21.32,0,0,0-.4,5,21.92,21.92,0,0,0,.35,4.8,3.52,3.52,0,0,0,.89,1.75,2,2,0,0,0,1.23.43,1.91,1.91,0,0,0,1.23-.44,2.93,2.93,0,0,0,.84-1.58,21.06,21.06,0,0,0,.4-5,21.29,21.29,0,0,0-.36-4.81,3.49,3.49,0,0,0-.88-1.75A1.91,1.91,0,0,0,392.12,606.33Z"/><path d="M401.15,608.16a5.7,5.7,0,0,1,1.17-3.95,4.08,4.08,0,0,1,3.18-1.29,4.18,4.18,0,0,1,3.25,1.28,7.29,7.29,0,0,1,0,7.92,4.11,4.11,0,0,1-3.18,1.29,4.19,4.19,0,0,1-3.25-1.28A5.76,5.76,0,0,1,401.15,608.16Zm3,0a5.12,5.12,0,0,0,.44,2.6,1.08,1.08,0,0,0,.94.49,1.1,1.1,0,0,0,.95-.49,5.26,5.26,0,0,0,.43-2.6,5.16,5.16,0,0,0-.43-2.59,1.16,1.16,0,0,0-1.89,0A5.17,5.17,0,0,0,404.12,608.14Zm4.28,15.75h-2.82l10.59-21h2.73Zm6.15-5.22a5.75,5.75,0,0,1,1.17-4,4.65,4.65,0,0,1,6.43,0,7.3,7.3,0,0,1,0,7.93,4.08,4.08,0,0,1-3.18,1.29,4.19,4.19,0,0,1-3.25-1.29A5.76,5.76,0,0,1,414.55,618.67Zm3,0a5,5,0,0,0,.45,2.58,1.06,1.06,0,0,0,.93.51,1.08,1.08,0,0,0,.94-.49,5.12,5.12,0,0,0,.45-2.6,5.28,5.28,0,0,0-.44-2.61,1.09,1.09,0,0,0-1-.49,1.06,1.06,0,0,0-.93.49A5.14,5.14,0,0,0,417.52,618.66Z"/><path class="cls-14" d="M615,720.92a107.5,107.5,0,1,1,107.5-107.5A107.62,107.62,0,0,1,615,720.92Z"/><circle class="cls-11" cx="614.99" cy="613.42" r="77.93" transform="translate(-16.86 17.38) rotate(-1.6)"/><path class="cls-12" d="M613.76,613.89V535.51a77.92,77.92,0,0,0,0,155.83H615a77.51,77.51,0,0,0,44.83-14.21Z"/><path class="cls-14" d="M654.52,613.42a39.36,39.36,0,1,1-39.35-39.35A39.36,39.36,0,0,1,654.52,613.42Z"/><path d="M596.43,623.13v-4H588.3V615.8l8.62-12.62h3.2v12.6h2.46v3.35h-2.46v4Zm0-7.35V609l-4.57,6.79Z"/><path d="M610.84,603.18a5.41,5.41,0,0,1,4.51,2.06q1.93,2.43,1.94,8.09t-1.95,8.1a5.43,5.43,0,0,1-4.5,2,5.71,5.71,0,0,1-4.68-2.23q-1.77-2.24-1.77-8c0-3.74.65-6.44,2-8.08A5.39,5.39,0,0,1,610.84,603.18Zm0,3.15a1.91,1.91,0,0,0-1.24.45,2.92,2.92,0,0,0-.84,1.57,32.52,32.52,0,0,0,0,9.78,3.44,3.44,0,0,0,.89,1.75,2,2,0,0,0,1.23.43,1.91,1.91,0,0,0,1.23-.44,3,3,0,0,0,.84-1.58,21.78,21.78,0,0,0,.39-5,21.46,21.46,0,0,0-.35-4.81,3.32,3.32,0,0,0-.89-1.74A1.82,1.82,0,0,0,610.84,606.33Z"/><path d="M619.87,608.16a5.7,5.7,0,0,1,1.17-3.95,4.08,4.08,0,0,1,3.18-1.29,4.18,4.18,0,0,1,3.24,1.28,7.29,7.29,0,0,1,0,7.92,4.08,4.08,0,0,1-3.18,1.29,4.18,4.18,0,0,1-3.24-1.28A5.76,5.76,0,0,1,619.87,608.16Zm3,0a5.1,5.1,0,0,0,.45,2.6,1.1,1.1,0,0,0,.94.49,1.09,1.09,0,0,0,.94-.49,5.23,5.23,0,0,0,.44-2.6,5.14,5.14,0,0,0-.44-2.59,1.06,1.06,0,0,0-.94-.51,1.1,1.1,0,0,0-.94.49A5.14,5.14,0,0,0,622.83,608.14Zm4.29,15.75H624.3l10.58-21h2.74Zm6.15-5.22a5.75,5.75,0,0,1,1.17-4,4.65,4.65,0,0,1,6.43,0,7.3,7.3,0,0,1,0,7.93,4.08,4.08,0,0,1-3.18,1.29,4.17,4.17,0,0,1-3.25-1.29A5.76,5.76,0,0,1,633.27,618.67Zm3,0a5,5,0,0,0,.45,2.58,1.06,1.06,0,0,0,.93.51,1.08,1.08,0,0,0,.94-.49,8,8,0,0,0,0-5.21,1.11,1.11,0,0,0-1-.49,1,1,0,0,0-.93.49A5.12,5.12,0,0,0,636.24,618.66Z"/><path class="cls-14" d="M831,720.92a107.5,107.5,0,1,1,107.5-107.5A107.62,107.62,0,0,1,831,720.92Z"/><path class="cls-11" d="M831,691.35a77.93,77.93,0,1,1,77.93-77.93A78,78,0,0,1,831,691.35Z"/><path class="cls-3" d="M831,535.49l-1,0v75l-51.45-54.63a77.89,77.89,0,0,0,51.45,135.47h1a77.93,77.93,0,0,0,0-155.86Z"/><path class="cls-14" d="M869.58,613.42a39.35,39.35,0,1,1-39.35-39.35A39.36,39.36,0,0,1,869.58,613.42Z"/><path d="M803.92,618.53l3.69-.41a2.64,2.64,0,0,0,.7,1.67,2.06,2.06,0,0,0,1.51.55,2.46,2.46,0,0,0,2-1.09c.55-.72.91-2.22,1.06-4.5a4.56,4.56,0,0,1-3.59,1.67,5.4,5.4,0,0,1-4-1.81,7.43,7.43,0,0,1,.1-9.58,6.07,6.07,0,0,1,4.57-1.86,6.17,6.17,0,0,1,5,2.34q1.93,2.34,1.94,7.7t-2,7.86a6.56,6.56,0,0,1-5.26,2.41,5.56,5.56,0,0,1-3.77-1.24A6,6,0,0,1,803.92,618.53Zm8.62-8.32a4.32,4.32,0,0,0-.85-2.86,2.48,2.48,0,0,0-2-1,2.18,2.18,0,0,0-1.76.84,5.64,5.64,0,0,0,.06,5.55,2.42,2.42,0,0,0,3.75,0A3.8,3.8,0,0,0,812.54,610.21Z"/><path d="M825.72,603.17a5.43,5.43,0,0,1,4.51,2.07q1.93,2.43,1.94,8.09t-1.95,8.1a5.43,5.43,0,0,1-4.5,2,5.7,5.7,0,0,1-4.68-2.23c-1.18-1.49-1.78-4.14-1.78-8s.65-6.44,2-8.08A5.4,5.4,0,0,1,825.72,603.17Zm0,3.16a1.92,1.92,0,0,0-1.24.44,3,3,0,0,0-.84,1.58,32.52,32.52,0,0,0,0,9.78,3.48,3.48,0,0,0,.89,1.75,1.94,1.94,0,0,0,1.23.43,1.91,1.91,0,0,0,1.23-.44,3,3,0,0,0,.84-1.58,21.78,21.78,0,0,0,.39-5,22.09,22.09,0,0,0-.35-4.81,3.48,3.48,0,0,0-.89-1.75A1.89,1.89,0,0,0,825.72,606.33Z"/><path d="M834.74,608.16a5.65,5.65,0,0,1,1.18-3.95,4.07,4.07,0,0,1,3.17-1.29,4.19,4.19,0,0,1,3.25,1.28,7.29,7.29,0,0,1,0,7.92,4.08,4.08,0,0,1-3.18,1.29,4.18,4.18,0,0,1-3.24-1.28A5.71,5.71,0,0,1,834.74,608.16Zm3,0a5.1,5.1,0,0,0,.45,2.6,1.15,1.15,0,0,0,1.88,0,5.23,5.23,0,0,0,.44-2.6,5.14,5.14,0,0,0-.44-2.59,1.07,1.07,0,0,0-.95-.51,1.08,1.08,0,0,0-.93.49A5.14,5.14,0,0,0,837.71,608.14ZM842,623.89h-2.82l10.59-21h2.74Zm6.16-5.22a5.75,5.75,0,0,1,1.17-4,4.65,4.65,0,0,1,6.43,0,7.3,7.3,0,0,1,0,7.93,4.11,4.11,0,0,1-3.18,1.29,4.16,4.16,0,0,1-3.25-1.29A5.76,5.76,0,0,1,848.15,618.67Zm3,0a5,5,0,0,0,.44,2.58,1.07,1.07,0,0,0,.94.51,1,1,0,0,0,.93-.49,5.12,5.12,0,0,0,.45-2.6,5.31,5.31,0,0,0-.43-2.61,1.11,1.11,0,0,0-1-.49,1.08,1.08,0,0,0-.94.49A5.17,5.17,0,0,0,851.12,618.66Z"/></svg>