<svg width="99" height="99" viewBox="0 0 99 99" fill="none" xmlns="http://www.w3.org/2000/svg">
<path fill-rule="evenodd" clip-rule="evenodd" d="M75.0484 0C61.8415 0 51.0968 10.7447 51.0968 23.9516C51.0968 37.1585 61.8415 47.9032 75.0484 47.9032C88.2553 47.9032 99 37.1585 99 23.9516C99 10.7447 88.2553 0 75.0484 0ZM46.3064 38.3226H47.9032C52.3055 38.3226 55.8871 41.9041 55.8871 46.3064V62.2742C55.8871 66.6765 52.3055 70.2581 47.9032 70.2581H28.7004C29.7144 71.5962 30.3387 73.244 30.3387 75.0484V92.6129C30.3387 96.1354 27.4741 99 23.9516 99H0V76.6452H3.37079C1.29339 74.6141 0 71.7878 0 68.6613V55.8871C0 51.3379 2.73687 47.421 6.64577 45.6789C4.53803 43.9193 3.19355 41.2766 3.19355 38.3226C3.19355 33.0389 7.49047 28.7419 12.7742 28.7419C18.0579 28.7419 22.3548 33.0389 22.3548 38.3226C22.3548 41.7636 20.5265 44.7767 17.796 46.4661L40.9445 58.0396C42.166 58.6511 43.1193 59.5868 43.7644 60.6774H46.3064V38.3226ZM19.1613 38.3226C19.1613 34.8001 16.2967 31.9355 12.7742 31.9355C9.25171 31.9355 6.3871 34.8001 6.3871 38.3226C6.3871 41.8451 9.25171 44.7097 12.7742 44.7097C16.2967 44.7097 19.1613 41.8451 19.1613 38.3226ZM3.19355 79.8387H11.1774H14.371H17.5645V92.6129C17.5645 93.7817 17.903 94.8628 18.4523 95.8064H3.19355V79.8387ZM27.1452 92.6129V75.0484C27.1452 72.4073 24.9959 70.2581 22.3548 70.2581H19.1613H17.5645V60.6343L9.91597 56.81L11.3451 53.9534L36.9015 66.7308C37.339 66.9495 37.8308 67.0645 38.321 67.0645C39.6383 67.0645 40.772 66.3045 41.2782 65.0813C41.9041 63.574 41.1121 61.6946 39.5154 60.8962L14.1953 48.2369C13.7578 48.0182 13.266 47.9032 12.7742 47.9032H11.1774C6.77511 47.9032 3.19355 51.4848 3.19355 55.8871V68.6613C3.19355 73.0636 6.77511 76.6452 11.1774 76.6452H14.371H17.5645C19.3258 76.6452 20.7581 78.0775 20.7581 79.8387V92.6129C20.7581 94.3741 22.1904 95.8064 23.9516 95.8064C25.7129 95.8064 27.1452 94.3741 27.1452 92.6129ZM30.4265 67.0645H22.3548H20.7581V62.2311L30.4265 67.0645ZM47.9032 67.0645C50.5443 67.0645 52.6935 64.9153 52.6935 62.2742V46.3064C52.6935 44.2243 51.3586 42.4486 49.5 41.7892V60.6774C49.5 62.4387 48.0677 63.871 46.3064 63.871H44.6841C44.6985 64.6885 44.5564 65.514 44.229 66.3045C44.1189 66.5711 43.9863 66.8202 43.8458 67.0645H47.9032ZM70.8377 38.3226C72.377 41.0626 74.0201 43.0043 75.0484 44.0821C76.0767 43.0043 77.7198 41.0642 79.2607 38.3226H70.8377ZM69.2904 35.129C68.1743 32.4353 67.3296 29.2258 67.13 25.5484H82.9668C82.7688 29.2258 81.9225 32.4353 80.8064 35.129H69.2904ZM63.9364 25.5484H54.3718C54.64 29.0581 55.7817 32.3219 57.5845 35.129H65.8414C64.8354 32.3698 64.1089 29.1699 63.9364 25.5484ZM75.0484 3.82108C76.0767 4.8989 77.7214 6.84058 79.2591 9.58064H70.8361C72.3754 6.84058 74.0201 4.8989 75.0484 3.82108ZM82.9668 22.3548C82.7672 18.6775 81.9225 15.468 80.8064 12.7742H69.2904C68.1743 15.468 67.328 18.6775 67.13 22.3548H82.9668ZM63.9348 22.3548H54.3702C54.64 18.8451 55.7801 15.5813 57.5829 12.7742H65.8398C64.8338 15.5334 64.1073 18.7334 63.9348 22.3548ZM95.7266 25.5484H86.1619C85.9895 29.1699 85.2629 32.3698 84.257 35.129H92.5139C94.3167 32.3219 95.4568 29.0581 95.7266 25.5484ZM86.1619 22.3548C85.9895 18.7334 85.2629 15.5334 84.257 12.7742H92.5139C94.3167 15.5813 95.4584 18.8451 95.7266 22.3548H86.1619ZM82.9013 9.58064H89.9926C87.1088 6.5819 83.342 4.44063 79.1074 3.59753C80.3066 5.09211 81.6766 7.08968 82.9013 9.58064ZM70.9894 3.59753C69.7902 5.09211 68.4218 7.08968 67.1954 9.58064H60.1042C62.9879 6.5819 66.7547 4.44063 70.9894 3.59753ZM67.1954 38.3226H60.1042C62.9879 41.3213 66.7547 43.4626 70.9894 44.3057C69.7902 42.8111 68.4202 40.8135 67.1954 38.3226ZM79.1074 44.3057C80.3066 42.8111 81.6766 40.8135 82.9013 38.3226H89.9926C87.1088 41.3213 83.342 43.4626 79.1074 44.3057ZM70.2581 15.9677V19.1613H73.4516V15.9677H70.2581ZM79.8387 19.1613H76.6452V15.9677H79.8387V19.1613ZM73.4516 28.7419H70.2581V31.9355H73.4516V28.7419ZM79.8387 28.7419V31.9355H76.6452V28.7419H79.8387ZM43.1129 11.1774H41.5161C37.1138 11.1774 33.5323 14.759 33.5323 19.1613V36.7258L31.6161 34.1726L29.0613 36.0871L35.129 44.178L41.1968 36.0855L38.6419 34.171L36.7258 36.7258V19.1613C36.7258 16.5202 38.8751 14.371 41.5161 14.371H43.1129L40.5581 16.2871L42.4742 18.8419L50.565 12.7742L42.4742 6.70645L40.5581 9.26129L43.1129 11.1774ZM47.2645 81.7548L55.3538 87.8226L47.2645 93.8903L45.3484 91.3355L47.9032 89.4194H41.5161C38.8751 89.4194 36.7258 87.2701 36.7258 84.629V79.8387L34.8097 82.3935L32.2548 80.4774L38.3226 72.3866L44.3903 80.4774L41.8355 82.3935L39.9194 79.8387V84.629C39.9194 85.5105 40.6363 86.2258 41.5161 86.2258H47.9032L45.3484 84.3097L47.2645 81.7548ZM87.8226 67.0645C92.2249 67.0645 95.8065 70.6461 95.8065 75.0484V89.4194H99V91.0161C99 95.4184 95.4184 99 91.0161 99H65.4677C61.0654 99 57.4839 95.4184 57.4839 91.0161V89.4194H60.6774V75.0484C60.6774 70.6461 64.259 67.0645 68.6613 67.0645H87.8226ZM63.871 75.0484C63.871 72.4073 66.0202 70.2581 68.6613 70.2581H87.8226C90.4636 70.2581 92.6129 72.4073 92.6129 75.0484V89.4194H63.871V75.0484ZM91.0161 95.8064C93.0983 95.8064 94.8739 94.4715 95.5318 92.6129H60.9505C61.6099 94.4715 63.3855 95.8064 65.4677 95.8064H91.0161ZM78.2419 73.4516C75.6009 73.4516 73.4516 75.6009 73.4516 78.2419C73.4516 80.883 75.6009 83.0323 78.2419 83.0323C80.883 83.0323 83.0323 80.883 83.0323 78.2419C83.0323 75.6009 80.883 73.4516 78.2419 73.4516ZM76.6452 78.2419C76.6452 79.1234 77.3621 79.8387 78.2419 79.8387C79.1218 79.8387 79.8387 79.1234 79.8387 78.2419C79.8387 77.3605 79.1218 76.6452 78.2419 76.6452C77.3621 76.6452 76.6452 77.3605 76.6452 78.2419Z" fill="#4487C0"/>
</svg>
