<svg width="60" height="75" viewBox="0 0 60 75" fill="none" xmlns="http://www.w3.org/2000/svg">
<path d="M32.3438 30.586C32.3438 29.7657 32.3438 28.9513 32.3438 28.131C32.3438 26.1622 32.3438 24.1993 32.3438 22.2306C32.3438 19.8517 32.3438 17.4728 32.3438 15.088C32.3438 13.0314 32.3438 10.9689 32.3438 8.91225C32.3438 7.9103 32.3614 6.90248 32.3438 5.90053C32.3438 5.88881 32.3438 5.87124 32.3438 5.85952C32.3438 4.63491 31.2657 3.45718 30.0001 3.51577C28.7286 3.57436 27.6563 4.54702 27.6563 5.85952C27.6563 6.67983 27.6563 7.49428 27.6563 8.31459C27.6563 10.2833 27.6563 12.2462 27.6563 14.215C27.6563 16.5939 27.6563 18.9728 27.6563 21.3575C27.6563 23.4142 27.6563 25.4767 27.6563 27.5333C27.6563 28.5353 27.6387 29.5431 27.6563 30.545C27.6563 30.5567 27.6563 30.5743 27.6563 30.586C27.6563 31.8106 28.7344 32.9884 30.0001 32.9298C31.2716 32.8712 32.3438 31.8985 32.3438 30.586Z" fill="#4487C0"/>
<path d="M38.5137 14.1972C39.8672 14.8593 41.1504 15.6621 42.3457 16.582C42.1875 16.459 42.0293 16.3359 41.8711 16.2129C43.3477 17.3672 44.6778 18.6972 45.8321 20.1796C45.709 20.0214 45.586 19.8632 45.4629 19.705C46.6348 21.2226 47.6016 22.8808 48.3457 24.6503C48.2696 24.4628 48.1875 24.2753 48.1114 24.0878C48.8614 25.8867 49.377 27.7792 49.6407 29.7187C49.6114 29.5136 49.5821 29.3027 49.5586 29.0976C49.8164 31.0488 49.8164 33.0175 49.5586 34.9687C49.5879 34.7636 49.6172 34.5527 49.6407 34.3476C49.377 36.3105 48.8555 38.2265 48.0879 40.0487C48.1641 39.8612 48.2461 39.6738 48.3223 39.4863C47.584 41.2206 46.6231 42.8554 45.4746 44.3554C45.5977 44.1972 45.7207 44.039 45.8438 43.8808C44.6836 45.3749 43.3418 46.7167 41.8477 47.8769C42.0059 47.7538 42.1641 47.6308 42.3223 47.5077C40.8282 48.662 39.1934 49.6171 37.4532 50.3612C37.6407 50.2851 37.8282 50.203 38.0157 50.1269C36.1934 50.8944 34.2715 51.4218 32.3145 51.6854C32.5196 51.6561 32.7305 51.6269 32.9356 51.6034C30.9844 51.8612 29.0157 51.8612 27.0645 51.6034C27.2696 51.6327 27.4805 51.662 27.6856 51.6854C25.7227 51.4218 23.8067 50.9003 21.9844 50.1269C22.1719 50.203 22.3594 50.2851 22.5469 50.3612C20.8125 49.6229 19.1778 48.662 17.6778 47.5077C17.836 47.6308 17.9942 47.7538 18.1524 47.8769C16.6582 46.7167 15.3164 45.3749 14.1563 43.8808C14.2793 44.039 14.4024 44.1972 14.5254 44.3554C13.3711 42.8612 12.4161 41.2265 11.6778 39.4863C11.7539 39.6738 11.836 39.8612 11.9121 40.0487C11.1446 38.2265 10.6231 36.3046 10.3594 34.3476C10.3887 34.5527 10.418 34.7636 10.4414 34.9687C10.1836 33.0175 10.1895 31.0488 10.4414 29.0976C10.4121 29.3027 10.3829 29.5136 10.3594 29.7187C10.6231 27.7851 11.1329 25.8925 11.8887 24.0878C11.8125 24.2753 11.7305 24.4628 11.6543 24.6503C12.3985 22.8867 13.3711 21.2226 14.5372 19.705C14.4141 19.8632 14.2911 20.0214 14.168 20.1796C15.3164 18.6972 16.6465 17.3672 18.1289 16.2129C17.9707 16.3359 17.8125 16.459 17.6543 16.582C18.8496 15.6562 20.1329 14.8593 21.4864 14.1972C21.9903 13.9511 22.418 13.3242 22.5645 12.7968C22.7168 12.2343 22.6465 11.4902 22.3301 10.9922C22.0079 10.4941 21.5274 10.0488 20.9297 9.91404C20.2911 9.76756 19.7168 9.86131 19.125 10.1484C14.9239 12.2109 11.3438 15.5742 8.95902 19.5996C6.83793 23.1738 5.67778 27.2871 5.56645 31.4296C5.44926 35.5546 6.43364 39.6855 8.32621 43.3476C10.2832 47.1386 13.3067 50.3729 16.8926 52.6757C20.3965 54.9257 24.4864 56.1854 28.6348 56.4432C32.7715 56.7011 36.9141 55.8104 40.6524 54.0468C44.5137 52.2186 47.8067 49.2831 50.2266 45.7792C52.6055 42.3339 53.959 38.2851 54.3516 34.1367C54.545 32.0859 54.4161 30.041 54.0996 28.0019C53.7774 25.9394 53.1387 23.9824 52.3067 22.0664C50.5254 17.9472 47.4844 14.4375 43.8164 11.8769C42.8848 11.2265 41.9004 10.6523 40.8809 10.1543C40.3067 9.87303 39.7032 9.74412 39.0762 9.9199C38.5313 10.0722 37.9454 10.4883 37.6758 10.998C37.3887 11.5429 37.2422 12.1992 37.4414 12.8027C37.6172 13.3535 37.9746 13.9336 38.5137 14.1972Z" fill="#4487C0"/>
</svg>
