<svg width="60" height="75" viewBox="0 0 60 75" fill="none" xmlns="http://www.w3.org/2000/svg">
<path d="M48.75 27.5V25C48.75 20.0272 46.7746 15.2581 43.2583 11.7417C39.7419 8.22544 34.9728 6.25 30 6.25C25.0272 6.25 20.2581 8.22544 16.7417 11.7417C13.2254 15.2581 11.25 20.0272 11.25 25V27.5C10.2554 27.5 9.30161 27.8951 8.59835 28.5983C7.89509 29.3016 7.5 30.2554 7.5 31.25V38.75C7.5 39.7446 7.89509 40.6984 8.59835 41.4016C9.30161 42.1049 10.2554 42.5 11.25 42.5H12.5C12.5 43.163 12.7634 43.7989 13.2322 44.2678C13.7011 44.7366 14.337 45 15 45C15.663 45 16.2989 44.7366 16.7678 44.2678C17.2366 43.7989 17.5 43.163 17.5 42.5V27.5C17.4974 27.0624 17.3799 26.6332 17.1594 26.2553C16.9389 25.8773 16.6231 25.5639 16.2435 25.3462C15.8639 25.1286 15.4338 25.0144 14.9962 25.015C14.5587 25.0157 14.1289 25.1312 13.75 25.35V25C13.75 20.6902 15.462 16.557 18.5095 13.5095C21.557 10.462 25.6902 8.75 30 8.75C34.3098 8.75 38.443 10.462 41.4905 13.5095C44.5379 16.557 46.25 20.6902 46.25 25V25.35C45.8711 25.1312 45.4413 25.0157 45.0038 25.015C44.5662 25.0144 44.1361 25.1286 43.7565 25.3462C43.3769 25.5639 43.0611 25.8773 42.8406 26.2553C42.6201 26.6332 42.5026 27.0624 42.5 27.5V42.5C42.5 43.163 42.7634 43.7989 43.2322 44.2678C43.7011 44.7366 44.337 45 45 45C45.3179 45.0018 45.6328 44.9379 45.925 44.8125C45.4188 46.6597 44.3205 48.2898 42.7986 49.4527C41.2767 50.6156 39.4153 51.247 37.5 51.25H33.75V50C33.75 49.2583 33.5301 48.5333 33.118 47.9166C32.706 47.2999 32.1203 46.8193 31.4351 46.5354C30.7498 46.2516 29.9958 46.1774 29.2684 46.3221C28.541 46.4667 27.8728 46.8239 27.3483 47.3483C26.8239 47.8728 26.4667 48.541 26.3221 49.2684C26.1774 49.9958 26.2516 50.7498 26.5355 51.4351C26.8193 52.1203 27.2999 52.706 27.9166 53.118C28.5333 53.5301 29.2583 53.75 30 53.75H37.5C40.4837 53.75 43.3452 52.5647 45.4549 50.4549C47.5647 48.3452 48.75 45.4837 48.75 42.5C49.7446 42.5 50.6984 42.1049 51.4016 41.4016C52.1049 40.6984 52.5 39.7446 52.5 38.75V31.25C52.5 30.2554 52.1049 29.3016 51.4016 28.5983C50.6984 27.8951 49.7446 27.5 48.75 27.5Z" fill="#4487C0"/>
</svg>
