<svg width="60" height="75" viewBox="0 0 60 75" fill="none" xmlns="http://www.w3.org/2000/svg">
<path d="M27.8363 25.9612C27.8363 25.464 27.6387 24.9871 27.2871 24.6354C26.9354 24.2838 26.4585 24.0862 25.9613 24.0862H5.71125C6.15507 19.363 8.23357 14.9427 11.5881 11.5881C14.9427 8.23357 19.363 6.15507 24.0863 5.71125V16.875H20.625C20.1277 16.875 19.6508 17.0725 19.2992 17.4242C18.9475 17.7758 18.75 18.2527 18.75 18.75C18.75 19.2473 18.9475 19.7242 19.2992 20.0758C19.6508 20.4275 20.1277 20.625 20.625 20.625H25.9613C26.4585 20.625 26.9354 20.4275 27.2871 20.0758C27.6387 19.7242 27.8363 19.2473 27.8363 18.75V3.75C27.8363 3.25272 27.6387 2.77581 27.2871 2.42417C26.9354 2.07254 26.4585 1.875 25.9613 1.875C19.5755 1.88244 13.4534 4.42249 8.93792 8.93792C4.42249 13.4534 1.88244 19.5755 1.875 25.9612C1.875 26.4585 2.07254 26.9354 2.42417 27.2871C2.77581 27.6387 3.25272 27.8362 3.75 27.8362H25.9613C26.4585 27.8362 26.9354 27.6387 27.2871 27.2871C27.6387 26.9354 27.8363 26.4585 27.8363 25.9612Z" fill="#4487C0"/>
<path d="M34.0387 9.95251C33.5415 9.95251 33.0646 10.1501 32.7129 10.5017C32.3613 10.8533 32.1637 11.3302 32.1637 11.8275V32.1638H11.8275C11.3302 32.1638 10.8533 32.3613 10.5017 32.7129C10.15 33.0646 9.9525 33.5415 9.9525 34.0388C9.9525 38.8026 11.3651 43.4594 14.0118 47.4204C16.6584 51.3813 20.4202 54.4685 24.8213 56.2916C29.2225 58.1146 34.0655 58.5916 38.7377 57.6622C43.41 56.7328 47.7018 54.4388 51.0703 51.0703C54.4388 47.7018 56.7328 43.41 57.6622 38.7378C58.5916 34.0655 58.1146 29.2225 56.2915 24.8214C54.4685 20.4202 51.3813 16.6584 47.4204 14.0118C43.4594 11.3651 38.8026 9.95251 34.0387 9.95251ZM34.0387 54.375C28.9716 54.3687 24.0888 52.4736 20.3442 49.0598C16.5997 45.646 14.2623 40.9587 13.7887 35.9138H34.0387C34.536 35.9138 35.0129 35.7162 35.3646 35.3646C35.7162 35.013 35.9137 34.536 35.9137 34.0388V13.7888C41.1233 14.2701 45.9469 16.7406 49.3819 20.6868C52.8168 24.6329 54.5988 29.7511 54.3574 34.9773C54.1159 40.2034 51.8696 45.1355 48.0855 48.7481C44.3013 52.3608 39.2705 54.376 34.0387 54.375Z" fill="#4487C0"/>
<path d="M13.6688 17.4187C13.5033 17.6011 13.3701 17.8103 13.275 18.0375C13.1789 18.2629 13.128 18.505 13.125 18.75C13.1228 19.1224 13.2316 19.487 13.4375 19.7974C13.6434 20.1077 13.937 20.3497 14.281 20.4926C14.6249 20.6354 15.0036 20.6725 15.3688 20.5993C15.7339 20.526 16.069 20.3457 16.3313 20.0812C16.6843 19.7282 16.8827 19.2493 16.8827 18.75C16.8827 18.2507 16.6843 17.7718 16.3313 17.4187C15.9782 17.0657 15.4993 16.8673 15 16.8673C14.5007 16.8673 14.0218 17.0657 13.6688 17.4187Z" fill="#4487C0"/>
</svg>
