<?xml version="1.0" standalone="no"?>
<!DOCTYPE svg PUBLIC "-//W3C//DTD SVG 20010904//EN"
 "http://www.w3.org/TR/2001/REC-SVG-20010904/DTD/svg10.dtd">
<svg version="1.0" xmlns="http://www.w3.org/2000/svg"
 width="758.000000pt" height="426.000000pt" viewBox="0 0 758.000000 426.000000"
 preserveAspectRatio="xMidYMid meet">
<metadata>
Created by potrace 1.16, written by Peter Selinger 2001-2019
</metadata>
<g transform="translate(0.000000,426.000000) scale(0.100000,-0.100000)"
fill="#000000" stroke="none">
<path d="M5460 3509 c-80 -45 -244 -136 -365 -204 -121 -67 -279 -154 -351
-194 -91 -49 -134 -79 -142 -97 -14 -30 -14 -35 -3 -53 7 -11 23 -6 82 29 202
117 368 210 614 345 149 82 281 157 295 167 16 13 33 17 50 13 19 -4 21 -3 10
5 -12 8 -9 10 13 10 15 0 27 -5 27 -13 0 -13 14 -23 85 -63 30 -16 45 -20 53
-12 6 6 19 7 29 4 17 -7 17 -8 1 -20 -15 -11 -9 -16 43 -45 32 -18 59 -34 59
-36 0 -1 -9 -5 -20 -8 -10 -3 -18 -1 -17 5 3 13 -68 39 -121 45 -32 4 -42 2
-40 -8 2 -8 -7 -15 -19 -17 -16 -2 -23 2 -23 13 0 13 -2 14 -14 3 -8 -7 -10
-14 -5 -16 5 -2 9 -10 9 -19 0 -9 -8 -13 -22 -11 -13 2 -22 9 -20 16 1 9 -15
4 -45 -12 -27 -13 -78 -40 -115 -58 -48 -24 -66 -37 -63 -48 3 -10 -6 -22 -25
-33 -16 -10 -27 -23 -24 -31 3 -7 -2 -19 -11 -26 -8 -7 -15 -19 -15 -27 0 -24
30 -61 60 -73 17 -7 30 -16 30 -20 0 -4 26 -19 58 -33 62 -28 84 -27 149 6 40
21 163 105 184 126 9 9 37 34 62 55 41 35 45 41 33 58 -11 16 -9 23 21 54 26
28 38 35 52 28 57 -28 311 -179 311 -185 0 -13 -668 -389 -691 -389 -13 0 -76
29 -140 65 -64 36 -120 65 -125 65 -4 0 -36 -30 -70 -67 l-62 -68 -90 48 c-49
26 -92 47 -95 47 -2 0 -8 -24 -11 -54 l-7 -54 -59 24 c-33 13 -63 24 -67 24
-12 0 167 -108 438 -263 192 -110 264 -147 290 -147 26 0 144 63 516 275 276
158 491 287 503 303 22 27 21 65 -3 89 -7 6 -142 87 -302 179 -159 91 -321
185 -360 207 -38 22 -81 40 -95 41 -14 1 -24 6 -23 13 3 12 -185 129 -193 121
-2 -3 28 -22 66 -44 39 -21 70 -42 70 -46 0 -13 -8 -10 -90 38 l-79 45 -79
-45 c-43 -25 -82 -46 -86 -46 -18 0 10 23 69 56 61 34 75 44 58 44 -5 0 -73
-37 -153 -81z"/>
<path d="M2063 3253 c-18 -9 -33 -22 -33 -30 0 -7 -14 -20 -32 -29 l-31 -16
34 -33 c45 -44 59 -62 52 -68 -9 -10 80 -91 155 -141 68 -45 77 -48 122 -44
33 3 73 19 125 49 80 45 102 69 89 97 -16 36 -11 50 27 71 25 15 37 28 36 41
-1 11 -3 20 -4 20 -2 0 -28 -14 -57 -30 l-54 -31 -128 65 c-196 98 -240 109
-301 79z"/>
<path d="M1330 3019 c-69 -38 -133 -78 -142 -90 -24 -29 -22 -61 5 -86 19 -17
842 -498 962 -562 73 -39 12 -68 843 410 128 74 233 139 234 144 2 12 -91 75
-110 75 -7 0 -92 -45 -187 -101 -96 -55 -179 -98 -184 -95 -5 3 -12 46 -16 96
-4 50 -11 93 -16 95 -4 3 -114 -55 -242 -130 -129 -74 -243 -135 -253 -135
-11 0 -49 -32 -89 -74 l-70 -76 -377 213 c-208 116 -378 215 -378 218 0 3 44
30 99 60 90 49 97 55 80 67 -11 7 -19 20 -19 28 0 8 -3 14 -7 13 -5 0 -64 -32
-133 -70z"/>
<path d="M3775 2545 c-55 -30 -108 -53 -117 -51 -9 2 -15 -1 -12 -8 2 -6 -131
-86 -303 -181 -493 -274 -493 -274 -493 -322 0 -30 9 -29 71 8 29 16 121 66
205 109 84 43 172 90 196 104 l44 25 54 -32 c51 -31 74 -57 51 -57 -6 0 -20
-9 -31 -20 l-20 -20 32 0 c32 0 32 0 -22 -36 -30 -20 -59 -37 -65 -38 -5 -1
-22 -9 -37 -19 -16 -9 -40 -24 -54 -33 -21 -12 -23 -18 -13 -30 10 -12 8 -17
-7 -29 -10 -8 -23 -15 -27 -15 -4 0 -15 -16 -23 -36 -15 -36 -15 -37 13 -66
15 -17 84 -69 153 -116 69 -47 127 -89 130 -92 11 -12 238 -159 301 -194 42
-23 79 -36 103 -36 29 0 111 43 419 219 380 217 587 338 597 348 8 8 -32 36
-150 103 l-113 65 69 5 68 5 -249 145 c-138 79 -301 175 -363 212 -62 37 -115
68 -117 68 -2 0 -30 16 -62 35 -81 49 -107 46 -228 -20z"/>
<path d="M1296 2422 c-155 -245 -187 -561 -87 -839 29 -81 98 -215 113 -221 4
-2 8 -10 8 -18 0 -8 6 -17 14 -20 17 -6 96 32 96 47 0 5 -15 33 -33 62 -37 59
-77 158 -108 267 -22 78 -31 274 -16 350 23 118 43 178 93 278 l41 83 -42 24
c-23 14 -45 25 -48 25 -4 0 -17 -17 -31 -38z"/>
<path d="M5615 2313 c-121 -68 -223 -127 -228 -132 -5 -5 17 -24 48 -44 l57
-35 41 19 c49 22 110 25 126 6 16 -20 2 -28 -35 -21 -33 6 -111 -13 -99 -24 4
-4 28 -7 53 -7 35 0 47 -4 47 -15 0 -10 -8 -14 -25 -12 -33 5 -33 5 104 -81
66 -41 126 -73 133 -70 10 4 13 45 12 187 -1 99 -4 220 -8 267 l-6 86 -220
-124z"/>
<path d="M2305 2164 c-71 -40 -134 -76 -140 -78 -5 -3 30 -42 78 -88 84 -80
89 -83 130 -80 46 3 74 -9 63 -27 -5 -7 -21 -9 -44 -5 l-37 6 50 -45 50 -45 3
197 c3 191 -1 242 -16 240 -4 0 -65 -34 -137 -75z"/>
<path d="M2160 1626 c-41 -22 -45 -28 -48 -65 l-3 -41 43 20 c24 11 53 20 65
20 23 0 77 -56 67 -71 -3 -5 0 -9 6 -9 17 0 72 30 68 38 -6 14 -135 132 -144
132 -5 0 -29 -11 -54 -24z"/>
<path d="M1525 1275 c-349 -194 -368 -208 -350 -261 12 -32 -11 -18 585 -360
332 -191 432 -244 459 -244 28 0 138 59 511 272 261 149 485 280 498 291 26
24 30 78 8 100 -8 8 -84 54 -168 103 -84 48 -229 132 -323 186 l-170 98 -70 0
-70 0 30 -19 c17 -10 121 -71 233 -136 111 -64 204 -121 207 -125 8 -13 -95
-62 -121 -57 -25 4 -50 -15 -40 -31 8 -13 -496 -302 -527 -302 -14 0 -79 29
-143 65 -65 36 -124 63 -132 60 -8 -3 -38 8 -67 24 l-53 30 -21 -23 c-11 -12
-21 -27 -21 -32 0 -6 21 -25 46 -43 l46 -33 -28 -29 -27 -29 -31 19 c-17 10
-129 73 -248 141 -120 67 -218 125 -218 129 0 3 41 29 90 56 258 144 539 301
565 317 l30 18 -75 -1 -75 -1 -330 -183z"/>
<path d="M5331 1453 c-8 -3 -28 -20 -45 -37 -28 -29 -96 -68 -506 -293 -138
-76 -159 -100 -130 -150 10 -16 176 -118 508 -309 420 -242 499 -284 533 -284
34 0 108 39 487 256 536 308 528 303 541 331 22 49 0 74 -146 158 -75 44 -141
82 -147 84 -5 2 -104 59 -219 127 l-210 124 -76 0 c-69 0 -82 -4 -145 -39 -68
-38 -68 -38 -45 -54 l23 -16 -25 -9 c-13 -6 -27 -8 -30 -6 -4 2 -9 -3 -13 -11
-3 -8 -17 -15 -30 -15 -14 0 -45 -11 -68 -25 -24 -14 -64 -35 -90 -47 -25 -11
-52 -31 -58 -44 -8 -14 -18 -20 -28 -17 -10 4 -13 1 -10 -8 2 -8 55 -44 117
-82 l113 -67 101 59 c56 32 134 77 174 100 87 51 99 64 77 82 -13 10 -17 10
-24 -2 -7 -10 -12 -11 -21 -2 -8 8 -1 19 31 42 23 17 50 33 60 36 12 4 77 -27
184 -87 91 -51 165 -96 166 -99 1 -14 -669 -389 -695 -389 -15 0 -78 29 -142
65 -63 36 -117 65 -120 65 -2 0 -35 -31 -71 -70 l-67 -70 -226 128 c-124 71
-236 135 -248 144 -26 18 -26 18 89 82 47 27 168 94 270 151 l185 104 51 -30
c28 -16 57 -29 63 -29 9 0 263 142 280 156 7 6 -403 3 -418 -3z"/>
<path d="M2348 1383 c-10 -21 -44 -44 -133 -90 -112 -57 -170 -93 -151 -93 4
0 -4 -14 -18 -31 -50 -59 4 -89 94 -53 22 9 40 20 40 24 0 4 12 13 28 19 28
12 94 56 156 105 l38 30 34 -19 c25 -13 38 -15 46 -7 17 17 5 34 -60 90 l-61
53 -13 -28z"/>
</g>
</svg>
